<?xml version="1.0" encoding="utf-8"?>
<!-- Generator: Adobe Illustrator 16.0.0, SVG Export Plug-In . SVG Version: 6.00 Build 0)  -->
<!DOCTYPE svg PUBLIC "-//W3C//DTD SVG 1.1//EN" "http://www.w3.org/Graphics/SVG/1.1/DTD/svg11.dtd">
<svg version="1.1" id="Layer_1" xmlns="http://www.w3.org/2000/svg" xmlns:xlink="http://www.w3.org/1999/xlink" x="0px" y="0px"
	 width="33.996px" height="82.875px" viewBox="0 0 33.996 82.875" enable-background="new 0 0 33.996 82.875" xml:space="preserve">
<g id="Globe_icon_2_">
	<g>
		<path fill="#626363" d="M16.998,1C7.597,1,0.146,8.627,0.146,17.852c0,9.401,7.628,16.853,16.852,16.853
			c9.402,0,16.853-7.629,16.853-16.853C33.851,8.45,26.933,1,16.998,1z M23.562,6.144c0,0,0.178-0.887,0.355-1.597
			c0.354-0.177,1.419,0.71,2.483,1.774c-0.71,2.483-2.307,2.306-2.307,2.306s-1.241,0-1.241-1.064L23.562,6.144z M20.191,7.74
			c0.178-0.355,0.532-0.532,0.887-0.532c0.355-0.177,0,0.709,0,1.064c0,0.532-0.177,0.709,0.355,1.242s-1.064,0.177-1.42-0.178
			C19.659,8.982,20.191,7.74,20.191,7.74z M13.273,22.286c0,0.355-0.71,1.242-1.064,1.951c-0.354,0.532-0.532,0.887-0.887,1.064
			c-0.355,0.355-0.532,0.887-0.532,0.887l0.177,1.242c0,0,0.355,0.887,0.532,1.242c0.178,0.354-0.532,2.482-0.532,2.482
			c-0.709-0.177-1.241-0.354-1.419-0.887c-0.177-0.531-0.532-0.531-0.532-1.242c0-0.709-1.064-1.418-1.241-1.951
			c-0.178-0.354-0.532-0.887-0.532-1.241s-0.888-0.887-0.888-0.887s-1.419-0.71-1.773-1.064c-0.178-0.354-0.532-1.597-0.532-2.129
			s0.178-1.951,0.178-1.951s0.532-0.532,0.177-0.888c-0.354-0.354-0.532-1.418-0.532-1.418l-0.709-0.71c0,0-0.532-0.71-0.532-1.064
			c0-0.355,0-0.532,0-1.064c0-0.354-0.178-1.064-0.178-1.419c2.839-6.918,7.45-8.515,7.45-8.515l0.355,1.596
			c0,0-0.887,0.178-1.242,0C8.483,6.144,8.307,6.144,8.307,6.144L7.774,7.031c0,0-0.178,0.532-0.355,0.887
			c0,0.355,0.178,0.709,0.178,0.709s1.064,0,1.064-0.177c0-0.355-0.178-0.532-0.178-0.532L8.307,7.385c0,0,0.709-0.354,2.483-0.177
			c1.773,0.177,1.064,1.419,1.951,1.774c0.709,0.354-0.532,1.419-0.887,1.951c-0.355,0.532-0.71-0.709-0.71-0.709
			s0.532-0.532-0.354-0.709c-0.71-0.178-0.888,0.887-0.532,0.709c0.354,0,0.532,0.532,0.354,0.887c0,0.355,0,0.887-0.532,1.597
			c-0.354,0.887-1.773,0.887-1.773,0.887s0.177,0.354,0.532,0.887c0.177,0.532,0,1.418,0,1.774s-0.888-0.532-1.064-1.242
			c-0.178-0.709-0.532-0.532-0.888-0.355c-0.354,0-1.241,0.355-1.419,0c-0.177-0.354-1.419,0.709-1.951,0.888
			c-0.354,0.177-0.178,0.887,0.354,0.531c0.532-0.354,1.064,0,1.064,0.533c-0.177,0.531-0.709,0.177-0.709,0.531
			c0,0.355,0.709,0.71,0.887,1.242c0.178,0.531,1.597-0.178,1.951-0.532c0.532-0.178,1.774-0.532,1.951,0.177
			c0.178,0.533,1.774,1.064,2.307,1.242s1.596,0.178,2.128,0.887C14.515,20.867,13.45,21.931,13.273,22.286z M16.466,4.725
			c0,0.709-1.419,1.951-1.241,2.128c0.178,0.355,0.178,2.661-0.887,1.419c-1.064-1.064-2.129-2.661-1.951-3.548
			c0-0.178,0-0.355,0-0.709c1.596-1.419,5.144-1.242,5.321-0.887C17.176,4.192,16.466,4.015,16.466,4.725z M18.24,9.159
			c-0.178-0.355,0.532-0.532,0.532-0.532c1.064,0.177,0.71,1.064,0.532,1.242C19.127,10.224,18.418,9.514,18.24,9.159z
			 M30.125,18.206c0,0,0.532,0.887,1.42,0.887c-0.532,6.209-5.854,10.289-5.854,10.289c-0.887-0.887-0.354-1.419-0.354-1.419
			l0.532-1.241l0.177-1.952c0,0-0.177-2.128-2.306-1.063c-2.129,0.531-1.241,0.887-3.37,0.887c-2.129,0.177-1.419-4.258-1.419-4.258
			c-0.178-1.773,0.177-1.42,0.177-2.838c0-1.42,4.612-0.533,4.612-0.533c3.016,1.951,3.37-0.531,3.37-0.531l2.129-0.887l0.178-1.065
			l-1.242-1.419L26.4,12.175c0,0-0.887,0.532,0,1.774c0,0-0.354,1.419-0.887,1.064l-1.774-2.306c0,0-0.709,1.064-1.597,1.597
			c-1.064,0.532-2.66,0-2.66,0s-0.532-1.774,0.531-2.306h1.597c0,0-0.354-0.887-0.177-1.597c0.177-0.887,0.709-0.177,1.419-0.709
			c0.887-0.532,1.419,1.242,2.483,1.064c1.241-0.177,0.532-0.355,1.419-0.887c0.887-0.354,1.419,0.887,1.419,0.887l1.597,0.177
			c0,0-1.064-2.661-1.419-3.016c0,0,0,0-0.178,0c0,0,0,0,0.178,0c0.887,0.177,4.08,5.677,3.193,9.046
			c-0.355-0.177-0.532-0.354-0.532-0.354h-1.951L30.125,18.206z"/>
	</g>
</g>
<g id="Globe_icon_1_">
	<g>
		<path fill="#949494" d="M16.998,48.17c-9.401,0-16.852,7.627-16.852,16.852c0,9.401,7.628,16.852,16.852,16.852
			c9.402,0,16.853-7.629,16.853-16.852C33.851,55.621,26.933,48.17,16.998,48.17z M23.562,53.314c0,0,0.178-0.887,0.355-1.597
			c0.354-0.177,1.419,0.71,2.483,1.774c-0.71,2.483-2.307,2.306-2.307,2.306s-1.241,0-1.241-1.064L23.562,53.314z M20.191,54.911
			c0.178-0.355,0.532-0.532,0.887-0.532c0.355-0.177,0,0.709,0,1.064c0,0.532-0.177,0.709,0.355,1.242s-1.064,0.177-1.42-0.178
			C19.659,56.153,20.191,54.911,20.191,54.911z M13.273,69.457c0,0.355-0.71,1.242-1.064,1.952
			c-0.354,0.531-0.532,0.887-0.887,1.063c-0.355,0.355-0.532,0.887-0.532,0.887l0.177,1.242c0,0,0.355,0.887,0.532,1.242
			c0.178,0.354-0.532,2.482-0.532,2.482c-0.709-0.176-1.241-0.354-1.419-0.887c-0.177-0.531-0.532-0.531-0.532-1.242
			c0-0.709-1.064-1.418-1.241-1.951c-0.178-0.354-0.532-0.887-0.532-1.24c0-0.355-0.888-0.888-0.888-0.888s-1.419-0.709-1.773-1.064
			c-0.178-0.354-0.532-1.597-0.532-2.129s0.178-1.951,0.178-1.951s0.532-0.532,0.177-0.888c-0.354-0.354-0.532-1.418-0.532-1.418
			l-0.709-0.71c0,0-0.532-0.71-0.532-1.064c0-0.355,0-0.532,0-1.064c0-0.354-0.178-1.064-0.178-1.419
			c2.839-6.918,7.45-8.515,7.45-8.515l0.355,1.596c0,0-0.887,0.178-1.242,0c-0.532-0.177-0.709-0.177-0.709-0.177l-0.532,0.887
			c0,0-0.178,0.532-0.355,0.887c0,0.355,0.178,0.709,0.178,0.709s1.064,0,1.064-0.177c0-0.355-0.178-0.532-0.178-0.532l-0.177-0.532
			c0,0,0.709-0.354,2.483-0.177c1.773,0.177,1.064,1.419,1.951,1.774c0.709,0.354-0.532,1.419-0.887,1.951
			c-0.355,0.532-0.71-0.709-0.71-0.709s0.532-0.532-0.354-0.709c-0.71-0.178-0.888,0.887-0.532,0.709
			c0.354,0,0.532,0.532,0.354,0.887c0,0.355,0,0.887-0.532,1.597c-0.354,0.887-1.773,0.887-1.773,0.887s0.177,0.354,0.532,0.887
			c0.177,0.532,0,1.418,0,1.774s-0.888-0.532-1.064-1.242c-0.178-0.709-0.532-0.532-0.888-0.355c-0.354,0-1.241,0.355-1.419,0
			c-0.177-0.354-1.419,0.709-1.951,0.888c-0.354,0.177-0.178,0.887,0.354,0.531c0.532-0.354,1.064,0,1.064,0.533
			c-0.177,0.531-0.709,0.177-0.709,0.531c0,0.355,0.709,0.71,0.887,1.242c0.178,0.531,1.597-0.178,1.951-0.532
			c0.532-0.178,1.774-0.532,1.951,0.177c0.178,0.533,1.774,1.064,2.307,1.242s1.596,0.178,2.128,0.887
			C14.515,68.038,13.45,69.102,13.273,69.457z M16.466,51.896c0,0.709-1.419,1.951-1.241,2.128c0.178,0.355,0.178,2.661-0.887,1.419
			c-1.064-1.064-2.129-2.661-1.951-3.548c0-0.178,0-0.355,0-0.709c1.596-1.419,5.144-1.242,5.321-0.887
			C17.176,51.363,16.466,51.186,16.466,51.896z M18.24,56.33c-0.178-0.355,0.532-0.532,0.532-0.532
			c1.064,0.177,0.71,1.064,0.532,1.242C19.127,57.395,18.418,56.685,18.24,56.33z M30.125,65.377c0,0,0.532,0.887,1.42,0.887
			c-0.532,6.208-5.854,10.289-5.854,10.289c-0.887-0.887-0.354-1.418-0.354-1.418l0.532-1.242l0.177-1.952
			c0,0-0.177-2.127-2.306-1.063c-2.129,0.532-1.241,0.887-3.37,0.887c-2.129,0.176-1.419-4.258-1.419-4.258
			c-0.178-1.773,0.177-1.42,0.177-2.838c0-1.42,4.612-0.533,4.612-0.533c3.016,1.951,3.37-0.531,3.37-0.531l2.129-0.887l0.178-1.065
			l-1.242-1.419L26.4,59.346c0,0-0.887,0.532,0,1.774c0,0-0.354,1.419-0.887,1.064l-1.774-2.306c0,0-0.709,1.064-1.597,1.597
			c-1.064,0.532-2.66,0-2.66,0s-0.532-1.774,0.531-2.306h1.597c0,0-0.354-0.887-0.177-1.597c0.177-0.887,0.709-0.177,1.419-0.709
			c0.887-0.532,1.419,1.242,2.483,1.064c1.241-0.177,0.532-0.355,1.419-0.887c0.887-0.354,1.419,0.887,1.419,0.887l1.597,0.177
			c0,0-1.064-2.661-1.419-3.016c0,0,0,0-0.178,0c0,0,0,0,0.178,0c0.887,0.177,4.08,5.677,3.193,9.046
			c-0.355-0.177-0.532-0.354-0.532-0.354h-1.951L30.125,65.377z"/>
	</g>
</g>
</svg>
