<?xml version="1.0" encoding="utf-8"?>
<!-- Generator: Adobe Illustrator 16.0.0, SVG Export Plug-In . SVG Version: 6.00 Build 0)  -->
<!DOCTYPE svg PUBLIC "-//W3C//DTD SVG 1.1//EN" "http://www.w3.org/Graphics/SVG/1.1/DTD/svg11.dtd">
<svg version="1.1" id="Layer_1" xmlns="http://www.w3.org/2000/svg" xmlns:xlink="http://www.w3.org/1999/xlink" x="0px" y="0px"
	 width="33.996px" height="982.17px" viewBox="0 0 33.996 982.17" enable-background="new 0 0 33.996 982.17" xml:space="preserve">
<g id="movie_tape_2_">
	<g>
		<path fill="#010202" d="M33.577,25.291c-0.174-0.173-0.521-0.347-1.387-0.173c-1.387,0.173-2.426-0.347-3.119-1.386
			c-0.52-0.866-0.52-1.559-0.346-2.425s0.867-2.078,2.078-3.464l0.693-1.04c2.08-2.945,2.6-5.37,1.387-7.448
			c-1.213-2.252-4.852-1.906-7.623-0.866c-2.078-4.331-6.582-7.276-11.778-7.276c-7.276,0-13.166,5.89-13.166,12.992
			s5.889,12.992,13.166,12.992c7.274,0,13.165-5.89,13.165-12.992c0-1.559-0.346-3.118-0.865-4.504
			c0.865-0.346,1.904-0.52,2.943-0.52c1.387,0,2.598,0.174,2.945,1.04c1.039,1.732,0.52,3.984-1.559,6.41l-0.348,0.52
			c-2.426,2.945-2.943,5.37-1.732,7.622c0.52,0.867,1.387,1.56,2.426,1.906c1.039,0.347,2.078,0.347,2.771-0.173
			C33.749,25.983,33.749,25.637,33.577,25.291z M7.419,16.802c-1.56,0-2.772-1.212-2.772-2.771s1.213-2.771,2.772-2.771
			c1.559,0,2.771,1.212,2.771,2.771S8.979,16.802,7.419,16.802z M13.482,22.692c-1.559,0-2.772-1.212-2.772-2.771
			s1.213-2.771,2.772-2.771c1.558,0,2.771,1.212,2.771,2.771S15.041,22.692,13.482,22.692z M12.443,14.031
			c0-0.52,0.52-1.039,1.04-1.039c0.519,0,1.039,0.52,1.039,1.039s-0.52,1.039-1.039,1.039C12.962,15.07,12.443,14.724,12.443,14.031
			z M13.482,10.74c-1.559,0-2.772-1.213-2.772-2.772c0-1.559,1.213-2.771,2.772-2.771c1.558,0,2.771,1.213,2.771,2.771
			C16.253,9.527,15.041,10.74,13.482,10.74z M19.544,16.802c-1.559,0-2.771-1.212-2.771-2.771s1.212-2.771,2.771-2.771
			c1.561,0,2.773,1.212,2.773,2.771S21.104,16.802,19.544,16.802z"/>
	</g>
</g>
<g id="Headphones_2_">
	<g>
		<path fill="#010202" d="M8,50.477c-0.532,0-1.064,0.532-1.064,1.064v7.451c0,0.532,0.532,1.064,1.064,1.064
			s1.064-0.532,1.064-1.064v-7.451C9.065,51.009,8.533,50.477,8,50.477z M31.948,50.655l-0.178-0.532
			c-0.531-6.918-7.449-13.304-14.723-13.304c-7.272,0-14.014,6.563-14.546,13.481v0.355c-1.241,0.177-2.306,1.242-2.306,2.661v4.08
			c0,1.419,1.241,2.661,2.661,2.661c1.419,0,2.66-1.242,2.66-2.661v-4.08v-2.129c0-5.499,5.677-11.175,11.354-11.175
			c5.677,0,11.531,5.676,11.531,11.175c0,0.532,0,2.129,0,2.129v4.08c0,1.419,1.242,2.661,2.66,2.661c1.42,0,2.66-1.242,2.66-2.661
			v-4.08C34.077,52.074,33.19,51.009,31.948,50.655z M26.45,50.477c-0.533,0-1.064,0.532-1.064,1.064v7.451
			c0,0.532,0.531,1.064,1.064,1.064c0.531,0,1.064-0.532,1.064-1.064v-7.451C27.515,51.009,26.981,50.477,26.45,50.477z"/>
	</g>
</g>
<g id="Shape_1_copy_2_">
	<g>
		<path fill="#010202" d="M18.04,95l5.676,5.321V70.165l-5.676,5.322V95z M10.767,100.322L16.443,95V75.487l-5.677-5.322V100.322z
			 M25.136,95.887l4.08,0.709V73.358l-4.08,1.064V95.887z M5.445,96.774l4.08-0.709V74.422l-4.08-1.064V96.774z M30.989,75.842
			v18.625l1.419-0.354V76.196L30.989,75.842z M2.252,94.291l1.419,0.354V75.842l-1.419,0.354V94.291z"/>
	</g>
</g>
<g id="Shape_1_copy_1_">
	<g>
		<path fill="#FBC516" d="M18.04,137l5.676,5.321v-30.157l-5.676,5.322V137z M10.767,142.322L16.443,137v-19.514l-5.677-5.322
			V142.322z M25.136,137.887l4.08,0.709v-23.238l-4.08,1.064V137.887z M5.445,138.774l4.08-0.709v-21.643l-4.08-1.064V138.774z
			 M30.989,117.842v18.625l1.419-0.354v-17.918L30.989,117.842z M2.252,136.291l1.419,0.354v-18.803l-1.419,0.354V136.291z"/>
	</g>
</g>
<g id="Fullscreen_Film_by_Austin_Andrews_2_">
	<g>
		<path fill="#010202" d="M22.209,184.913H5.356v-16.852h10.466l3.193-3.725H1.276v24.834h24.835v-17.738l-3.902,3.902V184.913z
			 M21.854,157.241l-4.257,4.257h8.515l-12.95,12.95l3.193,3.192l12.772-12.772v7.982l4.257-3.902v-11.707H21.854z"/>
	</g>
</g>
<g>
	<path fill="#020303" d="M16.784,208.232l-4.677,10.469l-11.359,1.113l8.464,7.573l-2.45,11.136l10.022-5.79l10.022,5.79
		l-2.449-11.136l8.464-7.573l-11.36-1.113L16.784,208.232L16.784,208.232z"/>
</g>
<g id="Icons_with_numbers">
	<g id="Group" transform="translate(-48.000000, -48.000000)">
		<path id="Shape" fill="#020303" d="M50.388,305.528h18.871v11.794h9.436v23.589h-9.436H50.388V305.528L50.388,305.528z
			 M71.617,305.528l7.077,9.436h-7.077V305.528L71.617,305.528z"/>
	</g>
</g>
<g id="Volume_Icon_-_Mute_2_">
	<g>
		<path fill="#010202" d="M2.243,348.583v9.19h6.8l9.741,6.432v-22.054l-9.741,6.432H2.243z M31.649,350.789l-1.286-1.286
			l-3.309,3.308l-3.309-3.308l-1.286,1.286l3.308,3.308l-3.308,3.309l1.286,1.287l3.309-3.309l3.309,3.309l1.286-1.287l-3.309-3.309
			L31.649,350.789z"/>
	</g>
</g>
<g id="Volume_Icon_-_Min_copy_2_">
	<g>
		<polygon fill="#010202" points="9.228,312.771 2.427,312.771 2.427,321.961 9.228,321.961 18.968,328.393 18.968,306.338 		"/>
	</g>
</g>
<g id="Volume_Icon_-_Mute_1_">
	<g>
		<path fill="#626362" d="M2.243,418.583v9.19h6.8l9.741,6.432v-22.054l-9.741,6.432H2.243z M31.649,420.789l-1.286-1.286
			l-3.309,3.308l-3.309-3.308l-1.286,1.286l3.308,3.308l-3.308,3.309l1.286,1.287l3.309-3.309l3.309,3.309l1.286-1.287l-3.309-3.309
			L31.649,420.789z"/>
	</g>
</g>
<g id="Volume_Icon_-_Min_copy_1_">
	<g>
		<polygon fill="#626362" points="9.228,382.771 2.427,382.771 2.427,391.961 9.228,391.961 18.968,398.393 18.968,376.338 		"/>
	</g>
</g>
<g id="Play_copy_3_2_">
	<g>
		<polygon fill="#010202" points="5.591,487.554 5.591,510.187 23.697,498.87 		"/>
	</g>
</g>
<g id="Pause_Sign_by_Freepik_copy_2_">
	<g>
		<path fill="#010202" d="M20.98,449h-4.073c-0.227,0-0.454,0.226-0.454,0.452v21.728c0,0.226,0.227,0.452,0.454,0.452h4.073
			c0.228,0,0.454-0.227,0.454-0.452v-21.728C21.435,449.226,21.208,449,20.98,449z M10.117,449H6.044
			c-0.227,0-0.454,0.226-0.454,0.452v21.728c0,0.226,0.227,0.452,0.454,0.452h4.073c0.227,0,0.454-0.227,0.454-0.452v-21.728
			C10.571,449.226,10.571,449,10.117,449z"/>
	</g>
</g>
<g id="Play_copy_3_1_">
	<g>
		<polygon fill="#626362" points="5.591,615.038 5.591,637.67 23.697,626.353 		"/>
	</g>
</g>
<g id="Pause_Sign_by_Freepik_copy_1_">
	<g>
		<path fill="#626362" d="M20.98,576.484h-4.073c-0.227,0-0.454,0.226-0.454,0.452v21.728c0,0.226,0.227,0.452,0.454,0.452h4.073
			c0.228,0,0.454-0.227,0.454-0.452v-21.728C21.435,576.709,21.208,576.484,20.98,576.484z M10.117,576.484H6.044
			c-0.227,0-0.454,0.226-0.454,0.452v21.728c0,0.226,0.227,0.452,0.454,0.452h4.073c0.227,0,0.454-0.227,0.454-0.452v-21.728
			C10.571,576.709,10.571,576.484,10.117,576.484z"/>
	</g>
</g>
<g id="Rectangle_30_2_">
	<g>
		<rect x="5.104" y="534.114" fill="#010202" width="19.513" height="19.512"/>
	</g>
</g>
<g id="Rectangle_30_1_">
	<g>
		<rect x="5.104" y="658.114" fill="#626363" width="19.513" height="19.512"/>
	</g>
</g>
<path fill="#020303" d="M25.795,694.868v7.628l-2.661-2.661l-4.258,4.258l-2.128-2.307l4.257-4.257l-2.661-2.661H25.795z
	 M10.539,697.706l4.257,4.258l-2.128,2.129l-4.258-4.258l-2.661,2.661v-7.628H13.2L10.539,697.706z M23.134,710.301l2.661-2.661
	v7.628h-7.628l2.66-2.661l-4.079-4.435l2.128-2.129L23.134,710.301z M14.619,708.172l-4.258,4.258l2.661,2.66H5.395v-7.628
	l2.661,2.661l4.257-4.258L14.619,708.172z"/>
<g id="Volume_High._Attribute_as_Icomoon_from_Flaticon.com_copy_2_">
	<g>
		<path fill="#9A9999" d="M18.313,771.235c-0.442-0.442-1.239-0.442-1.682,0c-0.442,0.442-0.442,1.15,0,1.593
			c1.947,1.947,1.947,5.045,0,6.991c-0.442,0.443-0.442,1.151,0,1.594c0.266,0.266,0.531,0.354,0.796,0.354
			c0.266,0,0.62-0.088,0.797-0.354C21.145,778.669,21.145,774.067,18.313,771.235z M22.473,769.112
			c-0.442-0.443-1.239-0.443-1.682,0c-0.442,0.441-0.442,1.149,0,1.592c3.186,3.098,3.186,8.143,0,11.24
			c-0.442,0.441-0.442,1.15,0,1.593c0.266,0.266,0.531,0.354,0.797,0.354s0.619-0.088,0.797-0.354
			c2.034-1.947,3.097-4.514,3.097-7.257C25.481,773.536,24.419,771.058,22.473,769.112z M26.632,766.987
			c-0.442-0.442-1.238-0.442-1.682,0c-0.442,0.442-0.442,1.15,0,1.594c2.124,2.035,3.274,4.867,3.274,7.787
			c0,2.921-1.15,5.664-3.274,7.789c-0.442,0.441-0.442,1.149,0,1.593c0.266,0.265,0.531,0.354,0.797,0.354s0.62-0.089,0.797-0.354
			c2.566-2.479,3.982-5.842,3.982-9.382C30.614,772.828,29.198,769.465,26.632,766.987z M13.888,766.102l-5.929,5.752H4.064v9.116
			h3.894l5.929,5.753c0.62,0.619,1.151,0.442,1.151-0.443v-19.735C14.95,765.66,14.508,765.483,13.888,766.102z"/>
	</g>
</g>
<g>
	<path fill="#9A9999" d="M13.888,732.102l-5.929,5.752H4.064v9.116h3.894l5.929,5.753c0.62,0.619,1.151,0.442,1.151-0.443v-19.735
		C14.95,731.66,14.508,731.483,13.888,732.102z"/>
</g>
<text transform="matrix(1 0 0 1 0 840.4448)" fill="#989999" font-family="'OpenSans-Light'" font-size="56.7652">+</text>
<text transform="matrix(1 0 0 1 4.231 853.3364)" fill="#989999" font-family="'OpenSans-Light'" font-size="56.7652">_</text>
<g id="Cross_Out_Mark_by_Freepik_2_">
	<g>
		<polygon fill="#9A9999" points="30.53,885.334 29.726,884.529 17.298,896.957 4.87,884.529 4.064,885.334 16.492,897.761 
			4.064,910.189 4.87,910.995 17.298,898.567 29.726,910.995 30.53,910.189 18.103,897.761 		"/>
	</g>
</g>
<g id="SEO_Tips_Interface_Symbol_by_SimpleIcon_2_">
	<g>
		<path fill="#9A9999" d="M31.511,954.313l-5.022-5.021c-0.445-0.446-1.227-0.558-1.785-0.335l-0.893-0.892
			c4.129-4.688,4.018-11.829-0.446-16.404c-4.687-4.686-12.162-4.686-16.849,0c-4.687,4.687-4.687,12.163,0,16.85
			c4.463,4.464,11.716,4.688,16.404,0.446l0.892,0.894c-0.223,0.558-0.111,1.339,0.335,1.785l5.021,5.021
			c0.67,0.67,1.674,0.67,2.344,0C32.068,955.987,32.068,954.983,31.511,954.313z M21.802,947.059
			c-3.905,3.906-10.154,3.906-13.948,0c-3.905-3.904-3.905-10.154,0-13.947c3.906-3.906,10.154-3.906,13.948,0
			C25.708,936.905,25.708,943.266,21.802,947.059z"/>
	</g>
</g>
</svg>
