<?xml version="1.0" encoding="utf-8"?>
<!-- Generator: Adobe Illustrator 16.0.0, SVG Export Plug-In . SVG Version: 6.00 Build 0)  -->
<!DOCTYPE svg PUBLIC "-//W3C//DTD SVG 1.1//EN" "http://www.w3.org/Graphics/SVG/1.1/DTD/svg11.dtd">
<svg version="1.1" id="Layer_1" xmlns="http://www.w3.org/2000/svg" xmlns:xlink="http://www.w3.org/1999/xlink" x="0px" y="0px"
	 width="32.053px" height="138.083px" viewBox="0 0 32.053 138.083" enable-background="new 0 0 32.053 138.083"
	 xml:space="preserve">
<g>
	<path fill="#2DA0DA" d="M4.674,19.864h6.74v2.307h-6.74V19.864z M4.674,24.654h6.74v2.306h-6.74V24.654z M4.674,29.266h6.74v2.307
		h-6.74V29.266z M29.686,8.334l-4.967-5.322c-1.064-1.242-3.193-2.129-4.79-2.129H3.077c-1.597,0-2.839,1.419-2.839,3.016v32.107
		c0,1.598,1.242,3.016,2.839,3.016h25.898c1.597,0,2.839-1.418,2.839-3.016V13.301C31.637,11.704,30.75,9.398,29.686,8.334
		L29.686,8.334z M28.089,9.93c0.178,0.178,0.178,0.178,0.355,0.355h-5.677V4.254c0.177,0.177,0.354,0.177,0.354,0.354L28.089,9.93z
		 M29.331,35.83c0,0.354-0.178,0.532-0.532,0.532H2.899c-0.354,0-0.532-0.355-0.532-0.532V3.721c0-0.354,0.178-0.531,0.532-0.531
		h16.853c0.177,0,0.354,0,0.532,0v9.401h8.869c0,0.177,0,0.354,0,0.532V35.83H29.331z M18.155,26.959h6.563
		c-0.532,2.661-2.838,4.79-5.499,4.79c-3.016,0-5.677-2.661-5.677-5.854c0-2.838,1.951-5.321,4.435-5.854v6.918H18.155z
		 M21.525,17.558c3.016,0,5.677,2.661,5.677,5.854c0,0.354,0,0.887-0.178,1.241h-6.563v-6.919
		C20.816,17.558,21.171,17.558,21.525,17.558L21.525,17.558z"/>
</g>
<g>
	<path fill="#6D6D6C" d="M4.674,68.151h6.74v2.307h-6.74V68.151z M4.674,72.941h6.74v2.306h-6.74V72.941z M4.674,77.553h6.74v2.307
		h-6.74V77.553z M29.686,56.622l-4.967-5.322c-1.064-1.242-3.193-2.129-4.79-2.129H3.077c-1.597,0-2.839,1.419-2.839,3.016v32.107
		c0,1.598,1.242,3.016,2.839,3.016h25.898c1.597,0,2.839-1.418,2.839-3.016V61.588C31.637,59.991,30.75,57.685,29.686,56.622
		L29.686,56.622z M28.089,58.217c0.178,0.178,0.178,0.178,0.355,0.355h-5.677v-6.031c0.177,0.177,0.354,0.177,0.354,0.354
		L28.089,58.217z M29.331,84.117c0,0.354-0.178,0.532-0.532,0.532H2.899c-0.354,0-0.532-0.355-0.532-0.532V52.008
		c0-0.354,0.178-0.531,0.532-0.531h16.853c0.177,0,0.354,0,0.532,0v9.401h8.869c0,0.177,0,0.354,0,0.532v22.706H29.331z
		 M18.155,75.247h6.563c-0.532,2.661-2.838,4.79-5.499,4.79c-3.016,0-5.677-2.661-5.677-5.854c0-2.838,1.951-5.321,4.435-5.854
		v6.918H18.155z M21.525,65.845c3.016,0,5.677,2.661,5.677,5.854c0,0.354,0,0.887-0.178,1.241h-6.563v-6.919
		C20.816,65.845,21.171,65.845,21.525,65.845L21.525,65.845z"/>
</g>
<g>
	<path fill="#949494" d="M4.674,118.151h6.74v2.307h-6.74V118.151z M4.674,122.941h6.74v2.306h-6.74V122.941z M4.674,127.553h6.74
		v2.307h-6.74V127.553z M29.686,106.622l-4.967-5.322c-1.064-1.242-3.193-2.129-4.79-2.129H3.077c-1.597,0-2.839,1.419-2.839,3.016
		v32.107c0,1.598,1.242,3.016,2.839,3.016h25.898c1.597,0,2.839-1.418,2.839-3.016v-22.705
		C31.637,109.991,30.75,107.685,29.686,106.622L29.686,106.622z M28.089,108.217c0.178,0.178,0.178,0.178,0.355,0.355h-5.677v-6.031
		c0.177,0.177,0.354,0.177,0.354,0.354L28.089,108.217z M29.331,134.117c0,0.354-0.178,0.532-0.532,0.532H2.899
		c-0.354,0-0.532-0.355-0.532-0.532v-32.108c0-0.354,0.178-0.531,0.532-0.531h16.853c0.177,0,0.354,0,0.532,0v9.401h8.869
		c0,0.177,0,0.354,0,0.532v22.706H29.331z M18.155,125.247h6.563c-0.532,2.661-2.838,4.79-5.499,4.79
		c-3.016,0-5.677-2.661-5.677-5.854c0-2.838,1.951-5.321,4.435-5.854v6.918H18.155z M21.525,115.845
		c3.016,0,5.677,2.661,5.677,5.854c0,0.354,0,0.887-0.178,1.241h-6.563v-6.919C20.816,115.845,21.171,115.845,21.525,115.845
		L21.525,115.845z"/>
</g>
</svg>
