<?xml version="1.0" encoding="iso-8859-1"?>
<!-- Generator: Adobe Illustrator 16.0.3, SVG Export Plug-In . SVG Version: 6.00 Build 0)  -->
<!DOCTYPE svg PUBLIC "-//W3C//DTD SVG 1.1//EN" "http://www.w3.org/Graphics/SVG/1.1/DTD/svg11.dtd">
<svg version="1.1" id="Layer_1" xmlns="http://www.w3.org/2000/svg" xmlns:xlink="http://www.w3.org/1999/xlink" x="0px" y="0px"
	 width="24.813px" height="24.75px" viewBox="0 0 24.813 24.75" style="enable-background:new 0 0 24.813 24.75;"
	 xml:space="preserve">
<circle style="fill:#FFFFFF;" cx="11.876" cy="12.522" r="8.844"/>
<g id="Close_x2C__Cross_Inside_A_Circle_2_">
	<g>
		<path style="fill:#E83B60;" d="M20.871,3.879C16.266-0.728,8.855-0.828,4.149,3.678C-0.659,8.185-0.858,15.795,3.648,20.7
			c0.102,0.103,0.2,0.198,0.2,0.302c4.706,4.705,12.316,4.705,17.023,0C25.577,16.193,25.577,8.585,20.871,3.879z M18.268,15.896
			l-2.404,2.402l-3.604-3.604l-3.605,3.604L6.25,15.896l3.604-3.604L6.25,8.684l2.403-2.4l3.605,3.604l3.604-3.604l2.404,2.4
			l-3.604,3.604L18.268,15.896z"/>
	</g>
</g>
</svg>
