<?xml version="1.0" encoding="utf-8"?>
<!-- Generator: Adobe Illustrator 16.0.0, SVG Export Plug-In . SVG Version: 6.00 Build 0)  -->
<!DOCTYPE svg PUBLIC "-//W3C//DTD SVG 1.1//EN" "http://www.w3.org/Graphics/SVG/1.1/DTD/svg11.dtd">
<svg version="1.1" id="Layer_1" xmlns="http://www.w3.org/2000/svg" xmlns:xlink="http://www.w3.org/1999/xlink" x="0px" y="0px"
	 width="33.16px" height="520.5px" viewBox="0 0 33.16 520.5" enable-background="new 0 0 33.16 520.5" xml:space="preserve">
<g id="Globe_copy_1_">
	<g>
		<path fill="#31A1B4" d="M16.643,1.125c-8.337,0-15.078,6.741-15.078,15.078c0,8.338,6.741,15.078,15.078,15.078
			c8.338,0,15.079-6.74,15.079-15.078C31.722,7.866,25.513,1.125,16.643,1.125z M22.674,5.737c0,0,0.178-0.71,0.355-1.419
			c0.177-0.178,1.241,0.532,2.129,1.597c-0.532,2.306-1.952,2.129-1.952,2.129s-1.241,0-1.064-0.888L22.674,5.737z M19.481,7.156
			c0.177-0.354,0.532-0.354,0.887-0.532c0.354-0.177,0,0.532,0,1.064c0,0.355-0.178,0.532,0.354,1.064s-0.887,0.178-1.241-0.177
			C18.949,8.221,19.481,7.156,19.481,7.156z M13.45,20.106c0,0.354-0.71,1.063-0.888,1.596c-0.354,0.532-0.354,0.71-0.709,1.064
			c-0.354,0.355-0.532,0.71-0.532,0.71v1.064c0,0,0.354,0.709,0.532,1.064c0.178,0.354-0.354,2.129-0.354,2.129
			c-0.532-0.178-1.064-0.355-1.42-0.888c-0.177-0.532-0.532-0.532-0.354-1.064c0-0.532-0.887-1.419-1.064-1.596
			c-0.177-0.355-0.532-0.888-0.532-1.064c0-0.355-0.709-0.888-0.709-0.888S6,21.703,5.822,21.348
			c-0.178-0.354-0.354-1.419-0.532-1.951c0-0.532,0.178-1.597,0.178-1.597S6,17.445,5.645,17.091
			C5.29,16.735,5.29,15.849,5.29,15.849l-0.71-0.532c0,0-0.532-0.709-0.532-1.064c0-0.354,0-0.532,0-0.887s-0.177-0.887-0.177-1.242
			c2.483-6.208,6.74-7.627,6.74-7.627l0.355,1.419c0,0-0.71,0.177-1.064,0C9.547,5.737,9.37,5.737,9.37,5.737l-0.532,0.71
			c0,0-0.178,0.532-0.354,0.709c0,0.355,0.177,0.71,0.177,0.71s0.887,0,0.887-0.178c0-0.354-0.177-0.354-0.177-0.354L9.192,6.802
			c0,0,0.532-0.354,2.307-0.178c1.596,0.178,1.064,1.242,1.596,1.597c0.71,0.354-0.532,1.242-0.887,1.774s-0.709-0.71-0.709-0.71
			s0.354-0.532-0.355-0.532c-0.709-0.178-0.887,0.71-0.532,0.71c0.355,0,0.355,0.354,0.355,0.709c0,0.355,0,0.71-0.355,1.419
			c-0.354,0.71-1.596,0.71-1.596,0.71s0.177,0.354,0.354,0.71c0.177,0.354,0,1.419,0,1.596c0,0.355-0.887-0.532-0.887-1.063
			c-0.178-0.71-0.532-0.355-0.888-0.355c-0.354,0-1.064,0.355-1.241,0c-0.178-0.354-1.419,0.71-1.597,0.887
			c-0.354,0.178-0.178,0.71,0.354,0.532c0.532-0.354,1.064,0,0.888,0.532c-0.178,0.532-0.71,0.178-0.532,0.532
			c0,0.354,0.532,0.71,0.709,1.064c0.178,0.532,1.419-0.178,1.774-0.354c0.354-0.178,1.596-0.355,1.596,0.177
			c0.178,0.532,1.597,1.064,2.129,1.064c0.532,0.178,1.419,0.178,1.951,0.71C14.337,18.864,13.45,19.751,13.45,20.106z M16.11,4.496
			c0,0.709-1.241,1.596-1.063,1.951c0.177,0.354,0.177,2.306-0.888,1.419c-0.887-1.064-1.951-2.483-1.773-3.016
			c0-0.178,0-0.354,0-0.532c1.419-1.242,4.612-1.064,4.789-0.71C16.82,3.964,16.288,3.786,16.11,4.496z M17.707,8.398
			c-0.177-0.355,0.532-0.532,0.532-0.532c0.888,0.178,0.532,0.887,0.532,1.064C18.595,9.285,17.885,8.753,17.707,8.398z
			 M28.351,16.381c0,0,0.532,0.71,1.242,0.71c-0.532,5.676-5.145,9.224-5.145,9.224c-0.71-0.709-0.354-1.419-0.354-1.419
			l0.354-1.064l0.178-1.773c0,0-0.178-1.951-1.952-1.064c-1.951,0.532-1.063,0.71-3.016,0.887c-1.951,0.178-1.241-3.726-1.241-3.726
			c-0.178-1.596,0.178-1.241,0.178-2.483c0-1.241,4.08-0.532,4.08-0.532c2.66,1.774,3.016-0.354,3.016-0.354l1.951-0.709
			l0.177-0.888l-1.064-1.241l-1.596-0.71c0,0-0.71,0.532,0,1.597c0,0-0.178,1.242-0.888,0.887l-1.596-1.951
			c0,0-0.532,0.887-1.42,1.419c-0.887,0.532-2.483,0-2.483,0s-0.532-1.596,0.532-1.951h1.419c0,0-0.354-0.709-0.177-1.419
			c0.177-0.71,0.532-0.178,1.241-0.71c0.71-0.531,1.242,1.064,2.307,0.888c1.064-0.178,0.532-0.355,1.241-0.71
			c0.71-0.354,1.242,0.71,1.242,0.71l1.419,0.177c0,0-0.887-2.483-1.242-2.838c0,0,0,0-0.177,0c0,0,0,0,0.177,0
			c0.888,0.178,3.726,5.145,2.839,7.982c-0.354-0.178-0.532-0.178-0.532-0.178h-1.774L28.351,16.381z"/>
	</g>
</g>
<g id="Globe_copy_2_">
	<g>
		<path fill="#C2C2C2" d="M16.643,41.125c-8.337,0-15.078,6.741-15.078,15.078c0,8.338,6.741,15.078,15.078,15.078
			c8.338,0,15.079-6.74,15.079-15.078C31.722,47.866,25.513,41.125,16.643,41.125z M22.674,45.737c0,0,0.178-0.71,0.355-1.419
			c0.177-0.178,1.241,0.532,2.129,1.597c-0.532,2.306-1.952,2.129-1.952,2.129s-1.241,0-1.064-0.888L22.674,45.737z M19.481,47.156
			c0.177-0.354,0.532-0.354,0.887-0.532c0.354-0.177,0,0.532,0,1.064c0,0.355-0.178,0.532,0.354,1.064s-0.887,0.178-1.241-0.177
			C18.949,48.221,19.481,47.156,19.481,47.156z M13.45,60.106c0,0.354-0.71,1.063-0.888,1.596c-0.354,0.532-0.354,0.71-0.709,1.064
			c-0.354,0.355-0.532,0.71-0.532,0.71v1.064c0,0,0.354,0.709,0.532,1.064c0.178,0.354-0.354,2.129-0.354,2.129
			c-0.532-0.178-1.064-0.355-1.42-0.888c-0.177-0.532-0.532-0.532-0.354-1.064c0-0.532-0.887-1.419-1.064-1.596
			c-0.177-0.355-0.532-0.888-0.532-1.064c0-0.355-0.709-0.888-0.709-0.888S6,61.703,5.822,61.348
			c-0.178-0.354-0.354-1.419-0.532-1.951c0-0.532,0.178-1.597,0.178-1.597S6,57.445,5.645,57.091
			C5.29,56.735,5.29,55.849,5.29,55.849l-0.71-0.532c0,0-0.532-0.709-0.532-1.064c0-0.354,0-0.532,0-0.887s-0.177-0.887-0.177-1.242
			c2.483-6.208,6.74-7.627,6.74-7.627l0.355,1.419c0,0-0.71,0.177-1.064,0c-0.355-0.178-0.532-0.178-0.532-0.178l-0.532,0.71
			c0,0-0.178,0.532-0.354,0.709c0,0.355,0.177,0.71,0.177,0.71s0.887,0,0.887-0.178c0-0.354-0.177-0.354-0.177-0.354l-0.178-0.532
			c0,0,0.532-0.354,2.307-0.178c1.596,0.178,1.064,1.242,1.596,1.597c0.71,0.354-0.532,1.242-0.887,1.774s-0.709-0.71-0.709-0.71
			s0.354-0.532-0.355-0.532c-0.709-0.178-0.887,0.71-0.532,0.71c0.355,0,0.355,0.354,0.355,0.709c0,0.355,0,0.71-0.355,1.419
			c-0.354,0.71-1.596,0.71-1.596,0.71s0.177,0.354,0.354,0.71c0.177,0.354,0,1.419,0,1.596c0,0.355-0.887-0.532-0.887-1.063
			c-0.178-0.71-0.532-0.355-0.888-0.355c-0.354,0-1.064,0.355-1.241,0c-0.178-0.354-1.419,0.71-1.597,0.887
			c-0.354,0.178-0.178,0.71,0.354,0.532c0.532-0.354,1.064,0,0.888,0.532c-0.178,0.532-0.71,0.178-0.532,0.532
			c0,0.354,0.532,0.71,0.709,1.064c0.178,0.532,1.419-0.178,1.774-0.354c0.354-0.178,1.596-0.355,1.596,0.177
			c0.178,0.532,1.597,1.064,2.129,1.064c0.532,0.178,1.419,0.178,1.951,0.71C14.337,58.864,13.45,59.751,13.45,60.106z
			 M16.11,44.496c0,0.709-1.241,1.596-1.063,1.951c0.177,0.354,0.177,2.306-0.888,1.419c-0.887-1.064-1.951-2.483-1.773-3.016
			c0-0.178,0-0.354,0-0.532c1.419-1.242,4.612-1.064,4.789-0.71C16.82,43.964,16.288,43.786,16.11,44.496z M17.707,48.398
			c-0.177-0.355,0.532-0.532,0.532-0.532c0.888,0.178,0.532,0.887,0.532,1.064C18.595,49.285,17.885,48.753,17.707,48.398z
			 M28.351,56.381c0,0,0.532,0.71,1.242,0.71c-0.532,5.676-5.145,9.224-5.145,9.224c-0.71-0.709-0.354-1.419-0.354-1.419
			l0.354-1.064l0.178-1.773c0,0-0.178-1.951-1.952-1.064c-1.951,0.532-1.063,0.71-3.016,0.887c-1.951,0.178-1.241-3.726-1.241-3.726
			c-0.178-1.596,0.178-1.241,0.178-2.483c0-1.241,4.08-0.532,4.08-0.532c2.66,1.774,3.016-0.354,3.016-0.354l1.951-0.709
			l0.177-0.888l-1.064-1.241l-1.596-0.71c0,0-0.71,0.532,0,1.597c0,0-0.178,1.242-0.888,0.887l-1.596-1.951
			c0,0-0.532,0.887-1.42,1.419c-0.887,0.532-2.483,0-2.483,0s-0.532-1.596,0.532-1.951h1.419c0,0-0.354-0.709-0.177-1.419
			c0.177-0.71,0.532-0.178,1.241-0.71c0.71-0.531,1.242,1.064,2.307,0.888c1.064-0.178,0.532-0.355,1.241-0.71
			c0.71-0.354,1.242,0.71,1.242,0.71l1.419,0.177c0,0-0.887-2.483-1.242-2.838c0,0,0,0-0.177,0c0,0,0,0,0.177,0
			c0.888,0.178,3.726,5.145,2.839,7.982c-0.354-0.178-0.532-0.178-0.532-0.178h-1.774L28.351,56.381z"/>
	</g>
</g>
<g id="link-icon_copy_4_1_">
	<g>
		<path fill="#E9A146" d="M28.876,87.027L28.876,87.027c-1.596-1.596-3.548-2.483-5.676-2.483c-2.129,0-4.08,0.888-5.677,2.483
			c0,0-4.967,5.322-5.322,5.677c-1.596,1.597-2.306,3.726-2.306,6.031c0,2.307,0.887,4.435,2.306,6.031l0.71,0.71
			c0.178,0.178,0.354,0.354,0.71,0.354c0.354,0,0.531-0.177,0.709-0.354l1.242-1.419c0.354-0.355,0.354-0.888,0-1.419l-0.71-0.71
			c-1.773-1.774-1.773-4.79,0-6.563l5.322-5.677c0.887-0.887,1.951-1.419,3.192-1.419c1.242,0,2.307,0.532,3.193,1.419l0,0
			c1.773,1.774,1.773,4.79,0,6.741l-0.354,0.354c0.354,1.242,0.709,2.483,0.709,3.902c0,0.178,0,0.532,0,0.71l2.129-2.306
			C31.892,95.897,31.892,90.575,28.876,87.027z M21.071,94.123c-0.178-0.177-0.355-0.354-0.71-0.354
			c-0.177,0-0.532,0.178-0.709,0.354l-1.064,1.42c-0.355,0.354-0.355,0.887,0,1.419l0.709,0.709c1.774,1.774,1.774,4.79,0,6.563
			l-5.321,5.677c-0.887,0.887-1.951,1.419-3.193,1.419c-1.241,0-2.306-0.532-3.193-1.419l0,0c-1.773-1.773-1.773-4.789,0-6.741
			l0.355-0.354c-0.355-1.241-0.71-2.483-0.71-3.902c0-0.178,0-0.532,0-0.71l-2.129,2.307c-3.192,3.37-3.192,8.691,0,12.063l0,0
			c1.597,1.597,3.548,2.483,5.677,2.483s4.08-0.887,5.677-2.483c0,0,4.967-5.322,5.321-5.677c1.42-1.597,2.307-3.726,2.307-6.031
			S23.2,96.43,21.78,94.833L21.071,94.123z"/>
	</g>
</g>
<g id="link-icon_copy_4_2_">
	<g>
		<path fill="#C2C2C2" d="M28.876,132.027L28.876,132.027c-1.596-1.596-3.548-2.483-5.676-2.483c-2.129,0-4.08,0.888-5.677,2.483
			c0,0-4.967,5.322-5.322,5.677c-1.596,1.597-2.306,3.726-2.306,6.031c0,2.307,0.887,4.435,2.306,6.031l0.71,0.71
			c0.178,0.178,0.354,0.354,0.71,0.354c0.354,0,0.531-0.177,0.709-0.354l1.242-1.419c0.354-0.355,0.354-0.888,0-1.419l-0.71-0.71
			c-1.773-1.774-1.773-4.79,0-6.563l5.322-5.677c0.887-0.887,1.951-1.419,3.192-1.419c1.242,0,2.307,0.532,3.193,1.419l0,0
			c1.773,1.774,1.773,4.79,0,6.741l-0.354,0.354c0.354,1.242,0.709,2.483,0.709,3.902c0,0.178,0,0.532,0,0.71l2.129-2.306
			C31.892,140.897,31.892,135.575,28.876,132.027z M21.071,139.123c-0.178-0.177-0.355-0.354-0.71-0.354
			c-0.177,0-0.532,0.178-0.709,0.354l-1.064,1.42c-0.355,0.354-0.355,0.887,0,1.419l0.709,0.709c1.774,1.774,1.774,4.79,0,6.563
			l-5.321,5.677c-0.887,0.887-1.951,1.419-3.193,1.419c-1.241,0-2.306-0.532-3.193-1.419l0,0c-1.773-1.773-1.773-4.789,0-6.741
			l0.355-0.354c-0.355-1.241-0.71-2.483-0.71-3.902c0-0.178,0-0.532,0-0.71l-2.129,2.307c-3.192,3.37-3.192,8.691,0,12.063l0,0
			c1.597,1.597,3.548,2.483,5.677,2.483s4.08-0.887,5.677-2.483c0,0,4.967-5.322,5.321-5.677c1.42-1.597,2.307-3.726,2.307-6.031
			s-0.887-4.435-2.307-6.031L21.071,139.123z"/>
	</g>
</g>
<path fill="#28B195" d="M24.064,195.026v-11.708c0-3.726-3.193-6.918-6.918-6.918c-3.902,0-6.918,3.016-6.918,6.918v11.708
	c0,3.725,3.192,6.918,6.918,6.918C21.049,201.944,24.064,198.929,24.064,195.026z"/>
<path fill="#28B195" d="M29.563,195.735v-5.677c0.71-0.531,1.597-1.241,1.597-1.951c0-1.064-1.597-2.128-1.597-2.128H27.08v9.579
	c0,5.321-4.435,9.756-9.934,9.756s-9.935-4.435-9.935-9.756v-9.402H4.729c0,0-1.773,0.887-1.596,2.129
	c0,0.71,0.887,1.419,1.596,1.951v5.677c0,5.677,4.08,10.644,9.402,11.886v4.257h-2.307v2.661h2.307h5.854h2.307v-2.661h-2.129
	v-4.257C25.483,206.379,29.563,201.59,29.563,195.735z"/>
<path fill="#C2C2C2" d="M24.064,251.026v-11.708c0-3.726-3.193-6.918-6.918-6.918c-3.902,0-6.918,3.016-6.918,6.918v11.708
	c0,3.725,3.192,6.918,6.918,6.918C21.049,257.944,24.064,254.929,24.064,251.026z"/>
<path fill="#C2C2C2" d="M29.563,251.735v-5.677c0.71-0.531,1.597-1.241,1.597-1.951c0-1.064-1.597-2.128-1.597-2.128H27.08v9.579
	c0,5.321-4.435,9.756-9.934,9.756s-9.935-4.435-9.935-9.756v-9.402H4.729c0,0-1.773,0.887-1.596,2.129
	c0,0.71,0.887,1.419,1.596,1.951v5.677c0,5.677,4.08,10.644,9.402,11.886v4.257h-2.307v2.661h2.307h5.854h2.307v-2.661h-2.129
	v-4.257C25.483,262.379,29.563,257.59,29.563,251.735z"/>
<g>
	<g>
		<path fill="#D0BE26" d="M5.978,323.644l4.909-0.446l-7.141-6.694l-0.744,4.165l-0.149-0.149l-0.446,3.422H1.813v2.38h19.042v-2.38
			H3.895L5.978,323.644z M11.036,322.751l2.232-1.339l-7.29-7.29l0,0l0,0l-1.785,2.232l0,0l0,0L11.036,322.751z M32.16,302.073
			l-7.141-7.141L6.127,313.975l7.141,7.141L32.16,302.073z"/>
	</g>
</g>
<g>
	<g>
		<path fill="#C2C2C2" d="M5.978,377.644l4.909-0.446l-7.141-6.694l-0.744,4.165l-0.149-0.149l-0.446,3.422H1.813v2.38h19.042v-2.38
			H3.895L5.978,377.644z M11.036,376.751l2.232-1.339l-7.29-7.29l0,0l0,0l-1.785,2.232l0,0l0,0L11.036,376.751z M32.16,356.073
			l-7.141-7.141L6.127,367.975l7.141,7.141L32.16,356.073z"/>
	</g>
</g>
<g>
	<g>
		<path fill="#363C49" d="M8.276,435.541h1.597v-1.597H8.276V435.541z M24.597,407.336H1.713v40.268H31.16v-33.527L24.597,407.336z
			 M28.677,444.942H4.374v-34.946h17.384v5.322h6.741v29.624H28.677z M8.276,429.154h1.597v-1.596H8.276V429.154z M8.276,423.479
			h1.597v-1.597H8.276V423.479z M11.114,428.8h13.482v-1.419H11.114V428.8z M11.114,423.479h13.482v-1.419H11.114V423.479z
			 M11.114,435.541h13.482v-1.419H11.114V435.541z"/>
	</g>
</g>
<g>
	<g>
		<path fill="#C2C2C2" d="M8.276,501.541h1.597v-1.597H8.276V501.541z M24.597,473.336H1.713v40.268H31.16v-33.527L24.597,473.336z
			 M28.677,510.942H4.374v-34.946h17.384v5.322h6.741v29.624H28.677z M8.276,495.154h1.597v-1.596H8.276V495.154z M8.276,489.479
			h1.597v-1.597H8.276V489.479z M11.114,494.8h13.482v-1.419H11.114V494.8z M11.114,489.479h13.482v-1.419H11.114V489.479z
			 M11.114,501.541h13.482v-1.419H11.114V501.541z"/>
	</g>
</g>
</svg>
