<?xml version="1.0" encoding="utf-8"?>
<!-- Generator: Adobe Illustrator 16.0.0, SVG Export Plug-In . SVG Version: 6.00 Build 0)  -->
<!DOCTYPE svg PUBLIC "-//W3C//DTD SVG 1.1//EN" "http://www.w3.org/Graphics/SVG/1.1/DTD/svg11.dtd">
<svg version="1.1" id="Layer_1" xmlns="http://www.w3.org/2000/svg" xmlns:xlink="http://www.w3.org/1999/xlink" x="0px" y="0px"
	 width="32.053px" height="138.083px" viewBox="0 0 32.053 138.083" enable-background="new 0 0 32.053 138.083"
	 xml:space="preserve">
<g id="Excel_File_Extension._Attribute_as_Icomoon_from_Flaticon.com_copy_3_6_">
	<g>
		<path fill="#2DA0DA" d="M29.979,8.451l-5.145-5.322C23.771,2.064,21.465,1,20.045,1H2.838C1.242,1,0,2.242,0,4.016v31.753
			c0,1.596,1.242,3.016,2.838,3.016h26.254c1.597,0,2.839-1.242,2.839-3.016V13.417C31.931,11.821,31.044,9.515,29.979,8.451z
			 M22.884,4.548c0.177,0.178,0.354,0.178,0.354,0.355l5.146,5.322c0.178,0.177,0.178,0.177,0.354,0.354h-5.854L22.884,4.548
			L22.884,4.548z M29.624,35.769c0,0.354-0.178,0.532-0.532,0.532H2.838c-0.354,0-0.531-0.354-0.531-0.532V4.016
			c0-0.354,0.177-0.532,0.531-0.532h17.207c0.178,0,0.354,0,0.532,0v9.401h9.047c0,0.178,0,0.354,0,0.532V35.769z M24.303,15.191
			h-4.79l-3.37,5.145l-3.37-5.145H7.806l5.854,8.87l-6.563,9.935h9.401v-3.371H14.37l1.772-2.661l3.902,6.032h4.968l-6.563-9.935
			L24.303,15.191z"/>
	</g>
</g>
<g id="Excel_File_Extension._Attribute_as_Icomoon_from_Flaticon.com_copy_3_1_">
	<g>
		<path fill="#626363" d="M29.979,56.451l-5.145-5.322C23.771,50.064,21.465,49,20.045,49H2.838C1.242,49,0,50.242,0,52.016v31.753
			c0,1.596,1.242,3.017,2.838,3.017h26.254c1.597,0,2.839-1.242,2.839-3.017V61.417C31.931,59.821,31.044,57.515,29.979,56.451z
			 M22.884,52.548c0.177,0.178,0.354,0.178,0.354,0.355l5.146,5.322c0.178,0.177,0.178,0.177,0.354,0.354h-5.854L22.884,52.548
			L22.884,52.548z M29.624,83.769c0,0.354-0.178,0.532-0.532,0.532H2.838c-0.354,0-0.531-0.354-0.531-0.532V52.016
			c0-0.354,0.177-0.532,0.531-0.532h17.207c0.178,0,0.354,0,0.532,0v9.401h9.047c0,0.178,0,0.354,0,0.532V83.769z M24.303,63.192
			h-4.79l-3.37,5.145l-3.37-5.145H7.806l5.854,8.869l-6.563,9.936h9.401v-3.371H14.37l1.772-2.662l3.902,6.033h4.968l-6.563-9.936
			L24.303,63.192z"/>
	</g>
</g>
<g id="Excel_File_Extension._Attribute_as_Icomoon_from_Flaticon.com_copy_3_2_">
	<g>
		<path fill="#949494" d="M29.979,107.75l-5.145-5.321c-1.064-1.064-3.37-2.13-4.79-2.13H2.838c-1.596,0-2.838,1.242-2.838,3.017
			v31.753c0,1.596,1.242,3.016,2.838,3.016h26.254c1.597,0,2.839-1.241,2.839-3.016v-22.352
			C31.931,111.12,31.044,108.814,29.979,107.75z M22.884,103.846c0.177,0.178,0.354,0.178,0.354,0.355l5.146,5.321
			c0.178,0.177,0.178,0.177,0.354,0.354h-5.854L22.884,103.846L22.884,103.846z M29.624,135.068c0,0.354-0.178,0.532-0.532,0.532
			H2.838c-0.354,0-0.531-0.354-0.531-0.532v-31.753c0-0.355,0.177-0.531,0.531-0.531h17.207c0.178,0,0.354,0,0.532,0v9.4h9.047
			c0,0.178,0,0.355,0,0.531V135.068z M24.303,114.491h-4.79l-3.37,5.146l-3.37-5.146H7.806l5.854,8.869l-6.563,9.936h9.401v-3.371
			H14.37l1.772-2.661l3.902,6.032h4.968l-6.563-9.936L24.303,114.491z"/>
	</g>
</g>
</svg>
