<?xml version="1.0" encoding="utf-8"?>
<!-- Generator: Adobe Illustrator 16.0.0, SVG Export Plug-In . SVG Version: 6.00 Build 0)  -->
<!DOCTYPE svg PUBLIC "-//W3C//DTD SVG 1.1//EN" "http://www.w3.org/Graphics/SVG/1.1/DTD/svg11.dtd">
<svg version="1.1" id="Layer_1" xmlns="http://www.w3.org/2000/svg" xmlns:xlink="http://www.w3.org/1999/xlink" x="0px" y="0px"
	 width="37.074px" height="251.626px" viewBox="0 0 37.074 251.626" enable-background="new 0 0 37.074 251.626"
	 xml:space="preserve">
<path fill="#2FA0DA" d="M22.158,66.056v8.547L35.704,61.54L22.158,48.962v7.579C5.709,56.38,2,75.409,2,75.409
	C6.677,66.862,13.288,66.056,22.158,66.056z"/>
<g>
	<g>
		<path fill="#2FA0DA" d="M7.096,106.308l7.272,6.741l15.788-14.901l-7.273-6.74L7.096,106.308z M3.548,116.419l10.111-2.661
			l-7.273-6.74L3.548,116.419z M33.172,92.826l-4.435-4.258c-0.71-0.709-1.951-0.709-2.839,0l-2.128,1.951l7.272,6.741l2.129-1.951
			C33.882,94.6,33.882,93.535,33.172,92.826z"/>
	</g>
</g>
<path fill="#2FA0DA" d="M15.368,40.512V25.787L2.773,8.581h30.157L20.335,25.787v12.24L15.368,40.512z"/>
<path fill="#C2C2C2" d="M22.158,193.948v8.547l13.546-13.063l-13.546-12.578v7.579C5.709,184.272,2,203.301,2,203.301
	C6.677,194.754,13.288,193.948,22.158,193.948z"/>
<g>
	<g>
		<path fill="#C2C2C2" d="M7.096,234.2l7.272,6.741l15.788-14.901l-7.273-6.74L7.096,234.2z M3.548,244.311l10.111-2.661
			l-7.273-6.74L3.548,244.311z M33.172,220.718l-4.435-4.258c-0.71-0.709-1.951-0.709-2.839,0l-2.128,1.951l7.272,6.741l2.129-1.951
			C33.882,222.492,33.882,221.427,33.172,220.718z"/>
	</g>
</g>
<path fill="#C2C2C2" d="M15.368,168.404v-14.725L2.773,136.473h30.157l-12.596,17.206v12.24L15.368,168.404z"/>
</svg>
