<?xml version="1.0" encoding="utf-8"?>
<!-- Generator: Adobe Illustrator 16.0.0, SVG Export Plug-In . SVG Version: 6.00 Build 0)  -->
<!DOCTYPE svg PUBLIC "-//W3C//DTD SVG 1.1//EN" "http://www.w3.org/Graphics/SVG/1.1/DTD/svg11.dtd">
<svg version="1.1" id="Layer_1" xmlns="http://www.w3.org/2000/svg" xmlns:xlink="http://www.w3.org/1999/xlink" x="0px" y="0px"
	 width="22.884px" height="24.48px" viewBox="0 0 22.884 24.48" enable-background="new 0 0 22.884 24.48" xml:space="preserve">
<path fill="#010202" d="M0,0h22.884v19.69H0V0z M1.597,1.774v16.32h19.69V1.774H1.597z M3.903,17.029l3.37-3.725l1.773,1.773
	l6.919-6.918l2.66,2.661L20.4,8.87v8.16H3.903z M7.096,3.903c0,1.951-1.597,3.37-3.37,3.37c-0.354,0-0.71,0-0.887-0.177V2.661h4.08
	C6.919,3.016,7.096,3.548,7.096,3.903z M6.031,21.287c0.888,0,1.597,0.709,1.597,1.596c0,0.888-0.709,1.598-1.597,1.598
	c-0.887,0-1.596-0.71-1.596-1.598C4.436,21.996,5.145,21.287,6.031,21.287z M16.853,21.287c0.887,0,1.597,0.709,1.597,1.596
	c0,0.888-0.71,1.598-1.597,1.598s-1.597-0.71-1.597-1.598C15.256,21.996,15.966,21.287,16.853,21.287z M11.531,21.287
	c0.887,0,1.596,0.709,1.596,1.596c0,0.888-0.709,1.598-1.596,1.598c-0.888,0-1.597-0.71-1.597-1.598
	C9.757,21.996,10.644,21.287,11.531,21.287z"/>
</svg>
