<?xml version="1.0" encoding="utf-8"?>
<!-- Generator: Adobe Illustrator 16.0.0, SVG Export Plug-In . SVG Version: 6.00 Build 0)  -->
<!DOCTYPE svg PUBLIC "-//W3C//DTD SVG 1.1//EN" "http://www.w3.org/Graphics/SVG/1.1/DTD/svg11.dtd">
<svg version="1.1" id="Layer_1" xmlns="http://www.w3.org/2000/svg" xmlns:xlink="http://www.w3.org/1999/xlink" x="0px" y="0px"
	 width="33.996px" height="82.875px" viewBox="0 0 33.996 82.875" enable-background="new 0 0 33.996 82.875" xml:space="preserve">
<g id="link_icon_2_">
	<g>
		<path fill="#626363" d="M31.023,3.722L31.023,3.722c-1.773-1.952-4.258-2.838-6.74-2.838c-2.484,0-4.967,1.064-6.742,2.838
			c0,0-6.031,6.208-6.386,6.563c-1.773,1.951-2.838,4.435-2.838,7.096c0,2.661,1.064,5.144,2.838,7.095l0.71,0.887
			c0.177,0.177,0.532,0.354,0.709,0.354c0.354,0,0.532-0.177,0.71-0.354l1.419-1.597c0.354-0.354,0.354-1.064,0-1.597l-0.71-0.887
			c-1.951-2.129-2.128-5.677,0-7.805l6.387-6.741c1.064-1.064,2.305-1.597,3.725-1.597s2.66,0.532,3.725,1.597l0,0
			c2.129,2.128,2.129,5.676,0,7.805l-0.354,0.354c0.531,1.419,0.887,3.016,0.887,4.612c0,0.355,0,0.532,0,0.887l2.482-2.661
			C34.748,14.01,34.748,7.624,31.023,3.722z M21.977,11.881c-0.178-0.177-0.531-0.354-0.709-0.354c-0.355,0-0.533,0.177-0.711,0.354
			l-1.418,1.597c-0.355,0.355-0.355,1.064,0,1.597l0.709,0.887c1.951,2.129,2.129,5.677,0,7.805l-6.386,6.741
			c-1.063,1.064-2.306,1.596-3.725,1.596s-2.661-0.532-3.726-1.596l0,0c-2.129-2.129-2.129-5.677,0-7.806l0.354-0.354
			c-0.531-1.419-0.887-3.016-0.887-4.612c0-0.354,0-0.532,0-0.887l-2.483,2.661c-3.725,3.903-3.725,10.289,0,14.191l0,0
			c1.774,1.951,4.258,2.838,6.741,2.838s4.967-1.064,6.74-2.838c0,0,6.033-6.208,6.386-6.563c1.773-1.951,2.838-4.435,2.838-7.096
			s-1.064-5.145-2.838-7.096L21.977,11.881z"/>
	</g>
</g>
<g id="link_icon_1_">
	<g>
		<path fill="#949494" d="M31.023,48.722L31.023,48.722c-1.773-1.952-4.258-2.838-6.74-2.838c-2.484,0-4.967,1.064-6.742,2.838
			c0,0-6.031,6.208-6.386,6.563c-1.773,1.951-2.838,4.435-2.838,7.096c0,2.661,1.064,5.144,2.838,7.095l0.71,0.887
			c0.177,0.177,0.532,0.354,0.709,0.354c0.354,0,0.532-0.177,0.71-0.354l1.419-1.597c0.354-0.354,0.354-1.064,0-1.597l-0.71-0.887
			c-1.951-2.129-2.128-5.677,0-7.805l6.387-6.741c1.064-1.064,2.305-1.597,3.725-1.597s2.66,0.532,3.725,1.597l0,0
			c2.129,2.128,2.129,5.676,0,7.805l-0.354,0.354c0.531,1.419,0.887,3.016,0.887,4.612c0,0.355,0,0.532,0,0.887l2.482-2.661
			C34.748,59.01,34.748,52.624,31.023,48.722z M21.977,56.881c-0.178-0.177-0.531-0.354-0.709-0.354
			c-0.355,0-0.533,0.177-0.711,0.354l-1.418,1.597c-0.355,0.355-0.355,1.064,0,1.597l0.709,0.887c1.951,2.129,2.129,5.677,0,7.805
			l-6.386,6.742c-1.063,1.063-2.306,1.596-3.725,1.596s-2.661-0.532-3.726-1.596l0,0c-2.129-2.129-2.129-5.677,0-7.806l0.354-0.354
			c-0.531-1.419-0.887-3.016-0.887-4.612c0-0.354,0-0.532,0-0.887l-2.483,2.661c-3.725,3.903-3.725,10.288,0,14.191l0,0
			c1.774,1.951,4.258,2.839,6.741,2.839s4.967-1.064,6.74-2.839c0,0,6.033-6.208,6.386-6.563c1.773-1.951,2.838-4.435,2.838-7.096
			s-1.064-5.145-2.838-7.096L21.977,56.881z"/>
	</g>
</g>
</svg>
