<?xml version="1.0" encoding="utf-8"?>
<!-- Generator: Adobe Illustrator 16.0.0, SVG Export Plug-In . SVG Version: 6.00 Build 0)  -->
<!DOCTYPE svg PUBLIC "-//W3C//DTD SVG 1.1//EN" "http://www.w3.org/Graphics/SVG/1.1/DTD/svg11.dtd">
<svg version="1.1" id="Layer_1" xmlns="http://www.w3.org/2000/svg" xmlns:xlink="http://www.w3.org/1999/xlink" x="0px" y="0px"
	 width="43.119px" height="106.119px" viewBox="0 0 43.119 106.119" enable-background="new 0 0 43.119 106.119"
	 xml:space="preserve">
<g id="Close_x2C__Cross_Inside_A_Circle_2_">
	<g>
		<path fill="#E83B60" d="M36.615,7.102c-8.16-8.16-21.287-8.338-29.624-0.355c-8.516,7.982-8.87,21.465-0.888,30.157
			c0.178,0.177,0.355,0.354,0.355,0.532c8.337,8.337,21.818,8.337,30.156,0C44.952,28.92,44.952,15.438,36.615,7.102z
			 M32.003,28.388l-4.258,4.258l-6.386-6.386l-6.386,6.386l-4.258-4.258l6.387-6.386l-6.387-6.386l4.258-4.258l6.386,6.386
			l6.386-6.386l4.258,4.258l-6.386,6.386L32.003,28.388z"/>
	</g>
</g>
<g id="Check_Mark_White_On_Black_Circular_Background_2_">
	<g>
		<path fill="#70B544" d="M21.537,62.788c-11.708,0-21.287,9.579-21.287,21.287s9.579,21.287,21.287,21.287
			s21.287-9.579,21.287-21.287C42.824,72.189,33.245,62.788,21.537,62.788z M18.521,94.009L8.41,83.897l4.08-4.08l6.031,6.031
			l12.063-12.063l4.08,4.08L18.521,94.009z"/>
	</g>
</g>
</svg>
