<?xml version="1.0" encoding="utf-8"?>
<!-- Generator: Adobe Illustrator 16.0.0, SVG Export Plug-In . SVG Version: 6.00 Build 0)  -->
<!DOCTYPE svg PUBLIC "-//W3C//DTD SVG 1.1//EN" "http://www.w3.org/Graphics/SVG/1.1/DTD/svg11.dtd">
<svg version="1.1" id="Layer_1" xmlns="http://www.w3.org/2000/svg" xmlns:xlink="http://www.w3.org/1999/xlink" x="0px" y="0px"
	 width="32.053px" height="138.083px" viewBox="0 0 32.053 138.083" enable-background="new 0 0 32.053 138.083"
	 xml:space="preserve">
<g id="Word_File_Symbol._Attribute_as_Icomoon_from_Flaticon.com_copy_2_6_">
	<g>
		<path fill="#2DA0DA" d="M30.04,8.627l-5.146-5.499C23.831,1.887,21.525,1,20.105,1H2.898C1.303,1,0.061,2.419,0.061,4.015v33.35
			c0,1.773,1.242,3.016,2.838,3.016h26.254c1.598,0,2.84-1.42,2.84-3.016V13.949C31.991,12.175,31.104,9.869,30.04,8.627z
			 M22.944,4.37c0.178,0.177,0.354,0.177,0.354,0.355l5.145,5.499c0.179,0.177,0.179,0.354,0.354,0.354h-5.854L22.944,4.37
			L22.944,4.37z M29.685,37.365c0,0.354-0.177,0.531-0.532,0.531H2.898c-0.354,0-0.53-0.354-0.53-0.531V4.015
			c0-0.354,0.177-0.532,0.53-0.532h17.207c0.179,0,0.355,0,0.532,0v9.757h9.047c0,0.177,0,0.354,0,0.532L29.685,37.365
			L29.685,37.365z M20.638,19.271h1.597l-1.772,8.692l-2.308-12.24H14.43l-2.839,12.24l-2.129-12.24H5.56l4.08,19.868h3.902
			l2.661-11.708l2.482,11.708h3.548l4.612-19.868h-6.031v3.548H20.638L20.638,19.271z"/>
	</g>
</g>
<g id="Word_File_Symbol._Attribute_as_Icomoon_from_Flaticon.com_copy_2_1_">
	<g>
		<path fill="#626363" d="M30.04,56.798l-5.146-5.499c-1.063-1.242-3.37-2.129-4.79-2.129H2.898c-1.596,0-2.838,1.419-2.838,3.016
			v33.352c0,1.772,1.242,3.016,2.838,3.016h26.254c1.598,0,2.84-1.42,2.84-3.016V62.12C31.991,60.346,31.104,58.04,30.04,56.798z
			 M22.944,52.541c0.178,0.177,0.354,0.177,0.354,0.355l5.145,5.499c0.179,0.177,0.179,0.354,0.354,0.354h-5.854L22.944,52.541
			L22.944,52.541z M29.685,85.538c0,0.354-0.177,0.53-0.532,0.53H2.898c-0.354,0-0.53-0.354-0.53-0.53V52.186
			c0-0.354,0.177-0.532,0.53-0.532h17.207c0.179,0,0.355,0,0.532,0v9.757h9.047c0,0.177,0,0.354,0,0.532L29.685,85.538
			L29.685,85.538z M20.638,67.442h1.597l-1.772,8.692l-2.308-12.24H14.43l-2.839,12.24l-2.129-12.24H5.56l4.08,19.867h3.902
			l2.661-11.707l2.482,11.707h3.548l4.612-19.867h-6.031v3.548H20.638L20.638,67.442z"/>
	</g>
</g>
<g id="Word_File_Symbol._Attribute_as_Icomoon_from_Flaticon.com_copy_2_2_">
	<g>
		<path fill="#949494" d="M30.04,106.797l-5.146-5.498c-1.063-1.241-3.37-2.129-4.79-2.129H2.898c-1.596,0-2.838,1.418-2.838,3.016
			v33.352c0,1.772,1.242,3.016,2.838,3.016h26.254c1.598,0,2.84-1.42,2.84-3.016v-23.416
			C31.991,110.346,31.104,108.042,30.04,106.797z M22.944,102.542c0.178,0.178,0.354,0.178,0.354,0.354l5.145,5.499
			c0.179,0.177,0.179,0.354,0.354,0.354h-5.854L22.944,102.542L22.944,102.542z M29.685,135.538c0,0.354-0.177,0.53-0.532,0.53
			H2.898c-0.354,0-0.53-0.354-0.53-0.53v-33.352c0-0.354,0.177-0.532,0.53-0.532h17.207c0.179,0,0.355,0,0.532,0v9.757h9.047
			c0,0.178,0,0.354,0,0.532L29.685,135.538L29.685,135.538z M20.638,117.442h1.597l-1.772,8.692l-2.308-12.24H14.43l-2.839,12.24
			l-2.129-12.24H5.56l4.08,19.867h3.902l2.661-11.707l2.482,11.707h3.548l4.612-19.867h-6.031v3.548H20.638L20.638,117.442z"/>
	</g>
</g>
</svg>
