<?xml version="1.0" encoding="utf-8"?>
<!-- Generator: Adobe Illustrator 16.0.0, SVG Export Plug-In . SVG Version: 6.00 Build 0)  -->
<!DOCTYPE svg PUBLIC "-//W3C//DTD SVG 1.1//EN" "http://www.w3.org/Graphics/SVG/1.1/DTD/svg11.dtd">
<svg version="1.1" id="Layer_1" xmlns="http://www.w3.org/2000/svg" xmlns:xlink="http://www.w3.org/1999/xlink" x="0px" y="0px"
	 width="37.074px" height="398.667px" viewBox="0 0 37.074 398.667" enable-background="new 0 0 37.074 398.667"
	 xml:space="preserve">
<g id="Shape_5_2_">
	<g>
		<path fill="#2EA0DB" d="M26.295,14.799h-5.102V4.593H15.19v10.206h-4.952l8.104,10.955L26.295,14.799z M34.85,28.605H1.833v3.001
			H34.85V28.605z"/>
	</g>
</g>
<g id="Shape_3_2_">
	<g>
		<path fill="#2EA0DB" d="M28.099,64.914H21.89v-5.145c-2.483,0-4.967,0-7.45,0v5.145H8.23l9.934,13.659L28.099,64.914z
			 M21.89,48.593h-7.45v7.628c2.483,0,4.967,0,7.45,0V48.593z M33.42,80.347H3.264v3.725H33.42V80.347z"/>
	</g>
</g>
<g id="Shape_4_2_">
	<g>
		<path fill="#2EA0DB" d="M11.841,129.35h13.305v-1.242c-2.129-5.145-5.854-8.692-5.854-8.692h-1.597c0,0-4.08,4.08-5.854,8.692
			V129.35z M29.936,104.16h1.951v-3.726H5.277v3.726h1.952v1.951c0,3.016,5.499,11.353,5.676,11.885
			c-0.177,0.532-5.676,8.87-5.676,11.885v1.951H5.277v4.08h26.609v-3.725h-1.951v-1.952c0-3.016-5.5-11.353-5.854-11.885
			c0.355-0.71,5.854-8.87,5.854-11.886V104.16z M27.983,106.111c0,2.129-5.854,10.821-5.854,11.885s5.854,9.756,5.854,11.885v1.951
			H9.003v-1.951c0-2.129,5.854-10.821,5.854-11.885s-5.854-9.756-5.854-11.885v-1.951h18.98V106.111z"/>
	</g>
</g>
<g id="Shape_1_6_">
	<g>
		<path fill="#2EA0DB" d="M29.49,169.981c0-0.177-0.178-0.355-0.178-0.355c-1.064,1.064-5.499,1.242-10.644,1.242
			s-9.579-0.177-10.644-1.242c-0.178,0.178-0.178,0.355-0.178,0.355l0,0l0,0l0,0l0,0l0.888,17.384l0,0
			c0,1.419,1.596,3.371,10.111,3.371c8.515,0,9.934-2.129,10.111-3.371l0,0L29.49,169.981L29.49,169.981L29.49,169.981
			L29.49,169.981L29.49,169.981z M23.813,160.756v-4.08c0-0.71-0.532-1.419-1.419-1.419h-8.16c-0.71,0-1.419,0.532-1.419,1.419v4.08
			c-4.08,0.532-6.741,1.419-6.741,2.484v1.951c0,0.354,0.354,0.887,1.242,1.242c1.951,0.887,6.208,1.596,11.175,1.596
			c4.968,0,9.225-0.709,11.176-1.596c0.71-0.355,1.242-0.709,1.242-1.242v-1.951C31.086,162.176,28.07,161.289,23.813,160.756z
			 M21.507,160.579c-0.887,0-1.951,0-3.016,0s-2.128,0-3.016,0h-0.354v-1.597c0-0.709,0.178-1.419,0.178-1.419h5.854
			c0.178,0,0.178,0.532,0.178,1.419v1.597H21.507z"/>
	</g>
</g>
<g id="Shape_5_1_">
	<g>
		<path fill="#8D8F8E" d="M26.295,217.799h-5.102v-10.206H15.19v10.206h-4.952l8.104,10.955L26.295,217.799z M34.85,231.605H1.833
			v3.001H34.85V231.605z"/>
	</g>
</g>
<g id="Shape_3_1_">
	<g>
		<path fill="#8D8F8E" d="M28.099,267.914H21.89v-5.145c-2.483,0-4.967,0-7.45,0v5.145H8.23l9.934,13.659L28.099,267.914z
			 M21.89,251.593h-7.45v7.628c2.483,0,4.967,0,7.45,0V251.593z M33.42,283.347H3.264v3.725H33.42V283.347z"/>
	</g>
</g>
<g id="Shape_4_1_">
	<g>
		<path fill="#8D8F8E" d="M11.841,332.35h13.305v-1.242c-2.129-5.145-5.854-8.692-5.854-8.692h-1.597c0,0-4.08,4.08-5.854,8.692
			V332.35z M29.936,307.16h1.951v-3.726H5.277v3.726h1.952v1.951c0,3.016,5.499,11.353,5.676,11.885
			c-0.177,0.532-5.676,8.87-5.676,11.885v1.951H5.277v4.08h26.609v-3.725h-1.951v-1.952c0-3.016-5.5-11.353-5.854-11.885
			c0.355-0.71,5.854-8.87,5.854-11.886V307.16z M27.983,309.111c0,2.129-5.854,10.821-5.854,11.885s5.854,9.756,5.854,11.885v1.951
			H9.003v-1.951c0-2.129,5.854-10.821,5.854-11.885s-5.854-9.756-5.854-11.885v-1.951h18.98V309.111z"/>
	</g>
</g>
<g id="Shape_1_1_">
	<g>
		<path fill="#8D8F8E" d="M29.49,372.981c0-0.177-0.178-0.355-0.178-0.355c-1.064,1.064-5.499,1.242-10.644,1.242
			s-9.579-0.177-10.644-1.242c-0.178,0.178-0.178,0.355-0.178,0.355l0,0l0,0l0,0l0,0l0.888,17.384l0,0
			c0,1.419,1.596,3.371,10.111,3.371c8.515,0,9.934-2.129,10.111-3.371l0,0L29.49,372.981L29.49,372.981L29.49,372.981
			L29.49,372.981L29.49,372.981z M23.813,363.756v-4.08c0-0.71-0.532-1.419-1.419-1.419h-8.16c-0.71,0-1.419,0.532-1.419,1.419v4.08
			c-4.08,0.532-6.741,1.419-6.741,2.484v1.951c0,0.354,0.354,0.887,1.242,1.242c1.951,0.887,6.208,1.596,11.175,1.596
			c4.968,0,9.225-0.709,11.176-1.596c0.71-0.355,1.242-0.709,1.242-1.242v-1.951C31.086,365.176,28.07,364.289,23.813,363.756z
			 M21.507,363.579c-0.887,0-1.951,0-3.016,0s-2.128,0-3.016,0h-0.354v-1.597c0-0.709,0.178-1.419,0.178-1.419h5.854
			c0.178,0,0.178,0.532,0.178,1.419v1.597H21.507z"/>
	</g>
</g>
</svg>
