<?xml version="1.0" encoding="utf-8"?>
<!-- Generator: Adobe Illustrator 16.0.0, SVG Export Plug-In . SVG Version: 6.00 Build 0)  -->
<!DOCTYPE svg PUBLIC "-//W3C//DTD SVG 1.1//EN" "http://www.w3.org/Graphics/SVG/1.1/DTD/svg11.dtd">
<svg version="1.1" id="Layer_1" xmlns="http://www.w3.org/2000/svg" xmlns:xlink="http://www.w3.org/1999/xlink" x="0px" y="0px"
	 width="92.667px" height="490.664px" viewBox="0 0 92.667 490.664" enable-background="new 0 0 92.667 490.664"
	 xml:space="preserve">
<circle fill="#FFFFFF" stroke="#EAEAEA" stroke-miterlimit="10" cx="44.09" cy="142.508" r="38.316"/>
<g>
	<g>
		<defs>
			<circle id="SVGID_1_" cx="44.09" cy="142.508" r="38.316"/>
		</defs>
		<clipPath id="SVGID_2_">
			<use xlink:href="#SVGID_1_"  overflow="visible"/>
		</clipPath>
		<g clip-path="url(#SVGID_2_)">
			<g>
				<path fill="#319FD9" d="M63.071,166.101c-2.307-0.887-5.145-1.242-6.919-2.483c-1.596-1.064-3.548-3.193-3.725-5.145
					c-0.354-3.016,1.773-4.08,3.193-6.918c0.354-0.71-0.178-1.774,0-2.483c0.177-0.532,0.887-0.71,1.241-1.242
					c0.71-1.241,1.774-2.483,1.951-3.192c0.354-1.774-0.709-7.628-0.709-9.58c0-1.063,0.709-1.951,0.709-2.483
					c-0.177-0.532-1.064-0.532-1.241-1.241c-0.178-0.71,0.354-1.774,0-2.483c-1.064-2.483-4.08-3.548-5.145-6.387
					c-3.726,1.42-5.854-3.548-8.87-1.951c-1.241,0.71-1.063-1.064-3.192-0.709c-0.71,0.177,0,0.887-0.71,1.241
					c-0.532,0.355-2.306,0.178-1.951,0c-0.887,0.532-2.483,2.661-3.726,3.726c-1.773,1.597-3.37,2.306-3.725,3.193
					c0,0.177,0.177,1.241,0,1.951c-0.178,0.177-2.129,2.483-1.951,3.192c0,0.178,1.241,0.532,1.241,0.71
					c1.242,5.854-2.129,12.417,3.193,15.256c-0.532,4.257,2.838,5.321,2.483,9.579c0,0.887-0.532,1.064-1.242,2.483
					c-1.064,2.661,0,1.773-3.725,3.192c-3.903,1.42-9.402,3.371-13.305,5.677c-0.887,0.532-3.726,1.951-4.435,3.193
					c-0.71,1.241-0.354,3.902-0.71,5.677c-0.177,1.596-1.064,3.548-0.709,5.676h65.812
					C77.795,171.422,72.473,169.471,63.071,166.101z"/>
			</g>
		</g>
	</g>
</g>
<circle fill="#010202" stroke="#FFFFFF" stroke-width="2" stroke-miterlimit="10" cx="47.411" cy="42.656" r="37.634"/>
<g id="Rounded_Rectangle_1_2_">
	<g>
		<path fill="#FFFFFF" d="M58.85,26.413H33.684c-1.943,0-3.431,1.487-3.431,3.432V55.01c0,1.945,1.487,3.432,3.431,3.432H58.85
			c1.944,0,3.432-1.487,3.432-3.432V29.845C62.281,27.9,60.68,26.413,58.85,26.413z"/>
	</g>
</g>
<g id="Shape_1_4_">
	<g>
		<path fill="#010202" d="M47.411,50.777l4.575,4.232V30.988l-4.575,4.232V50.777z M41.691,55.01l4.576-4.232V35.221l-4.576-4.232
			V55.01z M53.131,51.579l3.202,0.572V33.505l-3.202,0.916V51.579z M37.345,52.15l3.203-0.572V34.42l-3.203-0.916V52.15z
			 M57.706,35.564v14.87l1.144-0.229V35.792L57.706,35.564z M34.828,50.206l1.144,0.229v-14.87l-1.144,0.229V50.206z"/>
	</g>
</g>
<circle fill="none" stroke="#32A0DA" stroke-width="2" stroke-miterlimit="10" cx="47.688" cy="244.865" r="36.075"/>
<g id="Ellipse_1_copy_2_" opacity="0.4">
	<g>
		<circle fill="#D8D9D9" cx="46.902" cy="345.035" r="36.246"/>
	</g>
</g>
<g id="Ellipse_1_copy_5_2_" opacity="0.4">
	<g>
		<circle fill="#FFFFFF" cx="48.767" cy="445.854" r="36.993"/>
	</g>
</g>
</svg>
