<?xml version="1.0" encoding="utf-8"?>
<!-- Generator: Adobe Illustrator 16.0.0, SVG Export Plug-In . SVG Version: 6.00 Build 0)  -->
<!DOCTYPE svg PUBLIC "-//W3C//DTD SVG 1.1//EN" "http://www.w3.org/Graphics/SVG/1.1/DTD/svg11.dtd">
<svg version="1.1" id="Layer_1" xmlns="http://www.w3.org/2000/svg" xmlns:xlink="http://www.w3.org/1999/xlink" x="0px" y="0px"
	 width="109.244px" height="602.83px" viewBox="0 0 109.244 602.83" enable-background="new 0 0 109.244 602.83"
	 xml:space="preserve">
<g id="Move_To_The_Next_Page_Symbol_by_Freepik_copy_2_2_">
	<g>
		<polygon fill="#1D1D1D" points="36.225,15.177 34.628,16.95 64.962,47.107 34.628,77.264 36.225,79.037 68.332,47.107 		"/>
	</g>
</g>
<g id="Move_To_The_Next_Page_Symbol_by_Freepik_copy_2_1_">
	<g>
		<polygon fill="#1D1D1D" points="66.735,173.037 68.332,171.264 37.998,141.106 68.332,110.95 66.735,109.177 34.628,141.106 		"/>
	</g>
</g>
<path fill="#ADADAD" d="M44.838,217.396c0.178,0,0.178-0.177,0.354-0.177c0.178,0,0.178,0,0.354,0.177l6.919,6.741
	c0.177,0.178,0.354,0.355,0.354,0.71c0,0.354-0.178,0.532-0.354,0.709l-6.919,6.74c-0.177,0.178-0.354,0.178-0.531,0
	c-0.178-0.177-0.355-0.354-0.355-0.709v-13.482C44.483,217.751,44.66,217.574,44.838,217.396L44.838,217.396z"/>
<path fill="#ADADAD" d="M52.569,292.253c-0.178,0-0.178,0.177-0.354,0.177c-0.178,0-0.178,0-0.354-0.177l-6.919-6.741
	c-0.177-0.178-0.354-0.355-0.354-0.71c0-0.354,0.178-0.532,0.354-0.709l6.919-6.74c0.177-0.178,0.354-0.178,0.531,0
	c0.178,0.177,0.355,0.354,0.355,0.709v13.482C52.924,291.898,52.747,292.076,52.569,292.253L52.569,292.253z"/>
<g id="Play_copy_2_">
	<g>
		<polygon fill="#010202" points="23.147,340.965 23.147,394.183 67.495,367.574 		"/>
	</g>
</g>
<g id="Pause_Sign_by_Freepik_2_">
	<g>
		<path fill="#010202" d="M76.01,349.835h-6.031c-0.354,0-0.709,0.354-0.709,0.709v33.882c0,0.355,0.354,0.71,0.709,0.71h6.031
			c0.355,0,0.71-0.354,0.71-0.71v-33.882C76.72,350.189,76.365,349.835,76.01,349.835z M91.621,349.835h-6.032
			c-0.354,0-0.709,0.354-0.709,0.709v33.882c0,0.355,0.354,0.71,0.709,0.71h6.032c0.354,0,0.709-0.354,0.709-0.71v-33.882
			C92.33,350.189,91.976,349.835,91.621,349.835z"/>
	</g>
</g>
<path fill="#C3C2C2" d="M29.902,445.941H74.27v52.435H29.902V445.941z M37.163,490.711h29.443v-3.628H37.163V490.711z
	 M37.163,479.418h29.443v-3.629H37.163V479.418z M37.163,468.125h29.443v-3.63H37.163V468.125z M37.163,456.831h29.443v-3.63H37.163
	V456.831z"/>
<g id="List_Checkmark_2_">
	<g>
		<path fill="#4BB2E5" d="M66.642,543.348c-1.278,0-2.235,0.64-3.193,1.596l0,0l0,0c-0.32,0.319-0.32,0.64-0.638,0.959
			l-16.279,27.449l-7.661-9.574l0,0c-0.638-0.958-1.916-1.916-3.191-1.916c-2.235,0-3.831,1.916-3.831,4.149
			c0,1.277,0.318,2.235,1.276,2.873l9.896,13.726l0,0c0.638,0.957,1.914,1.915,3.191,1.915c1.596,0,3.191-0.958,3.511-2.554
			l20.109-32.239l0.32-0.318l0,0c0.318-0.64,0.638-1.277,0.638-1.915C70.79,545.263,68.875,543.348,66.642,543.348z"/>
	</g>
</g>
</svg>
