<?xml version="1.0" encoding="utf-8"?>
<!-- Generator: Adobe Illustrator 16.0.0, SVG Export Plug-In . SVG Version: 6.00 Build 0)  -->
<!DOCTYPE svg PUBLIC "-//W3C//DTD SVG 1.1//EN" "http://www.w3.org/Graphics/SVG/1.1/DTD/svg11.dtd">
<svg version="1.1" id="Layer_1" xmlns="http://www.w3.org/2000/svg" xmlns:xlink="http://www.w3.org/1999/xlink" x="0px" y="0px"
	 width="59px" height="428.5px" viewBox="0 0 59 428.5" enable-background="new 0 0 59 428.5" xml:space="preserve">
<rect x="2.626" y="5.313" fill="#F8F7F7" stroke="#CAC9C9" stroke-miterlimit="10" width="53.749" height="53.749"/>
<path fill="#5A5A5B" d="M40.587,32.986c-0.532,0-1.064,0.532-1.064,1.064c0,6.386-5.144,11.53-11.53,11.53
	c-6.386,0-11.53-5.145-11.53-11.53c0-6.031,4.612-10.821,10.466-11.531v2.484c0,0.354,0.178,0.709,0.532,0.887
	c0.178,0.177,0.355,0.177,0.532,0.177c0.178,0,0.355,0,0.532-0.177l6.387-3.726c0.354-0.177,0.532-0.532,0.532-0.887
	s-0.178-0.71-0.532-0.887l-6.387-3.726c-0.354-0.178-0.709-0.178-1.064,0c-0.354,0.178-0.532,0.532-0.532,0.887v2.661
	c-7.096,0.532-12.595,6.563-12.595,13.659c0,7.628,6.209,13.659,13.659,13.659c7.628,0,13.659-6.209,13.659-13.659
	C41.651,33.519,41.297,32.986,40.587,32.986z"/>
<rect x="2.625" y="75.047" fill="#F8F7F7" stroke="#CAC9C9" stroke-miterlimit="10" width="53.75" height="53.749"/>
<g id="Ellipse_2_3_">
	<g>
		<circle fill="#5A5A5B" cx="29.589" cy="101.656" r="18.626"/>
	</g>
</g>
<g id="check_1_">
	<polygon fill="#FFFFFF" points="25.331,106.8 19.655,101.124 17.881,103.075 25.331,110.525 41.297,94.56 39.345,92.609 	"/>
</g>
<rect x="2.575" y="147.313" fill="#F8F7F7" stroke="#CAC9C9" stroke-miterlimit="10" width="53.75" height="53.749"/>
<g id="Ellipse_2_2_">
	<g>
		<circle fill="#5A5A5B" cx="29.539" cy="173.922" r="18.626"/>
	</g>
</g>
<g>
	<path fill="#FFFFFF" d="M39.473,172.857c0.532-0.532,0.709-1.242,0.709-2.129c0-0.709-0.177-1.419-0.709-1.951
		s-1.064-0.71-1.951-0.71h-3.902c0-0.177,0-0.177,0.177-0.354c0-0.178,0-0.178,0.178-0.354c0-0.178,0.177-0.178,0.177-0.178
		c0.178-0.354,0.355-0.532,0.355-0.709c0-0.178,0.177-0.532,0.177-0.888c0-0.354,0.178-0.709,0.178-1.064c0-0.177,0-0.354,0-0.532
		c0-0.177,0-0.354,0-0.709s-0.178-0.532-0.178-0.71c0-0.177-0.177-0.354-0.354-0.709c-0.178-0.178-0.354-0.355-0.532-0.532
		c-0.177-0.178-0.532-0.178-0.887-0.355c-0.354-0.177-0.71-0.177-1.064-0.177c-0.178,0-0.532,0-0.71,0.177
		c-0.177,0.178-0.354,0.355-0.531,0.71c-0.178,0.354-0.178,0.532-0.355,0.71c0,0.177-0.177,0.532-0.177,0.887
		s-0.178,0.709-0.178,0.887s-0.178,0.354-0.178,0.71c-0.177,0.354-0.177,0.532-0.354,0.709c-0.354,0.355-0.71,0.888-1.419,1.597
		c-0.532,0.532-0.888,1.064-1.419,1.597c-0.532,0.532-0.888,0.887-1.064,0.887c-0.178,0-0.355,0.178-0.532,0.355
		c-0.178,0.177-0.178,0.354-0.178,0.531v8.87c0,0.178,0,0.532,0.178,0.532c0.177,0.177,0.354,0.177,0.709,0.354
		c0.355,0,1.064,0.178,2.129,0.532c0.71,0.178,1.242,0.354,1.597,0.532s0.887,0.178,1.773,0.354c0.71,0.178,1.42,0.178,1.951,0.178
		h0.178h1.064h0.532c1.242,0,2.129-0.354,2.661-1.064s0.709-1.419,0.709-2.483c0.355-0.354,0.532-0.71,0.71-1.242
		s0.178-1.063,0-1.596c0.354-0.532,0.71-1.242,0.532-1.952C39.65,173.567,39.65,173.212,39.473,172.857z"/>
	<path fill="#FFFFFF" d="M22.976,169.842h-4.08c-0.178,0-0.532,0-0.71,0.178c-0.178,0.177-0.178,0.354-0.178,0.709v8.87
		c0,0.177,0,0.532,0.178,0.709c0.178,0.178,0.354,0.178,0.71,0.178h4.08c0.177,0,0.532,0,0.709-0.178
		c0.178-0.177,0.178-0.354,0.178-0.709v-8.87c0-0.177,0-0.532-0.178-0.709C23.33,169.842,23.152,169.842,22.976,169.842z
		 M21.379,178.534c-0.178,0.177-0.355,0.177-0.71,0.177c-0.178,0-0.532,0-0.709-0.177c-0.178-0.178-0.178-0.355-0.178-0.71
		c0-0.178,0-0.532,0.178-0.709c0.177-0.178,0.354-0.178,0.709-0.178c0.178,0,0.532,0,0.71,0.178
		c0.177,0.177,0.177,0.354,0.177,0.709S21.556,178.356,21.379,178.534z"/>
</g>
<rect x="3.129" y="221" fill="#F8F7F7" stroke="#CAC9C9" stroke-miterlimit="10" width="53.749" height="53.749"/>
<path fill="#CCCACA" d="M41.09,249.383c-0.532,0-1.064,0.531-1.064,1.063c0,6.387-5.144,11.531-11.53,11.531
	c-6.386,0-11.53-5.145-11.53-11.531c0-6.031,4.612-10.82,10.466-11.53v2.483c0,0.355,0.178,0.71,0.532,0.888
	c0.178,0.177,0.355,0.177,0.532,0.177c0.178,0,0.355,0,0.532-0.177l6.387-3.726c0.354-0.178,0.532-0.532,0.532-0.887
	c0-0.355-0.178-0.71-0.532-0.888l-6.387-3.725c-0.354-0.178-0.709-0.178-1.064,0c-0.354,0.178-0.532,0.532-0.532,0.887v2.661
	c-7.096,0.532-12.595,6.563-12.595,13.659c0,7.628,6.209,13.659,13.659,13.659c7.628,0,13.659-6.209,13.659-13.659
	C42.154,249.914,41.8,249.383,41.09,249.383z"/>
<rect x="2.827" y="293.367" fill="#F8F7F7" stroke="#CAC9C9" stroke-miterlimit="10" width="53.75" height="53.749"/>
<g id="Ellipse_2_copy_3_">
	<g>
		<circle fill="#CCCACA" cx="29.791" cy="320.331" r="18.626"/>
	</g>
</g>
<g id="check">
	<polygon fill="#FFFFFF" points="25.533,326.361 19.857,320.686 18.083,322.637 25.533,330.087 41.499,314.122 39.547,312.17 	"/>
</g>
<rect x="2.575" y="367.367" fill="#F8F7F7" stroke="#CAC9C9" stroke-miterlimit="10" width="53.75" height="53.749"/>
<g id="Ellipse_2_copy_2_">
	<g>
		<circle fill="#CCCACA" cx="29.539" cy="394.331" r="18.626"/>
	</g>
</g>
<g>
	<path fill="#FFFFFF" d="M39.473,393.266c0.532-0.531,0.709-1.241,0.709-2.128c0-0.71-0.177-1.419-0.709-1.952
		c-0.532-0.531-1.064-0.709-1.951-0.709h-3.902c0-0.178,0-0.178,0.177-0.354c0-0.178,0-0.178,0.178-0.355
		c0-0.177,0.177-0.177,0.177-0.177c0.178-0.355,0.355-0.532,0.355-0.71s0.177-0.532,0.177-0.887s0.178-0.71,0.178-1.064
		c0-0.178,0-0.354,0-0.532s0-0.354,0-0.71c0-0.354-0.178-0.532-0.178-0.709c0-0.178-0.177-0.354-0.354-0.71
		c-0.178-0.177-0.354-0.354-0.532-0.532c-0.177-0.177-0.532-0.177-0.887-0.354s-0.71-0.178-1.064-0.178c-0.178,0-0.532,0-0.71,0.178
		c-0.177,0.178-0.354,0.354-0.531,0.71c-0.178,0.354-0.178,0.532-0.355,0.709c0,0.178-0.177,0.532-0.177,0.887
		c0,0.355-0.178,0.71-0.178,0.888c0,0.177-0.178,0.354-0.178,0.709c-0.177,0.355-0.177,0.532-0.354,0.71
		c-0.354,0.354-0.71,0.887-1.419,1.597c-0.532,0.532-0.888,1.064-1.419,1.596c-0.532,0.532-0.888,0.888-1.064,0.888
		c-0.178,0-0.355,0.177-0.532,0.354c-0.178,0.178-0.178,0.354-0.178,0.532v8.869c0,0.178,0,0.532,0.178,0.532
		c0.177,0.178,0.354,0.178,0.709,0.355c0.355,0,1.064,0.177,2.129,0.532c0.71,0.177,1.242,0.354,1.597,0.531
		c0.354,0.178,0.887,0.178,1.773,0.355c0.71,0.177,1.42,0.177,1.951,0.177h0.178h1.064h0.532c1.242,0,2.129-0.354,2.661-1.063
		c0.532-0.71,0.709-1.42,0.709-2.483c0.355-0.355,0.532-0.71,0.71-1.242s0.178-1.064,0-1.597c0.354-0.532,0.71-1.241,0.532-1.951
		C39.65,394.153,39.65,393.798,39.473,393.266z"/>
	<path fill="#FFFFFF" d="M22.976,390.428h-4.08c-0.178,0-0.532,0-0.71,0.178c-0.178,0.177-0.178,0.354-0.178,0.709v8.87
		c0,0.177,0,0.532,0.178,0.709c0.178,0.178,0.354,0.178,0.71,0.178h4.08c0.177,0,0.532,0,0.709-0.178
		c0.178-0.177,0.178-0.354,0.178-0.709v-8.87c0-0.177,0-0.532-0.178-0.709C23.33,390.428,23.152,390.428,22.976,390.428z
		 M21.379,398.942c-0.178,0.178-0.355,0.178-0.71,0.178c-0.178,0-0.532,0-0.709-0.178c-0.178-0.177-0.178-0.354-0.178-0.709
		c0-0.178,0-0.532,0.178-0.71c0.177-0.178,0.354-0.178,0.709-0.178c0.178,0,0.532,0,0.71,0.178c0.177,0.178,0.177,0.354,0.177,0.71
		C21.556,398.588,21.556,398.766,21.379,398.942z"/>
</g>
</svg>
