<?xml version="1.0" encoding="iso-8859-1"?>
<!-- Generator: Adobe Illustrator 16.0.3, SVG Export Plug-In . SVG Version: 6.00 Build 0)  -->
<!DOCTYPE svg PUBLIC "-//W3C//DTD SVG 1.1//EN" "http://www.w3.org/Graphics/SVG/1.1/DTD/svg11.dtd">
<svg version="1.1" id="Layer_1" xmlns="http://www.w3.org/2000/svg" xmlns:xlink="http://www.w3.org/1999/xlink" x="0px" y="0px"
	 width="135px" height="725.416px" viewBox="0 0 135 725.416" style="enable-background:new 0 0 135 725.416;" xml:space="preserve"
	>
<g>
	<circle style="fill:#FFFFFF;stroke:#EAEAEA;stroke-miterlimit:10;" cx="64.09" cy="151.508" r="23"/>
	<g>
		<g>
			<g>
				<g>
					<defs>
						<circle id="SVGID_1_" cx="64.09" cy="151.508" r="23"/>
					</defs>
					<clipPath id="SVGID_2_">
						<use xlink:href="#SVGID_1_"  style="overflow:visible;"/>
					</clipPath>
					<g style="clip-path:url(#SVGID_2_);">
						<g>
							<path style="fill:#319FD9;" d="M75.484,165.671c-1.385-0.533-3.09-0.746-4.153-1.491c-0.958-0.639-2.13-1.917-2.235-3.088
								c-0.213-1.811,1.063-2.449,1.916-4.153c0.213-0.426-0.107-1.065,0-1.491c0.105-0.319,0.532-0.426,0.745-0.746
								c0.427-0.745,1.063-1.49,1.171-1.916c0.213-1.065-0.426-4.579-0.426-5.75c0-0.639,0.426-1.171,0.426-1.491
								c-0.105-0.32-0.639-0.32-0.744-0.745c-0.106-0.426,0.213-1.064,0-1.49c-0.64-1.491-2.449-2.13-3.09-3.834
								c-2.235,0.853-3.514-2.129-5.324-1.17c-0.745,0.426-0.638-0.639-1.917-0.426c-0.426,0.106,0,0.532-0.426,0.745
								c-0.319,0.213-1.384,0.107-1.171,0c-0.532,0.319-1.49,1.597-2.236,2.237c-1.064,0.958-2.023,1.384-2.236,1.917
								c0,0.106,0.106,0.745,0,1.171c-0.106,0.106-1.278,1.491-1.171,1.917c0,0.106,0.745,0.319,0.745,0.426
								c0.746,3.514-1.278,7.454,1.917,9.158c-0.319,2.555,1.704,3.194,1.49,5.75c0,0.532-0.319,0.638-0.745,1.491
								c-0.639,1.597,0,1.064-2.236,1.916c-2.343,0.853-5.644,2.023-7.987,3.408c-0.532,0.319-2.236,1.171-2.662,1.917
								c-0.427,0.745-0.213,2.342-0.427,3.408c-0.106,0.958-0.639,2.129-0.425,3.407h39.505
								C84.322,168.864,81.127,167.694,75.484,165.671z"/>
						</g>
					</g>
				</g>
			</g>
		</g>
	</g>
</g>
<g>
	<circle style="fill:#010202;stroke:#FFFFFF;stroke-width:3;stroke-miterlimit:10;" cx="66.412" cy="56.656" r="45"/>
	<g id="Rounded_Rectangle_1_2_">
		<g>
			<path style="fill:#FFFFFF;" d="M78.437,41.883H55.651c-1.759,0-3.107,1.347-3.107,3.108v22.785c0,1.76,1.347,3.107,3.107,3.107
				h22.786c1.761,0,3.107-1.346,3.107-3.108V44.991C81.543,43.229,80.094,41.883,78.437,41.883z"/>
		</g>
	</g>
	<g id="Shape_1_4_">
		<g>
			<path style="fill:#010202;" d="M68.08,63.942l4.142,3.831V46.025l-4.142,3.832V63.942z M62.9,67.775l4.144-3.832V49.858
				L62.9,46.026V67.775z M73.258,64.668l2.9,0.518V48.304l-2.9,0.829V64.668z M58.965,65.186l2.9-0.518V49.132l-2.9-0.829V65.186z
				 M77.401,50.168v13.464l1.035-0.208V50.375L77.401,50.168z M56.687,63.425l1.036,0.208V50.169l-1.036,0.207V63.425z"/>
		</g>
	</g>
</g>
<g>
	<circle style="fill:#010202;stroke:#FFFFFF;stroke-width:3;stroke-miterlimit:10;" cx="66.412" cy="677.656" r="34"/>
	<g id="Rounded_Rectangle_1_3_">
		<g>
			<path style="fill:#FFFFFF;" d="M76.223,665.571H57.556c-1.441,0-2.545,1.102-2.545,2.545v18.667c0,1.442,1.103,2.546,2.545,2.546
				h18.668c1.442,0,2.546-1.103,2.546-2.546v-18.667C78.769,666.673,77.58,665.571,76.223,665.571z"/>
		</g>
	</g>
	<g>
		<path style="fill:#070707;" d="M68.03,681.599h-2.782c-0.091,0-0.166,0.075-0.166,0.168v2.824c0,0.093,0.073,0.168,0.166,0.168
			h2.782c0.091,0,0.165-0.075,0.165-0.168v-2.824C68.195,681.674,68.122,681.599,68.03,681.599z"/>
		<path style="fill:#070707;" d="M70.496,670.849c-0.971-0.871-2.29-1.313-3.921-1.313c-1.553,0-2.827,0.436-3.788,1.298
			c-0.965,0.865-1.491,1.931-1.565,3.173c-0.006,0.087,0.058,0.164,0.145,0.177l2.555,0.321c0.006,0,0.014,0.002,0.02,0.002
			c0.078,0,0.146-0.055,0.162-0.133c0.169-0.797,0.482-1.394,0.927-1.776c0.441-0.382,1.001-0.574,1.664-0.574
			c0.688,0,1.238,0.184,1.638,0.545c0.398,0.362,0.593,0.784,0.593,1.288c0,0.359-0.107,0.684-0.333,0.983
			c-0.101,0.134-0.433,0.468-1.428,1.288c-0.826,0.682-1.386,1.31-1.667,1.863c-0.282,0.558-0.425,1.273-0.425,2.127
			c0,0.082,0.003,0.304,0.01,0.677c0.002,0.092,0.075,0.164,0.166,0.164h2.525c0.044,0,0.086-0.018,0.118-0.05
			c0.03-0.032,0.049-0.075,0.047-0.12c-0.013-0.747,0.047-1.268,0.176-1.544c0.132-0.278,0.485-0.661,1.052-1.14
			c1.158-0.979,1.896-1.734,2.256-2.312c0.362-0.581,0.546-1.206,0.546-1.859C71.968,672.765,71.474,671.726,70.496,670.849z"/>
	</g>
</g>
<circle style="fill:none;stroke:#32A0DA;stroke-width:2;stroke-miterlimit:10;" cx="66.688" cy="244.865" r="43"/>
<g id="Ellipse_1_copy_2_" style="opacity:0.4;">
	<g>
		<circle style="fill:#D8D9D9;" cx="66.902" cy="356.035" r="43"/>
	</g>
</g>
<g id="Ellipse_1_copy_5_2_" style="opacity:0.4;">
	<g>
		<circle style="fill:#FFFFFF;" cx="67.767" cy="463.664" r="34"/>
	</g>
</g>
<g id="Ellipse_1_copy_5_1_" style="opacity:0.4;">
	<g>
		<circle style="fill:#EFEFEF;" cx="66.767" cy="574.664" r="34"/>
	</g>
</g>
<g id="Play_copy_3_2_">
	<g>
		<polygon style="fill:#010202;" points="63,455.87 63,471.726 76.214,463.799 		"/>
	</g>
</g>
<g>
	<g id="Rounded_Rectangle_1_1_">
		<g>
			<path style="fill:#020202;" d="M78.043,560.384H56.044c-1.699,0-3,1.299-3,3v21.999c0,1.699,1.3,3,3,3h22c1.7,0,3-1.3,3-3
				v-21.999C81.043,561.683,79.644,560.384,78.043,560.384z"/>
		</g>
	</g>
	<g id="Shape_1_1_">
		<g>
			<path style="fill:#FFFFFF;" d="M68.045,581.682l3.998,3.699v-20.998l-3.998,3.7V581.682z M63.042,585.383l4.001-3.7v-13.6
				l-4.001-3.7V585.383z M73.044,582.383l2.8,0.5v-16.3l-2.8,0.8V582.383z M59.244,582.883l2.8-0.501v-15l-2.8-0.801V582.883z
				 M77.045,568.383v13l0.998-0.2v-12.601L77.045,568.383z M57.043,581.183l1,0.2v-12.999l-1,0.199V581.183z"/>
		</g>
	</g>
</g>
<g id="Play_copy_3_1_">
	<g>
		<polygon style="fill:#FFFFFF;stroke:#A9A9A9;stroke-miterlimit:10;" points="76,577.455 76,593.311 89.214,585.384 		"/>
	</g>
</g>
<g id="Play_copy_3_3_">
	<g>
		<polygon style="fill:#FFFFFF;stroke:#A9A9A9;stroke-width:0.75;stroke-miterlimit:10;" points="76,682.455 76,698.311 
			89.214,690.384 		"/>
	</g>
</g>
<g id="Play_copy_3_4_">
	<g>
		<polygon style="fill:#FFFFFF;stroke:#A9A9A9;stroke-width:0.75;stroke-miterlimit:10;" points="76,61.455 76,77.311 
			89.214,69.384 		"/>
	</g>
</g>
</svg>
