<?xml version="1.0" encoding="iso-8859-1"?>
<!-- Generator: Adobe Illustrator 16.0.3, SVG Export Plug-In . SVG Version: 6.00 Build 0)  -->
<!DOCTYPE svg PUBLIC "-//W3C//DTD SVG 1.1//EN" "http://www.w3.org/Graphics/SVG/1.1/DTD/svg11.dtd">
<svg version="1.1" id="Layer_1" xmlns="http://www.w3.org/2000/svg" xmlns:xlink="http://www.w3.org/1999/xlink" x="0px" y="0px"
	 width="37px" height="4069.541px" viewBox="0 -62.865 37 4069.541" style="enable-background:new 0 -62.865 37 4069.541;"
	 xml:space="preserve">
<g id="movie_tape_2_">
	<g>
		<path style="fill:#010202;" d="M27.434,36.031c-0.104-0.104-0.328-0.214-0.873-0.104c-0.873,0.104-1.521-0.214-1.963-0.854
			c-0.328-0.531-0.328-0.959-0.219-1.491c0.109-0.533,0.546-1.279,1.309-2.135l0.438-0.64c1.312-1.813,1.64-3.308,0.873-4.587
			c-0.767-1.387-3.056-1.175-4.798-0.533c-1.311-2.667-4.143-4.479-7.414-4.479c-4.58,0-8.287,3.627-8.287,8s3.707,8,8.287,8
			c4.576,0,8.287-3.627,8.287-8c0-0.96-0.221-1.92-0.547-2.772c0.547-0.214,1.197-0.321,1.854-0.321
			c0.873,0,1.639,0.107,1.854,0.643c0.654,1.065,0.326,2.454-0.979,3.946l-0.219,0.319c-1.525,1.813-1.854,3.309-1.094,4.692
			c0.328,0.534,0.873,0.961,1.527,1.175c0.65,0.213,1.309,0.213,1.741-0.105C27.541,36.457,27.541,36.244,27.434,36.031z
			 M10.969,30.804c-0.982,0-1.745-0.746-1.745-1.707c0-0.959,0.763-1.706,1.745-1.706c0.982,0,1.744,0.747,1.744,1.706
			C12.713,30.058,11.951,30.804,10.969,30.804z M14.785,34.431c-0.981,0-1.745-0.747-1.745-1.706c0-0.96,0.764-1.707,1.745-1.707
			s1.744,0.746,1.744,1.707C16.529,33.684,15.766,34.431,14.785,34.431z M14.131,29.097c0-0.32,0.327-0.64,0.655-0.64
			c0.327,0,0.654,0.318,0.654,0.64c0,0.319-0.327,0.64-0.654,0.64C14.458,29.738,14.131,29.525,14.131,29.097z M14.785,27.071
			c-0.981,0-1.745-0.746-1.745-1.707c0-0.96,0.764-1.707,1.745-1.707s1.744,0.747,1.744,1.707
			C16.529,26.324,15.766,27.071,14.785,27.071z M18.601,30.804c-0.981,0-1.744-0.746-1.744-1.707c0-0.959,0.763-1.706,1.744-1.706
			c0.982,0,1.745,0.747,1.745,1.706C20.346,30.058,19.582,30.804,18.601,30.804z"/>
	</g>
</g>
<g id="Headphones_2_">
	<g>
		<path style="fill:#010202;" d="M11.911,63.578c-0.301,0-0.602,0.298-0.602,0.596v4.168c0,0.298,0.3,0.596,0.602,0.596
			c0.301,0,0.602-0.298,0.602-0.596v-4.168C12.513,63.876,12.212,63.578,11.911,63.578z M25.45,63.678L25.35,63.38
			c-0.304-3.869-4.213-7.442-8.327-7.442c-4.111,0-7.923,3.672-8.224,7.542v0.198c-0.702,0.099-1.304,0.694-1.304,1.488v2.28
			c0,0.796,0.702,1.489,1.504,1.489c0.802,0,1.504-0.693,1.504-1.489v-2.28v-1.19c0-3.077,3.209-6.251,6.419-6.251
			s6.521,3.175,6.521,6.251c0,0.297,0,1.19,0,1.19v2.28c0,0.796,0.701,1.489,1.504,1.489s1.504-0.693,1.504-1.489v-2.28
			C26.654,64.471,26.152,63.876,25.45,63.678z M22.342,63.578c-0.302,0-0.602,0.298-0.602,0.596v4.168
			c0,0.298,0.3,0.596,0.602,0.596c0.301,0,0.602-0.298,0.602-0.596v-4.168C22.943,63.876,22.643,63.578,22.342,63.578z"/>
	</g>
</g>
<g id="Shape_1_copy_2_">
	<g>
		<path style="fill:#010202;" d="M17.73,100.743l3.2,3v-17l-3.2,3V100.743z M13.63,103.743l3.2-3v-11l-3.2-3V103.743L13.63,103.743z
			 M21.73,101.243l2.299,0.398v-13.1l-2.299,0.601V101.243z M10.63,101.743l2.3-0.4v-12.2l-2.3-0.601V101.743z M25.029,89.944v10.5
			l0.801-0.198V90.143L25.029,89.944z M8.83,100.344l0.8,0.198v-10.6l-0.8,0.199V100.344z"/>
	</g>
</g>
<g id="Shape_1_copy_1_">
	<g>
		<path style="fill:#FBC516;" d="M17.777,134.39l3.577,3.354v-19l-3.577,3.354V134.39z M13.195,137.743l3.576-3.354v-12.295
			l-3.577-3.354L13.195,137.743L13.195,137.743z M22.249,134.948l2.569,0.447v-14.642l-2.569,0.67V134.948z M9.842,135.508
			l2.57-0.446v-13.636l-2.57-0.67V135.508z M25.936,122.32v11.734l0.896-0.225V122.54L25.936,122.32z M7.83,133.944l0.894,0.225
			V122.32l-0.894,0.225V133.944z"/>
	</g>
</g>
<g>
	<path style="fill:#020303;" d="M16.784,186.377l-2.042,4.839l-4.958,0.515l3.695,3.5l-1.069,5.146l4.375-2.676l4.375,2.676
		l-1.069-5.146l3.694-3.5l-4.959-0.515L16.784,186.377L16.784,186.377z"/>
</g>
<g id="Icons_with_numbers">
	<g id="Group" transform="translate(-48.000000, -48.000000)">
		<path id="Shape" style="fill:#020303;" d="M59.681,267.151h7.333v4.816h3.668v9.636h-3.668h-7.333V267.151L59.681,267.151z
			 M67.932,267.151l2.748,3.854h-2.748V267.151L67.932,267.151z"/>
	</g>
</g>
<g id="Volume_Icon_-_Mute_2_">
	<g>
		<path style="fill:#010202;" d="M11.945,293.678v5h3.7l5.3,3.5v-12l-5.3,3.5H11.945z"/>
	</g>
</g>
<g id="Volume_Icon_-_Min_copy_2_">
	<g>
		<polygon style="fill:#010202;" points="15.898,261.865 12.197,261.865 12.197,266.865 15.898,266.865 21.197,270.365 
			21.197,258.365 		"/>
	</g>
</g>
<g id="Volume_Icon_-_Mute_1_">
	<g>
		<path style="fill:#626362;" d="M12.196,356.677v5h3.7l5.301,3.5v-12l-5.301,3.5H12.196z"/>
	</g>
</g>
<g id="Volume_Icon_-_Min_copy_1_">
	<g>
		<polygon style="fill:#626362;" points="15.898,325.865 12.197,325.865 12.197,330.865 15.898,330.865 21.197,334.365 
			21.197,322.365 		"/>
	</g>
</g>
<g id="Play_copy_3_2_">
	<g>
		<polygon style="fill:#010202;" points="14.645,422.869 14.645,434.868 24.645,428.869 		"/>
	</g>
</g>
<g id="Play_copy_3_1_">
	<g>
		<polygon style="fill:#626362;" points="14.645,537.868 14.645,549.868 24.645,543.868 		"/>
	</g>
</g>
<path style="fill:#020303;" d="M24.596,614.068v4.482l-1.566-1.563l-2.504,2.505l-1.252-1.354l2.504-2.504l-1.563-1.563
	L24.596,614.068L24.596,614.068z M15.621,615.737l2.504,2.506l-1.252,1.252l-2.504-2.505l-1.565,1.563v-4.482h4.382L15.621,615.737z
	 M23.029,623.146l1.563-1.565v4.487h-4.484l1.563-1.563l-2.396-2.604l1.252-1.256L23.029,623.146z M18.021,621.894l-2.505,2.51
	l1.566,1.563h-4.487v-4.487l1.565,1.564l2.504-2.507L18.021,621.894z"/>
<g id="Cross_Out_Mark_by_Freepik_2_">
	<g>
		<polygon style="fill:#9A9999;" points="30.797,814.962 30.1,814.261 19.298,825.063 8.497,814.261 7.797,814.962 18.598,825.761 
			7.797,836.563 8.497,837.261 19.298,826.462 30.1,837.261 30.797,836.563 19.998,825.761 		"/>
	</g>
</g>
<g id="SEO_Tips_Interface_Symbol_by_SimpleIcon_2_">
	<g>
		<path style="fill:#9A9999;" d="M32.09,883.102l-4.515-4.498c-0.399-0.396-1.103-0.502-1.604-0.302l-0.804-0.799
			c3.711-4.202,3.612-10.604-0.399-14.701c-4.213-4.198-10.932-4.198-15.144,0s-4.212,10.896,0,15.104
			c4.011,4,10.53,4.197,14.744,0.396l0.802,0.802c-0.201,0.5-0.1,1.199,0.301,1.604l4.514,4.499c0.604,0.604,1.504,0.604,2.104,0
			C32.59,884.602,32.59,883.7,32.09,883.102z M23.361,876.601c-3.51,3.501-9.125,3.501-12.534,0c-3.51-3.497-3.51-9.1,0-12.497
			c3.51-3.502,9.126-3.502,12.534,0C26.873,867.5,26.873,873.2,23.361,876.601z"/>
	</g>
</g>
<path style="fill:#010202;" d="M9.219-19.174h15V-7.11h-15V-19.174z M10.267-18.087v10h12.907v-10H10.267z M11.778-8.74l2.209-2.282
	l1.163,1.086l4.536-4.237l1.744,1.631l1.162-1.194v5L11.778-8.74L11.778-8.74z M13.871-16.782c0,1.195-1.047,2.065-2.209,2.065
	c-0.232,0-0.465,0-0.582-0.108v-2.718h2.675C13.755-17.326,13.871-17,13.871-16.782z M13.173-6.131c0.583,0,1.047,0.435,1.047,0.979
	s-0.464,0.979-1.047,0.979c-0.582,0-1.046-0.437-1.046-0.979S12.592-6.131,13.173-6.131z M20.268-6.131
	c0.582,0,1.047,0.435,1.047,0.979s-0.465,0.979-1.047,0.979s-1.047-0.437-1.047-0.979C19.221-5.697,19.686-6.131,20.268-6.131z
	 M16.778-6.131c0.582,0,1.046,0.435,1.046,0.979s-0.464,0.979-1.046,0.979s-1.046-0.437-1.046-0.979
	C15.615-5.697,16.197-6.131,16.778-6.131z"/>
<g id="polaroid_2_">
	<g>
		<path style="fill:#010202;" d="M20.686-46.054l-3.5,4.802l-2.5-2.399l-2.5,3.699l-1.9-1.698l-2,3.8h16L20.686-46.054z
			 M10.685-43.854c0.899,0,1.6-0.7,1.6-1.5c0.1-0.898-0.7-1.5-1.6-1.5c-0.901,0-1.601,0.602-1.601,1.5
			C9.084-44.554,9.784-43.854,10.685-43.854z"/>
	</g>
</g>
<g id="link_icon_2_">
	<g>
		<path style="fill:#626363;" d="M24.956,655.15L24.956,655.15c-0.845-0.936-2.028-1.354-3.211-1.354s-2.365,0.508-3.211,1.354
			c0,0-2.873,2.96-3.041,3.129c-0.844,0.934-1.352,2.115-1.352,3.384c0,1.271,0.507,2.453,1.352,3.386l0.338,0.423
			c0.084,0.084,0.253,0.169,0.338,0.169c0.168,0,0.253-0.085,0.338-0.169l0.675-0.764c0.169-0.169,0.169-0.508,0-0.762l-0.337-0.425
			c-0.93-1.019-1.014-2.705,0-3.725l3.042-3.214c0.506-0.511,1.098-0.765,1.774-0.765c0.676,0,1.267,0.254,1.772,0.765l0,0
			c1.016,1.014,1.016,2.704,0,3.721l-0.168,0.169c0.254,0.682,0.422,1.438,0.422,2.199c0,0.169,0,0.254,0,0.423l1.184-1.271
			C26.729,660.055,26.729,657.01,24.956,655.15z M20.646,659.038c-0.084-0.085-0.254-0.169-0.338-0.169
			c-0.168,0-0.254,0.084-0.338,0.169l-0.682,0.765c-0.168,0.169-0.168,0.508,0,0.764l0.338,0.425c0.936,1.018,1.02,2.707,0,3.723
			l-3.041,3.216c-0.506,0.51-1.098,0.764-1.774,0.764s-1.267-0.254-1.774-0.764l0,0c-1.014-1.019-1.014-2.707,0-3.725l0.168-0.169
			c-0.253-0.677-0.422-1.438-0.422-2.197c0-0.171,0-0.255,0-0.424l-1.182,1.271c-1.774,1.857-1.774,4.904,0,6.771l0,0
			c0.845,0.934,2.028,1.354,3.21,1.354c1.183,0,2.366-0.509,3.21-1.354c0,0,2.875-2.96,3.042-3.129
			c0.847-0.936,1.354-2.115,1.354-3.387c0-1.272-0.507-2.45-1.354-3.386L20.646,659.038z"/>
	</g>
</g>
<g id="link_icon_1_">
	<g>
		<path style="fill:#949494;" d="M24.956,690.151L24.956,690.151c-0.845-0.936-2.028-1.354-3.211-1.354s-2.365,0.507-3.211,1.354
			c0,0-2.873,2.96-3.041,3.129c-0.844,0.934-1.352,2.114-1.352,3.383c0,1.271,0.507,2.453,1.352,3.387l0.338,0.422
			c0.084,0.085,0.253,0.169,0.338,0.169c0.168,0,0.253-0.084,0.338-0.169l0.675-0.764c0.169-0.169,0.169-0.508,0-0.762l-0.337-0.423
			c-0.93-1.021-1.014-2.706,0-3.727l3.042-3.213c0.506-0.511,1.098-0.765,1.774-0.765c0.676,0,1.267,0.254,1.772,0.765l0,0
			c1.016,1.014,1.016,2.705,0,3.721l-0.168,0.174c0.254,0.677,0.422,1.438,0.422,2.193c0,0.169,0,0.254,0,0.424l1.184-1.271
			C26.729,695.056,26.729,692.011,24.956,690.151z M20.646,694.038c-0.084-0.084-0.254-0.168-0.338-0.168
			c-0.168,0-0.254,0.084-0.338,0.168l-0.682,0.765c-0.168,0.169-0.168,0.508,0,0.767l0.338,0.423c0.936,1.018,1.02,2.706,0,3.724
			l-3.041,3.215c-0.506,0.509-1.098,0.764-1.774,0.764s-1.267-0.255-1.774-0.764l0,0c-1.014-1.019-1.014-2.707,0-3.725l0.168-0.169
			c-0.253-0.678-0.422-1.438-0.422-2.196c0-0.172,0-0.256,0-0.426l-1.182,1.271c-1.774,1.858-1.774,4.902,0,6.77l0,0
			c0.845,0.933,2.028,1.354,3.21,1.354c1.183,0,2.366-0.508,3.21-1.354c0,0,2.875-2.96,3.042-3.13
			c0.847-0.935,1.354-2.114,1.354-3.385c0-1.271-0.507-2.45-1.354-3.386L20.646,694.038z"/>
	</g>
</g>
<g id="Globe_icon_2_">
	<g>
		<path style="fill:#626363;" d="M18.276,727.938c-4.742,0-8.5,3.852-8.5,8.5c0,4.741,3.848,8.5,8.5,8.5c4.742,0,8.5-3.848,8.5-8.5
			C26.775,731.696,23.287,727.938,18.276,727.938z M21.587,730.531c0,0,0.091-0.444,0.181-0.811
			c0.178-0.089,0.715,0.355,1.252,0.896c-0.354,1.253-1.164,1.163-1.164,1.163s-0.627,0-0.627-0.537L21.587,730.531z
			 M19.887,731.338c0.09-0.182,0.268-0.271,0.447-0.271c0.18-0.094,0,0.354,0,0.532c0,0.271-0.09,0.355,0.18,0.626
			c0.271,0.271-0.537,0.095-0.717-0.09C19.619,731.965,19.887,731.338,19.887,731.338z M16.397,738.675
			c0,0.183-0.358,0.626-0.537,0.98c-0.178,0.271-0.268,0.444-0.447,0.537c-0.179,0.18-0.268,0.442-0.268,0.442l0.088,0.626
			c0,0,0.179,0.447,0.269,0.627c0.09,0.184-0.269,1.252-0.269,1.252c-0.357-0.09-0.625-0.179-0.715-0.442
			c-0.09-0.271-0.269-0.271-0.269-0.626c0-0.355-0.537-0.716-0.626-0.981c-0.09-0.182-0.268-0.447-0.268-0.626
			c0-0.182-0.448-0.448-0.448-0.448s-0.716-0.354-0.895-0.531c-0.089-0.184-0.268-0.811-0.268-1.073c0-0.271,0.09-0.981,0.09-0.981
			s0.268-0.271,0.089-0.445c-0.179-0.181-0.269-0.718-0.269-0.718l-0.358-0.354c0,0-0.268-0.354-0.268-0.536c0-0.18,0-0.271,0-0.535
			c0-0.18-0.09-0.537-0.09-0.718c1.432-3.487,3.757-4.294,3.757-4.294l0.179,0.807c0,0-0.447,0.092-0.626,0
			c-0.27-0.089-0.358-0.089-0.358-0.089l-0.269,0.445c0,0-0.09,0.271-0.179,0.442c0,0.185,0.089,0.356,0.089,0.356
			s0.537,0,0.537-0.091c0-0.182-0.09-0.271-0.09-0.271l-0.089-0.271c0,0,0.358-0.181,1.253-0.09c0.894,0.09,0.536,0.716,0.984,0.896
			c0.357,0.178-0.27,0.715-0.448,0.981c-0.179,0.271-0.358-0.355-0.358-0.355s0.268-0.271-0.178-0.354
			c-0.359-0.093-0.448,0.442-0.269,0.354c0.179,0,0.269,0.271,0.179,0.444c0,0.182,0,0.446-0.269,0.809
			c-0.178,0.446-0.894,0.446-0.894,0.446s0.089,0.18,0.269,0.445c0.089,0.271,0,0.717,0,0.896c0,0.183-0.448-0.271-0.537-0.626
			c-0.09-0.354-0.268-0.271-0.448-0.181c-0.179,0-0.626,0.181-0.716,0c-0.089-0.183-0.716,0.354-0.984,0.443
			c-0.179,0.094-0.09,0.445,0.178,0.271c0.269-0.179,0.537,0,0.537,0.271c-0.089,0.271-0.357,0.092-0.357,0.271
			c0,0.181,0.357,0.354,0.447,0.626c0.09,0.271,0.806-0.089,0.984-0.271c0.269-0.089,0.895-0.269,0.984,0.095
			c0.089,0.271,0.895,0.536,1.163,0.627c0.27,0.091,0.805,0.091,1.074,0.442C17.024,737.957,16.487,738.493,16.397,738.675z
			 M18.008,729.817c0,0.354-0.716,0.979-0.626,1.068c0.09,0.184,0.09,1.347-0.447,0.72c-0.537-0.536-1.074-1.346-0.983-1.788
			c0-0.096,0-0.185,0-0.355c0.805-0.719,2.594-0.626,2.684-0.447C18.365,729.548,18.008,729.457,18.008,729.817z M18.902,732.053
			c-0.09-0.182,0.269-0.271,0.269-0.271c0.536,0.091,0.358,0.537,0.269,0.627C19.35,732.591,18.992,732.232,18.902,732.053z
			 M24.896,736.615c0,0,0.27,0.447,0.717,0.447c-0.271,3.132-2.953,5.188-2.953,5.188c-0.446-0.447-0.178-0.719-0.178-0.719
			l0.268-0.626l0.09-0.981c0,0-0.09-1.072-1.162-0.536c-1.074,0.271-0.627,0.447-1.699,0.447c-1.075,0.089-0.717-2.146-0.717-2.146
			c-0.09-0.896,0.09-0.721,0.09-1.437c0-0.719,2.326-0.271,2.326-0.271c1.521,0.979,1.698-0.271,1.698-0.271l1.073-0.445
			l0.091-0.534l-0.626-0.719l-0.896-0.444c0,0-0.447,0.271,0,0.896c0,0-0.179,0.718-0.447,0.537l-0.896-1.164
			c0,0-0.356,0.536-0.805,0.811c-0.537,0.271-1.343,0-1.343,0s-0.271-0.896,0.269-1.163h0.806c0,0-0.179-0.447-0.09-0.811
			c0.09-0.442,0.358-0.089,0.717-0.354c0.446-0.271,0.715,0.627,1.252,0.537c0.625-0.095,0.271-0.185,0.715-0.447
			c0.447-0.18,0.723,0.447,0.723,0.447l0.809,0.09c0,0-0.535-1.344-0.72-1.521c0,0,0,0-0.089,0c0,0,0,0,0.089,0
			c0.447,0.089,2.063,2.86,1.606,4.563c-0.18-0.09-0.271-0.182-0.271-0.182h-0.983L24.896,736.615z"/>
	</g>
</g>
<g id="Globe_icon_1_">
	<g>
		<path style="fill:#949494;" d="M18.276,767.107c-4.742,0-8.5,3.848-8.5,8.5c0,4.737,3.848,8.5,8.5,8.5c4.742,0,8.5-3.853,8.5-8.5
			C26.775,770.865,23.287,767.107,18.276,767.107z M21.587,769.7c0,0,0.091-0.444,0.181-0.812c0.178-0.089,0.715,0.357,1.252,0.896
			c-0.354,1.254-1.164,1.163-1.164,1.163s-0.627,0-0.627-0.536L21.587,769.7z M19.887,770.508c0.09-0.182,0.268-0.271,0.447-0.271
			c0.18-0.089,0,0.354,0,0.537c0,0.271-0.09,0.354,0.18,0.627c0.271,0.271-0.537,0.089-0.717-0.096
			C19.619,771.134,19.887,770.508,19.887,770.508z M16.397,777.844c0,0.185-0.358,0.627-0.537,0.982
			c-0.178,0.27-0.268,0.447-0.447,0.536c-0.179,0.182-0.268,0.442-0.268,0.442l0.088,0.628c0,0,0.179,0.445,0.269,0.628
			c0.09,0.18-0.269,1.254-0.269,1.254c-0.357-0.095-0.625-0.185-0.715-0.448c-0.09-0.271-0.269-0.271-0.269-0.626
			c0-0.355-0.537-0.716-0.626-0.981c-0.09-0.182-0.268-0.442-0.268-0.625c0-0.182-0.448-0.443-0.448-0.443s-0.716-0.355-0.895-0.537
			c-0.089-0.183-0.268-0.81-0.268-1.072c0-0.269,0.09-0.982,0.09-0.982s0.268-0.27,0.089-0.442
			c-0.179-0.185-0.269-0.717-0.269-0.717l-0.358-0.356c0,0-0.268-0.354-0.268-0.535s0-0.271,0-0.537c0-0.181-0.09-0.534-0.09-0.716
			c1.432-3.488,3.757-4.296,3.757-4.296l0.179,0.808c0,0-0.447,0.091-0.626,0c-0.269-0.089-0.357-0.089-0.357-0.089l-0.269,0.444
			c0,0-0.09,0.271-0.179,0.447c0,0.179,0.089,0.354,0.089,0.354s0.537,0,0.537-0.092c0-0.18-0.09-0.271-0.09-0.271l-0.089-0.271
			c0,0,0.357-0.182,1.252-0.092c0.895,0.092,0.537,0.719,0.984,0.896c0.357,0.184-0.269,0.719-0.447,0.981
			c-0.18,0.271-0.358-0.354-0.358-0.354s0.269-0.271-0.179-0.354c-0.358-0.09-0.448,0.443-0.268,0.354
			c0.178,0,0.268,0.271,0.178,0.448c0,0.179,0,0.444-0.268,0.805c-0.179,0.447-0.894,0.447-0.894,0.447s0.089,0.179,0.268,0.444
			c0.09,0.271,0,0.718,0,0.896c0,0.185-0.447-0.271-0.536-0.626c-0.09-0.354-0.269-0.271-0.448-0.18c-0.178,0-0.626,0.18-0.716,0
			c-0.089-0.183-0.716,0.354-0.984,0.445c-0.179,0.09-0.09,0.444,0.179,0.271c0.268-0.181,0.536,0,0.536,0.271
			c-0.089,0.271-0.357,0.09-0.357,0.271s0.357,0.355,0.447,0.627c0.09,0.271,0.805-0.09,0.984-0.271
			c0.269-0.091,0.895-0.271,0.984,0.092c0.089,0.27,0.895,0.534,1.164,0.625c0.269,0.092,0.805,0.092,1.073,0.445
			C17.024,777.129,16.487,777.663,16.397,777.844z M18.008,768.987c0,0.354-0.716,0.979-0.626,1.068
			c0.09,0.184,0.09,1.348-0.447,0.721c-0.537-0.537-1.074-1.348-0.983-1.79c0-0.091,0-0.184,0-0.354
			c0.805-0.717,2.594-0.627,2.684-0.447C18.365,768.719,18.008,768.629,18.008,768.987z M18.902,771.223
			c-0.09-0.179,0.269-0.271,0.269-0.271c0.536,0.093,0.358,0.537,0.269,0.628C19.35,771.76,18.992,771.403,18.902,771.223z
			 M24.896,775.784c0,0,0.27,0.447,0.717,0.447c-0.271,3.132-2.953,5.188-2.953,5.188c-0.446-0.447-0.178-0.718-0.178-0.718
			l0.268-0.627l0.09-0.981c0,0-0.09-1.067-1.162-0.536c-1.074,0.271-0.627,0.448-1.699,0.448c-1.075,0.088-0.717-2.146-0.717-2.146
			c-0.09-0.896,0.09-0.721,0.09-1.437c0-0.717,2.326-0.271,2.326-0.271c1.521,0.979,1.698-0.271,1.698-0.271l1.073-0.445
			l0.091-0.537l-0.626-0.717l-0.896-0.444c0,0-0.447,0.271,0,0.896c0,0-0.179,0.716-0.447,0.535l-0.896-1.161
			c0,0-0.356,0.534-0.805,0.807c-0.537,0.271-1.343,0-1.343,0s-0.271-0.896,0.269-1.16h0.806c0,0-0.179-0.447-0.09-0.81
			c0.09-0.445,0.358-0.09,0.717-0.354c0.446-0.271,0.715,0.626,1.252,0.534c0.625-0.091,0.271-0.182,0.715-0.445
			c0.447-0.183,0.723,0.445,0.723,0.445l0.809,0.091c0,0-0.535-1.346-0.72-1.521c0,0,0,0-0.089,0c0,0,0,0,0.089,0
			c0.447,0.089,2.063,2.86,1.606,4.563c-0.18-0.092-0.271-0.183-0.271-0.183h-0.983L24.896,775.784z"/>
	</g>
</g>
<g>
	<path style="fill:#9A9999;" d="M19.314,907.396v7.283h7.008v1.859h-7.008v7.35H17.33v-7.35h-7.008v-1.859h7.008v-7.283H19.314z"/>
</g>
<g>
	<path style="fill:#9A9999;" d="M26.746,943.986v1.602h-16v-1.602H26.746z"/>
</g>
<g id="Shape_5_2_">
	<g>
		<path style="fill:#2EA0DB;" d="M23.195,968.784H20.26v-5.873h-3.454v5.873h-2.85l4.663,6.307L23.195,968.784z M28.119,976.73h-19
			v1.729h19V976.73z"/>
	</g>
</g>
<g id="Shape_3_2_">
	<g>
		<path style="fill:#2EA0DB;" d="M24.121,1002.116H20.62v-2.896c-1.399,0-2.801,0-4.2,0v2.896h-3.501l5.601,7.701L24.121,1002.116z
			 M20.62,992.916h-4.2v4.301c1.399,0,2.801,0,4.2,0V992.916z M27.119,1010.82h-17v2.102h17V1010.82z"/>
	</g>
</g>
<g id="Shape_4_2_">
	<g>
		<path style="fill:#2EA0DB;" d="M15.06,1046.058h7.5v-0.695c-1.201-2.9-3.306-4.896-3.306-4.896h-0.9c0,0-2.3,2.301-3.299,4.896
			L15.06,1046.058L15.06,1046.058z M25.26,1031.859h1.1v-2.104h-15v2.104h1.101v1.104c0,1.697,3.1,6.396,3.2,6.697
			c-0.1,0.301-3.2,5-3.2,6.699v1.101H11.36v2.302h15v-2.102h-1.1v-1.104c0-1.696-3.101-6.396-3.3-6.696c0.199-0.397,3.3-5,3.3-6.698
			V1031.859L25.26,1031.859z M24.158,1032.957c0,1.199-3.301,6.102-3.301,6.699c0,0.604,3.301,5.498,3.301,6.693v1.104H13.46v-1.104
			c0-1.195,3.299-6.098,3.299-6.693c0-0.604-3.299-5.5-3.299-6.699v-1.104h10.698V1032.957z"/>
	</g>
</g>
<g id="Shape_1_6_">
	<g>
		<path style="fill:#2EA0DB;" d="M24.969,1073.883c0-0.104-0.1-0.201-0.1-0.201c-0.6,0.604-3.1,0.701-5.999,0.701
			c-2.899,0-5.397-0.104-5.998-0.701c-0.1,0.104-0.1,0.201-0.1,0.201l0,0l0,0l0,0l0,0l0.5,9.797l0,0
			c0,0.799,0.899,1.896,5.699,1.896c4.798,0,5.597-1.198,5.698-1.896l0,0L24.969,1073.883L24.969,1073.883L24.969,1073.883
			L24.969,1073.883L24.969,1073.883z M21.77,1068.683v-2.299c0-0.396-0.299-0.802-0.799-0.802h-4.599c-0.4,0-0.8,0.302-0.8,0.802
			v2.299c-2.299,0.305-3.799,0.805-3.799,1.399v1.101c0,0.199,0.2,0.5,0.7,0.699c1.1,0.5,3.499,0.896,6.298,0.896
			c2.799,0,5.198-0.396,6.297-0.896c0.396-0.199,0.701-0.396,0.701-0.699v-1.101C25.868,1069.484,24.169,1068.984,21.77,1068.683z
			 M20.471,1068.582c-0.5,0-1.1,0-1.699,0c-0.602,0-1.2,0-1.7,0h-0.2v-0.898c0-0.396,0.1-0.799,0.1-0.799h3.299
			c0.101,0,0.101,0.299,0.101,0.799v0.898H20.471z"/>
	</g>
</g>
<g id="Shape_5_1_">
	<g>
		<path style="fill:#8D8F8E;" d="M23.195,1105.784H20.26v-5.873h-3.454v5.873h-2.85l4.663,6.307L23.195,1105.784z M28.119,1113.73
			h-19v1.729h19V1113.73z"/>
	</g>
</g>
<g id="Shape_3_1_">
	<g>
		<path style="fill:#8D8F8E;" d="M24.121,1139.116H20.62v-2.896c-1.399,0-2.801,0-4.2,0v2.896h-3.501l5.601,7.701L24.121,1139.116z
			 M20.62,1129.916h-4.2v4.301c1.399,0,2.801,0,4.2,0V1129.916z M27.119,1147.82h-17v2.101h17V1147.82z"/>
	</g>
</g>
<g id="Shape_5_3_">
	<g>
		<path style="fill:#FFFFFF;" d="M23.195,3463.785H20.26v-5.873h-3.454v5.873h-2.85l4.663,6.307L23.195,3463.785z M28.119,3471.73
			h-19v1.729h19V3471.73z"/>
	</g>
</g>
<g id="Shape_3_3_">
	<g>
		<path style="fill:#FFFFFF;" d="M24.121,3497.117H20.62v-2.896c-1.399,0-2.801,0-4.2,0v2.896h-3.501l5.601,7.699L24.121,3497.117z
			 M20.62,3487.917h-4.2v4.301c1.399,0,2.801,0,4.2,0V3487.917z M27.119,3505.822h-17v2.102h17V3505.822z"/>
	</g>
</g>
<g id="Shape_4_1_">
	<g>
		<path style="fill:#8D8F8E;" d="M15.06,1183.058h7.5v-0.695c-1.201-2.9-3.306-4.896-3.306-4.896h-0.9c0,0-2.3,2.301-3.299,4.896
			L15.06,1183.058L15.06,1183.058z M25.26,1168.859h1.1v-2.104h-15v2.104h1.101v1.104c0,1.697,3.1,6.396,3.2,6.697
			c-0.1,0.301-3.2,5-3.2,6.699v1.101H11.36v2.302h15v-2.102h-1.1v-1.104c0-1.696-3.101-6.396-3.3-6.696c0.199-0.397,3.3-5,3.3-6.698
			V1168.859L25.26,1168.859z M24.158,1169.957c0,1.199-3.301,6.102-3.301,6.699c0,0.604,3.301,5.498,3.301,6.693v1.104H13.46v-1.104
			c0-1.195,3.299-6.098,3.299-6.693c0-0.604-3.299-5.5-3.299-6.699v-1.104h10.698V1169.957z"/>
	</g>
</g>
<g id="Shape_1_1_">
	<g>
		<path style="fill:#8D8F8E;" d="M24.969,1210.883c0-0.104-0.1-0.201-0.1-0.201c-0.6,0.604-3.1,0.701-5.999,0.701
			c-2.899,0-5.397-0.104-5.998-0.701c-0.1,0.104-0.1,0.201-0.1,0.201l0,0l0,0l0,0l0,0l0.5,9.797l0,0
			c0,0.799,0.899,1.896,5.699,1.896c4.798,0,5.597-1.198,5.698-1.896l0,0L24.969,1210.883L24.969,1210.883L24.969,1210.883
			L24.969,1210.883L24.969,1210.883z M21.77,1205.683v-2.299c0-0.396-0.299-0.802-0.799-0.802h-4.599c-0.4,0-0.8,0.302-0.8,0.802
			v2.299c-2.299,0.305-3.799,0.805-3.799,1.399v1.101c0,0.199,0.2,0.5,0.7,0.699c1.1,0.5,3.499,0.896,6.298,0.896
			c2.799,0,5.198-0.396,6.297-0.896c0.396-0.199,0.701-0.396,0.701-0.699v-1.101C25.868,1206.484,24.169,1205.984,21.77,1205.683z
			 M20.471,1205.582c-0.5,0-1.1,0-1.699,0c-0.602,0-1.2,0-1.7,0h-0.2v-0.898c0-0.396,0.1-0.799,0.1-0.799h3.299
			c0.101,0,0.101,0.299,0.101,0.799v0.898H20.471z"/>
	</g>
</g>
<g id="Shape_4_3_">
	<g>
		<path style="fill:#FFFFFF;" d="M15.06,3544.058h7.5v-0.697c-1.201-2.898-3.306-4.896-3.306-4.896h-0.9c0,0-2.3,2.305-3.299,4.896
			L15.06,3544.058L15.06,3544.058z M25.26,3529.861h1.1v-2.104h-15v2.104h1.101v1.102c0,1.699,3.1,6.398,3.2,6.699
			c-0.1,0.299-3.2,5-3.2,6.699v1.1H11.36v2.303h15v-2.102h-1.1v-1.105c0-1.693-3.101-6.395-3.3-6.693c0.199-0.4,3.3-5,3.3-6.701
			V3529.861L25.26,3529.861z M24.158,3530.958c0,1.199-3.301,6.102-3.301,6.699c0,0.604,3.301,5.498,3.301,6.693v1.104H13.46v-1.104
			c0-1.195,3.299-6.098,3.299-6.693c0-0.605-3.299-5.5-3.299-6.699v-1.105h10.698V3530.958z"/>
	</g>
</g>
<g id="Shape_1_2_">
	<g>
		<path style="fill:#FFFFFF;" d="M24.969,3571.882c0-0.104-0.1-0.201-0.1-0.201c-0.6,0.605-3.1,0.701-5.999,0.701
			c-2.899,0-5.397-0.104-5.998-0.701c-0.1,0.105-0.1,0.201-0.1,0.201l0,0l0,0l0,0l0,0l0.5,9.797l0,0
			c0,0.801,0.899,1.896,5.699,1.896c4.798,0,5.597-1.197,5.698-1.896l0,0L24.969,3571.882L24.969,3571.882L24.969,3571.882
			L24.969,3571.882L24.969,3571.882z M21.77,3566.683v-2.301c0-0.396-0.299-0.801-0.799-0.801h-4.599c-0.4,0-0.8,0.301-0.8,0.801
			v2.301c-2.299,0.303-3.799,0.803-3.799,1.398v1.102c0,0.197,0.2,0.5,0.7,0.697c1.1,0.5,3.499,0.896,6.298,0.896
			c2.799,0,5.198-0.396,6.297-0.896c0.396-0.197,0.701-0.395,0.701-0.697v-1.102C25.868,3567.486,24.169,3566.986,21.77,3566.683z
			 M20.471,3566.583c-0.5,0-1.1,0-1.699,0c-0.602,0-1.2,0-1.7,0h-0.2v-0.898c0-0.395,0.1-0.799,0.1-0.799h3.299
			c0.101,0,0.101,0.299,0.101,0.799v0.898H20.471z"/>
	</g>
</g>
<g id="Globe_copy_1_">
	<g>
		<path style="fill:#31A1B4;" d="M19.921,1241.786c-3.87,0-6.999,3.132-6.999,7c0,3.871,3.129,7,6.999,7s7.001-3.129,7.001-7
			C26.922,1244.916,24.039,1241.786,19.921,1241.786z M22.721,1243.929c0,0,0.082-0.33,0.166-0.657
			c0.081-0.082,0.575,0.245,0.987,0.739c-0.247,1.071-0.906,0.987-0.906,0.987s-0.575,0-0.493-0.411L22.721,1243.929z
			 M21.238,1244.588c0.082-0.164,0.246-0.164,0.412-0.246c0.164-0.082,0,0.246,0,0.494c0,0.162-0.084,0.244,0.164,0.492
			c0.246,0.246-0.412,0.082-0.576-0.082C20.991,1245.082,21.238,1244.588,21.238,1244.588z M18.439,1250.601
			c0,0.164-0.33,0.492-0.413,0.74c-0.164,0.245-0.164,0.329-0.329,0.493c-0.164,0.161-0.247,0.327-0.247,0.327v0.494
			c0,0,0.165,0.328,0.247,0.494c0.083,0.161-0.164,0.982-0.164,0.982c-0.247-0.082-0.494-0.164-0.659-0.412
			c-0.083-0.243-0.248-0.243-0.165-0.488c0-0.248-0.412-0.66-0.494-0.742c-0.083-0.161-0.248-0.409-0.248-0.49
			c0-0.164-0.329-0.412-0.329-0.412s-0.659-0.246-0.742-0.41s-0.164-0.654-0.247-0.902c0-0.246,0.083-0.74,0.083-0.74
			s0.247-0.166,0.082-0.33c-0.165-0.162-0.165-0.574-0.165-0.574l-0.33-0.245c0,0-0.247-0.326-0.247-0.492c0-0.164,0-0.246,0-0.412
			c0-0.163-0.083-0.409-0.083-0.575c1.153-2.882,3.129-3.541,3.129-3.541l0.165,0.659c0,0-0.33,0.082-0.494,0
			c-0.165-0.084-0.247-0.084-0.247-0.084l-0.248,0.33c0,0-0.083,0.246-0.164,0.328c0,0.166,0.083,0.328,0.083,0.328
			s0.412,0,0.412-0.084c0-0.16-0.083-0.16-0.083-0.16l-0.083-0.248c0,0,0.247-0.164,1.071-0.082
			c0.741,0.082,0.494,0.574,0.741,0.738c0.329,0.162-0.247,0.573-0.412,0.821c-0.165,0.246-0.329-0.329-0.329-0.329
			s0.164-0.248-0.165-0.248c-0.329-0.082-0.412,0.329-0.247,0.329s0.165,0.164,0.165,0.33c0,0.164,0,0.328-0.165,0.657
			c-0.165,0.327-0.741,0.327-0.741,0.327s0.082,0.166,0.165,0.329c0.082,0.164,0,0.656,0,0.74c0,0.164-0.412-0.248-0.412-0.492
			c-0.083-0.33-0.247-0.166-0.412-0.166c-0.164,0-0.494,0.166-0.576,0c-0.083-0.164-0.659,0.328-0.741,0.41
			c-0.165,0.082-0.083,0.33,0.164,0.248c0.247-0.166,0.494,0,0.413,0.246c-0.083,0.245-0.33,0.082-0.248,0.245
			c0,0.163,0.248,0.329,0.329,0.493c0.083,0.246,0.659-0.082,0.824-0.163c0.164-0.084,0.741-0.166,0.741,0.082
			c0.083,0.245,0.741,0.491,0.988,0.491c0.246,0.084,0.658,0.084,0.905,0.33C18.851,1250.025,18.439,1250.436,18.439,1250.601z
			 M19.674,1243.354c0,0.329-0.576,0.739-0.494,0.905c0.084,0.164,0.084,1.066-0.411,0.657c-0.412-0.493-0.906-1.151-0.823-1.399
			c0-0.082,0-0.161,0-0.245c0.658-0.573,2.141-0.491,2.223-0.325C20.003,1243.107,19.757,1243.025,19.674,1243.354z
			 M20.415,1245.166c-0.083-0.166,0.246-0.248,0.246-0.248c0.413,0.082,0.248,0.411,0.248,0.493
			C20.827,1245.575,20.497,1245.327,20.415,1245.166z M25.355,1248.868c0,0,0.248,0.33,0.578,0.33
			c-0.248,2.638-2.395,4.28-2.395,4.28c-0.33-0.327-0.165-0.657-0.165-0.657l0.165-0.494l0.082-0.818c0,0-0.082-0.905-0.9-0.494
			c-0.906,0.246-0.494,0.33-1.4,0.412c-0.905,0.082-0.575-1.729-0.575-1.729c-0.084-0.738,0.082-0.576,0.082-1.15
			s1.896-0.246,1.896-0.246c1.233,0.822,1.398-0.164,1.398-0.164l0.906-0.327l0.082-0.409l-0.494-0.576l-0.74-0.33
			c0,0-0.33,0.246,0,0.74c0,0-0.084,0.575-0.413,0.409l-0.739-0.901c0,0-0.248,0.41-0.66,0.657c-0.412,0.244-1.147,0-1.147,0
			s-0.247-0.739,0.247-0.905h0.652c0,0-0.164-0.328-0.08-0.657c0.08-0.327,0.246-0.082,0.574-0.327
			c0.33-0.248,0.578,0.49,1.071,0.411c0.494-0.084,0.247-0.166,0.576-0.329c0.33-0.164,0.577,0.329,0.577,0.329l0.658,0.082
			c0,0-0.412-1.15-0.576-1.313c0,0,0,0-0.082,0c0,0,0,0,0.082,0c0.412,0.082,1.729,2.39,1.318,3.701
			c-0.166-0.082-0.248-0.082-0.248-0.082h-0.824L25.355,1248.868z"/>
	</g>
</g>
<g id="Globe_copy_2_">
	<g>
		<path style="fill:#C2C2C2;" d="M19.921,1271.786c-3.87,0-6.999,3.132-6.999,7c0,3.871,3.129,7,6.999,7s7.001-3.129,7.001-7
			C26.922,1274.916,24.039,1271.786,19.921,1271.786z M22.721,1273.929c0,0,0.082-0.33,0.166-0.657
			c0.081-0.082,0.575,0.245,0.987,0.739c-0.247,1.071-0.906,0.987-0.906,0.987s-0.575,0-0.493-0.411L22.721,1273.929z
			 M21.238,1274.588c0.082-0.164,0.246-0.164,0.412-0.246c0.164-0.082,0,0.246,0,0.494c0,0.162-0.084,0.248,0.164,0.492
			c0.246,0.246-0.412,0.082-0.576-0.082C20.991,1275.082,21.238,1274.588,21.238,1274.588z M18.439,1280.601
			c0,0.164-0.33,0.492-0.413,0.74c-0.164,0.245-0.164,0.329-0.329,0.493c-0.164,0.161-0.247,0.327-0.247,0.327v0.494
			c0,0,0.165,0.328,0.247,0.494c0.083,0.161-0.164,0.982-0.164,0.982c-0.247-0.082-0.494-0.164-0.659-0.412
			c-0.083-0.243-0.248-0.243-0.165-0.488c0-0.248-0.412-0.658-0.494-0.742c-0.083-0.161-0.248-0.409-0.248-0.49
			c0-0.164-0.329-0.412-0.329-0.412s-0.659-0.246-0.742-0.41s-0.164-0.654-0.247-0.902c0-0.246,0.083-0.74,0.083-0.74
			s0.247-0.166,0.082-0.33c-0.165-0.162-0.165-0.574-0.165-0.574l-0.33-0.245c0,0-0.247-0.326-0.247-0.492c0-0.164,0-0.246,0-0.41
			c0-0.166-0.083-0.411-0.083-0.577c1.153-2.882,3.129-3.541,3.129-3.541l0.165,0.659c0,0-0.33,0.082-0.494,0
			c-0.165-0.084-0.247-0.084-0.247-0.084l-0.248,0.33c0,0-0.083,0.248-0.164,0.328c0,0.164,0.083,0.328,0.083,0.328
			s0.412,0,0.412-0.082c0-0.166-0.083-0.166-0.083-0.166l-0.083-0.244c0,0,0.247-0.166,1.07-0.084
			c0.741,0.084,0.494,0.576,0.741,0.738c0.33,0.163-0.247,0.575-0.412,0.823c-0.164,0.246-0.329-0.33-0.329-0.33
			s0.165-0.245-0.164-0.245c-0.329-0.084-0.412,0.327-0.247,0.327s0.165,0.166,0.165,0.33s0,0.328-0.165,0.658
			c-0.164,0.328-0.741,0.328-0.741,0.328s0.082,0.163,0.164,0.327c0.083,0.166,0,0.66,0,0.74c0,0.162-0.412-0.248-0.412-0.492
			c-0.083-0.33-0.247-0.164-0.412-0.164c-0.165,0-0.494,0.164-0.576,0c-0.083-0.166-0.659,0.328-0.742,0.41
			c-0.164,0.084-0.083,0.328,0.165,0.248c0.247-0.164,0.494,0,0.412,0.244c-0.083,0.246-0.329,0.082-0.247,0.246
			c0,0.163,0.247,0.329,0.329,0.493c0.083,0.246,0.659-0.082,0.823-0.163c0.165-0.082,0.741-0.164,0.741,0.082
			c0.083,0.245,0.742,0.493,0.988,0.493c0.247,0.082,0.659,0.082,0.905,0.328C18.851,1280.025,18.439,1280.436,18.439,1280.601z
			 M19.674,1273.354c0,0.329-0.576,0.739-0.494,0.905c0.084,0.164,0.084,1.066-0.411,0.657c-0.412-0.493-0.906-1.151-0.823-1.399
			c0-0.082,0-0.161,0-0.245c0.658-0.573,2.141-0.491,2.223-0.325C20.003,1273.107,19.757,1273.025,19.674,1273.354z
			 M20.415,1275.166c-0.083-0.166,0.246-0.248,0.246-0.248c0.413,0.082,0.248,0.411,0.248,0.493
			C20.827,1275.575,20.497,1275.327,20.415,1275.166z M25.355,1278.868c0,0,0.248,0.33,0.578,0.33
			c-0.248,2.638-2.395,4.28-2.395,4.28c-0.33-0.327-0.165-0.657-0.165-0.657l0.165-0.494l0.082-0.818c0,0-0.082-0.905-0.9-0.494
			c-0.906,0.246-0.494,0.33-1.4,0.412c-0.905,0.082-0.575-1.729-0.575-1.729c-0.084-0.738,0.082-0.576,0.082-1.15
			s1.896-0.246,1.896-0.246c1.233,0.822,1.398-0.164,1.398-0.164l0.906-0.327l0.082-0.409l-0.494-0.576l-0.74-0.33
			c0,0-0.33,0.246,0,0.74c0,0-0.084,0.575-0.413,0.409l-0.739-0.901c0,0-0.248,0.41-0.66,0.657c-0.412,0.244-1.147,0-1.147,0
			s-0.247-0.739,0.247-0.905h0.652c0,0-0.164-0.328-0.08-0.657c0.08-0.327,0.246-0.082,0.574-0.327
			c0.33-0.248,0.578,0.49,1.071,0.411c0.494-0.084,0.247-0.166,0.576-0.329c0.33-0.164,0.577,0.329,0.577,0.329l0.658,0.082
			c0,0-0.412-1.15-0.576-1.313c0,0,0,0-0.082,0c0,0,0,0,0.082,0c0.412,0.082,1.729,2.39,1.318,3.701
			c-0.166-0.082-0.248-0.082-0.248-0.082h-0.824L25.355,1278.868z"/>
	</g>
</g>
<g id="link-icon_copy_4_1_">
	<g>
		<path style="fill:#E9A146;" d="M26.09,1307.099L26.09,1307.099c-0.785-0.784-1.746-1.221-2.793-1.221
			c-1.049,0-2.008,0.438-2.794,1.221c0,0-2.444,2.619-2.619,2.796c-0.785,0.784-1.135,1.834-1.135,2.972
			c0,1.135,0.437,2.184,1.135,2.967l0.35,0.354c0.088,0.09,0.174,0.176,0.35,0.176c0.174,0,0.261-0.089,0.349-0.176l0.611-0.697
			c0.175-0.174,0.175-0.438,0-0.696l-0.351-0.351c-0.875-0.873-0.875-2.356,0-3.229l2.619-2.796
			c0.437-0.438,0.961-0.696,1.566-0.696c0.611,0,1.141,0.268,1.57,0.696l0,0c0.871,0.873,0.871,2.355,0,3.314l-0.18,0.177
			c0.18,0.606,0.354,1.225,0.354,1.921c0,0.09,0,0.265,0,0.353l1.049-1.137C27.574,1311.465,27.574,1308.845,26.09,1307.099z
			 M22.248,1310.592c-0.087-0.087-0.174-0.176-0.35-0.176c-0.086,0-0.262,0.09-0.354,0.176l-0.521,0.697
			c-0.174,0.175-0.174,0.438,0,0.697l0.352,0.351c0.872,0.873,0.872,2.354,0,3.229l-2.618,2.793
			c-0.437,0.438-0.961,0.694-1.572,0.694c-0.61,0-1.135-0.263-1.571-0.694l0,0c-0.873-0.87-0.873-2.354,0-3.314l0.175-0.175
			c-0.175-0.609-0.35-1.226-0.35-1.922c0-0.089,0-0.263,0-0.354l-1.047,1.138c-1.571,1.655-1.571,4.274,0,5.938l0,0
			c0.786,0.784,1.746,1.221,2.793,1.221s2.006-0.438,2.793-1.221c0,0,2.438-2.619,2.617-2.796c0.694-0.784,1.135-1.834,1.135-2.97
			c0-1.138-0.438-2.188-1.135-2.972L22.248,1310.592z"/>
	</g>
</g>
<g id="link-icon_copy_4_2_">
	<g>
		<path style="fill:#C2C2C2;" d="M26.09,1340.099L26.09,1340.099c-0.785-0.784-1.746-1.221-2.793-1.221
			c-1.049,0-2.008,0.438-2.794,1.221c0,0-2.444,2.619-2.619,2.796c-0.785,0.784-1.135,1.834-1.135,2.972
			c0,1.135,0.437,2.184,1.135,2.967l0.35,0.354c0.088,0.09,0.174,0.176,0.35,0.176c0.174,0,0.261-0.089,0.349-0.176l0.611-0.697
			c0.175-0.174,0.175-0.438,0-0.696l-0.351-0.351c-0.875-0.873-0.875-2.356,0-3.229l2.619-2.796
			c0.437-0.438,0.961-0.696,1.566-0.696c0.611,0,1.141,0.263,1.57,0.696l0,0c0.871,0.873,0.871,2.355,0,3.314l-0.18,0.177
			c0.18,0.606,0.354,1.225,0.354,1.921c0,0.088,0,0.265,0,0.353l1.049-1.137C27.574,1344.465,27.574,1341.845,26.09,1340.099z
			 M22.248,1343.592c-0.087-0.087-0.174-0.176-0.35-0.176c-0.086,0-0.262,0.09-0.354,0.176l-0.521,0.697
			c-0.174,0.175-0.174,0.438,0,0.697l0.352,0.351c0.872,0.873,0.872,2.354,0,3.229l-2.618,2.793
			c-0.437,0.438-0.961,0.694-1.572,0.694c-0.61,0-1.135-0.263-1.571-0.694l0,0c-0.873-0.87-0.873-2.354,0-3.314l0.175-0.175
			c-0.175-0.609-0.35-1.226-0.35-1.922c0-0.089,0-0.263,0-0.354l-1.047,1.138c-1.571,1.655-1.571,4.274,0,5.938l0,0
			c0.786,0.782,1.746,1.221,2.793,1.221s2.006-0.438,2.793-1.221c0,0,2.438-2.619,2.617-2.796c0.694-0.784,1.135-1.834,1.135-2.97
			c0-1.138-0.438-2.188-1.135-2.972L22.248,1343.592z"/>
	</g>
</g>
<g>
	<path style="fill:#28B195;" d="M23.875,1384.879v-5.85c0-1.857-1.596-3.453-3.454-3.453c-1.948,0-3.454,1.506-3.454,3.453v5.85
		c0,1.855,1.594,3.451,3.454,3.451C22.369,1388.332,23.875,1386.825,23.875,1384.879z"/>
	<path style="fill:#28B195;" d="M26.62,1385.232v-2.834c0.354-0.27,0.798-0.619,0.798-0.979c0-0.529-0.798-1.063-0.798-1.063h-1.239
		v4.777c0,2.656-2.215,4.871-4.96,4.871s-4.96-2.215-4.96-4.871v-4.689h-1.239c0,0-0.885,0.438-0.797,1.063
		c0,0.354,0.443,0.709,0.797,0.979v2.834c0,2.834,2.037,5.313,4.694,5.938v2.125h-1.151v1.328h1.151h2.923h1.152v-1.328h-1.063
		v-2.125C24.583,1390.547,26.62,1388.156,26.62,1385.232z"/>
</g>
<g>
	<path style="fill:#C2C2C2;" d="M23.875,1421.879v-5.85c0-1.857-1.596-3.453-3.454-3.453c-1.948,0-3.454,1.506-3.454,3.453v5.85
		c0,1.855,1.594,3.451,3.454,3.451C22.369,1425.332,23.875,1423.825,23.875,1421.879z"/>
	<path style="fill:#C2C2C2;" d="M26.62,1422.232v-2.834c0.354-0.27,0.798-0.619,0.798-0.979c0-0.529-0.798-1.063-0.798-1.063h-1.239
		v4.777c0,2.656-2.215,4.871-4.96,4.871s-4.96-2.215-4.96-4.871v-4.689h-1.239c0,0-0.885,0.438-0.797,1.063
		c0,0.354,0.443,0.709,0.797,0.979v2.836c0,2.834,2.037,5.313,4.694,5.936v2.127h-1.151v1.328h1.151h2.923h1.152v-1.328h-1.063
		v-2.127C24.583,1427.547,26.62,1425.156,26.62,1422.232z"/>
</g>
<g>
	<g>
		<path style="fill:#D0BE26;" d="M15.186,1470.219l2.265-0.207l-3.295-3.088l-0.343,1.922l-0.068-0.064l-0.206,1.577h-0.274v1.099
			h8.784v-1.099h-7.824L15.186,1470.219z M17.52,1469.806l1.029-0.618l-3.363-3.358l0,0l0,0l-0.824,1.029l0,0l0,0L17.52,1469.806z
			 M27.266,1460.267l-3.295-3.295l-8.715,8.785l3.294,3.293L27.266,1460.267z"/>
	</g>
</g>
<g>
	<g>
		<path style="fill:#C2C2C2;" d="M15.186,1509.219l2.265-0.207l-3.295-3.088l-0.343,1.922l-0.068-0.064l-0.206,1.577h-0.274v1.101
			h8.784v-1.101h-7.824L15.186,1509.219z M17.52,1508.806l1.029-0.618l-3.363-3.358l0,0l0,0l-0.824,1.029l0,0l0,0L17.52,1508.806z
			 M27.266,1499.267l-3.295-3.295l-8.715,8.785l3.294,3.295L27.266,1499.267z"/>
	</g>
</g>
<g>
	<g>
		<path style="fill:#363C49;" d="M15.834,1544.893h0.759v-0.759h-0.759V1544.893L15.834,1544.893z M23.594,1531.484h-10.88v19.146
			h14v-15.938L23.594,1531.484z M25.534,1549.363H13.98v-16.614h8.264v2.53h3.205v14.084H25.534L25.534,1549.363z M15.834,1541.857
			h0.759v-0.764h-0.759V1541.857L15.834,1541.857z M15.834,1539.157h0.759v-0.763h-0.759V1539.157L15.834,1539.157z
			 M17.184,1541.688h6.409v-0.675h-6.409V1541.688z M17.184,1539.157h6.409v-0.677h-6.409V1539.157z M17.184,1544.893h6.409v-0.675
			h-6.409V1544.893z"/>
	</g>
</g>
<g>
	<g>
		<path style="fill:#C2C2C2;" d="M15.834,1579.893h0.759v-0.759h-0.759V1579.893L15.834,1579.893z M23.596,1566.484H12.714v19.146
			h14v-15.938L23.596,1566.484z M25.533,1584.363H13.979v-16.612h8.265v2.528h3.205v14.084H25.533L25.533,1584.363z
			 M15.834,1576.857h0.759v-0.764h-0.759V1576.857L15.834,1576.857z M15.834,1574.157h0.759v-0.763h-0.759V1574.157L15.834,1574.157
			z M17.183,1576.689h6.41v-0.68h-6.41V1576.689z M17.183,1574.157h6.41v-0.677h-6.41V1574.157z M17.183,1579.893h6.41v-0.675h-6.41
			V1579.893z"/>
	</g>
</g>
<g>
	<rect x="2.279" y="1613.273" style="fill:#F8F7F7;stroke:#CAC9C9;stroke-miterlimit:10;" width="31" height="31"/>
	<path style="fill:#5A5A5B;" d="M24.173,1629.234c-0.308,0-0.614,0.308-0.614,0.609c0,3.688-2.967,6.646-6.646,6.646
		c-3.684,0-6.65-2.969-6.65-6.646c0-3.479,2.661-6.236,6.037-6.646v1.436c0,0.205,0.103,0.407,0.306,0.512
		c0.103,0.104,0.205,0.104,0.308,0.104s0.205,0,0.307-0.104l3.683-2.146c0.203-0.104,0.309-0.312,0.309-0.515
		s-0.104-0.406-0.309-0.516l-3.683-2.146c-0.204-0.104-0.409-0.104-0.614,0c-0.204,0.104-0.306,0.309-0.306,0.514v1.533
		c-4.093,0.309-7.265,3.783-7.265,7.877c0,4.396,3.581,7.881,7.878,7.881c4.396,0,7.878-3.582,7.878-7.881
		C24.785,1629.541,24.582,1629.234,24.173,1629.234z"/>
</g>
<g>
	<rect x="2.277" y="1662.008" style="fill:#F8F7F7;stroke:#CAC9C9;stroke-miterlimit:10;" width="31" height="30.998"/>
	<g id="Ellipse_2_3_">
		<g>
			<circle style="fill:#5A5A5B;" cx="17.829" cy="1677.353" r="10.742"/>
		</g>
	</g>
	<g id="check_1_">
		<polygon style="fill:#FFFFFF;" points="15.374,1680.32 12.1,1677.047 11.076,1678.172 15.374,1682.469 24.581,1673.261 
			23.456,1672.136 		"/>
	</g>
</g>
<g>
	<rect x="2.229" y="1711.273" style="fill:#F8F7F7;stroke:#CAC9C9;stroke-miterlimit:10;" width="31" height="31"/>
	<g id="Ellipse_2_2_">
		<g>
			<circle style="fill:#5A5A5B;" cx="17.779" cy="1726.62" r="10.743"/>
		</g>
	</g>
	<g>
		<path style="fill:#FFFFFF;" d="M23.508,1726.006c0.309-0.312,0.409-0.719,0.409-1.229c0-0.407-0.103-0.813-0.409-1.125
			c-0.306-0.312-0.611-0.407-1.125-0.407h-2.25c0-0.104,0-0.104,0.102-0.203c0-0.104,0-0.104,0.104-0.203
			c0-0.104,0.104-0.104,0.104-0.104c0.103-0.202,0.205-0.312,0.205-0.407c0-0.104,0.102-0.313,0.102-0.516
			c0-0.201,0.104-0.406,0.104-0.611c0-0.104,0-0.203,0-0.309c0-0.104,0-0.201,0-0.406s-0.104-0.313-0.104-0.408
			c0-0.104-0.102-0.205-0.204-0.41c-0.103-0.104-0.204-0.203-0.308-0.307c-0.104-0.104-0.307-0.104-0.51-0.205
			c-0.205-0.104-0.41-0.104-0.615-0.104c-0.104,0-0.307,0-0.409,0.104c-0.102,0.104-0.204,0.205-0.306,0.41
			c-0.103,0.201-0.103,0.307-0.204,0.406c0,0.104-0.103,0.309-0.103,0.514s-0.103,0.406-0.103,0.512c0,0.104-0.103,0.205-0.103,0.41
			c-0.104,0.202-0.104,0.309-0.205,0.406c-0.204,0.205-0.409,0.514-0.818,0.924c-0.307,0.307-0.512,0.611-0.818,0.92
			c-0.307,0.311-0.512,0.512-0.613,0.512c-0.103,0-0.205,0.104-0.307,0.205c-0.103,0.104-0.103,0.205-0.103,0.309v5.113
			c0,0.104,0,0.311,0.103,0.311c0.102,0.104,0.205,0.104,0.409,0.204c0.204,0,0.613,0.104,1.228,0.312
			c0.41,0.104,0.716,0.203,0.921,0.309c0.205,0.104,0.512,0.104,1.022,0.204c0.409,0.104,0.819,0.104,1.126,0.104h0.104h0.612h0.308
			c0.717,0,1.229-0.201,1.533-0.609c0.309-0.41,0.409-0.815,0.409-1.436c0.205-0.205,0.308-0.407,0.41-0.719
			c0.103-0.309,0.103-0.611,0-0.921c0.204-0.31,0.407-0.718,0.306-1.127C23.609,1726.416,23.609,1726.209,23.508,1726.006z"/>
		<path style="fill:#FFFFFF;" d="M13.994,1724.268h-2.353c-0.103,0-0.307,0-0.41,0.104c-0.103,0.104-0.103,0.203-0.103,0.408v5.112
			c0,0.104,0,0.31,0.103,0.407c0.103,0.104,0.205,0.104,0.41,0.104h2.353c0.102,0,0.306,0,0.409-0.104
			c0.103-0.104,0.103-0.202,0.103-0.407v-5.112c0-0.104,0-0.31-0.103-0.408C14.198,1724.268,14.096,1724.268,13.994,1724.268z
			 M13.073,1729.281c-0.103,0.104-0.205,0.104-0.409,0.104c-0.103,0-0.307,0-0.409-0.104c-0.103-0.104-0.103-0.205-0.103-0.41
			c0-0.104,0-0.307,0.103-0.404c0.102-0.104,0.204-0.104,0.409-0.104c0.103,0,0.307,0,0.409,0.104
			c0.103,0.104,0.103,0.2,0.103,0.404S13.175,1729.177,13.073,1729.281z"/>
	</g>
</g>
<g>
	<rect x="2.781" y="1763.959" style="fill:#F8F7F7;stroke:#CAC9C9;stroke-miterlimit:10;" width="31" height="31"/>
	<path style="fill:#CCCACA;" d="M24.675,1780.329c-0.306,0-0.612,0.309-0.612,0.61c0,3.688-2.967,6.647-6.646,6.647
		c-3.683,0-6.649-2.971-6.649-6.647c0-3.479,2.66-6.237,6.036-6.646v1.436c0,0.205,0.103,0.407,0.307,0.515
		c0.103,0.104,0.205,0.104,0.307,0.104s0.205,0,0.307-0.104l3.679-2.146c0.203-0.104,0.312-0.31,0.312-0.513
		c0-0.202-0.104-0.407-0.312-0.514l-3.679-2.146c-0.205-0.104-0.409-0.104-0.614,0c-0.204,0.104-0.307,0.313-0.307,0.516v1.531
		c-4.093,0.31-7.264,3.784-7.264,7.879c0,4.396,3.581,7.877,7.877,7.877c4.396,0,7.877-3.582,7.877-7.877
		C25.289,1780.636,25.085,1780.329,24.675,1780.329z"/>
</g>
<g>
	<rect x="2.48" y="1817.325" style="fill:#F8F7F7;stroke:#CAC9C9;stroke-miterlimit:10;" width="31" height="31"/>
	<g id="Ellipse_2_copy_3_">
		<g>
			<circle style="fill:#CCCACA;" cx="18.031" cy="1832.878" r="10.742"/>
		</g>
	</g>
	<g id="check">
		<polygon style="fill:#FFFFFF;" points="15.575,1836.357 12.302,1833.082 11.279,1834.207 15.575,1838.506 24.784,1829.299 
			23.657,1828.172 		"/>
	</g>
</g>
<g>
	<rect x="2.229" y="1870.325" style="fill:#F8F7F7;stroke:#CAC9C9;stroke-miterlimit:10;" width="31" height="31"/>
	<g id="Ellipse_2_copy_2_">
		<g>
			<circle style="fill:#CCCACA;" cx="17.779" cy="1885.878" r="10.742"/>
		</g>
	</g>
	<g>
		<path style="fill:#FFFFFF;" d="M23.508,1885.265c0.309-0.308,0.409-0.717,0.409-1.229c0-0.406-0.103-0.816-0.409-1.127
			c-0.306-0.308-0.611-0.404-1.125-0.404h-2.25c0-0.104,0-0.104,0.102-0.205c0-0.104,0-0.104,0.104-0.205
			c0-0.104,0.104-0.104,0.104-0.104c0.103-0.204,0.205-0.308,0.205-0.407c0-0.104,0.102-0.31,0.102-0.515s0.104-0.405,0.104-0.61
			c0-0.104,0-0.203,0-0.31c0-0.104,0-0.205,0-0.407c0-0.203-0.104-0.313-0.104-0.406c0-0.104-0.102-0.205-0.204-0.41
			c-0.103-0.104-0.204-0.202-0.308-0.311c-0.104-0.104-0.307-0.104-0.51-0.201c-0.205-0.104-0.41-0.104-0.615-0.104
			c-0.104,0-0.307,0-0.409,0.104c-0.102,0.104-0.204,0.201-0.306,0.406c-0.103,0.205-0.103,0.311-0.204,0.404
			c0,0.104-0.103,0.313-0.103,0.518c0,0.202-0.103,0.406-0.103,0.514c0,0.104-0.103,0.205-0.103,0.406
			c-0.104,0.205-0.104,0.311-0.205,0.409c-0.204,0.203-0.409,0.515-0.818,0.92c-0.307,0.31-0.512,0.613-0.818,0.925
			c-0.307,0.307-0.512,0.512-0.613,0.512c-0.103,0-0.205,0.104-0.307,0.205c-0.103,0.104-0.103,0.203-0.103,0.31v5.11
			c0,0.104,0,0.313,0.103,0.313c0.102,0.104,0.205,0.104,0.409,0.205c0.204,0,0.613,0.104,1.228,0.306
			c0.41,0.104,0.716,0.204,0.921,0.309c0.204,0.104,0.512,0.104,1.022,0.204c0.409,0.104,0.819,0.104,1.126,0.104h0.104h0.612h0.308
			c0.717,0,1.229-0.205,1.533-0.61c0.309-0.407,0.409-0.815,0.409-1.435c0.205-0.205,0.308-0.407,0.41-0.72
			c0.103-0.309,0.103-0.61,0-0.922c0.204-0.308,0.407-0.715,0.306-1.125C23.609,1885.777,23.609,1885.572,23.508,1885.265z"/>
		<path style="fill:#FFFFFF;" d="M13.994,1883.629h-2.353c-0.103,0-0.307,0-0.41,0.104c-0.103,0.104-0.103,0.204-0.103,0.406v5.115
			c0,0.104,0,0.31,0.103,0.404c0.103,0.104,0.205,0.104,0.41,0.104h2.353c0.102,0,0.306,0,0.409-0.104
			c0.103-0.104,0.103-0.201,0.103-0.404v-5.115c0-0.104,0-0.309-0.103-0.406C14.198,1883.629,14.096,1883.629,13.994,1883.629z
			 M13.073,1888.538c-0.103,0.104-0.205,0.104-0.409,0.104c-0.103,0-0.307,0-0.409-0.104c-0.103-0.104-0.103-0.204-0.103-0.409
			c0-0.104,0-0.311,0.103-0.407c0.102-0.104,0.204-0.104,0.409-0.104c0.103,0,0.307,0,0.409,0.104
			c0.103,0.104,0.103,0.203,0.103,0.407C13.175,1888.332,13.175,1888.438,13.073,1888.538z"/>
	</g>
</g>
<path style="fill:#2FA0DA;" d="M19.585,1976.069v5.066l8.038-7.75l-8.038-7.465v4.498c-9.761-0.098-11.962,11.193-11.962,11.193
	C10.399,1976.543,14.322,1976.069,19.585,1976.069z"/>
<g>
	<g>
		<path style="fill:#2FA0DA;" d="M11.515,2019.25l4.341,4.021l9.423-8.896l-4.342-4.021L11.515,2019.25z M9.397,2025.283l6.035-1.59
			l-4.341-4.021L9.397,2025.283z M27.079,2011.201l-2.647-2.543c-0.424-0.424-1.164-0.424-1.693,0l-1.271,1.166l4.343,4.02
			l1.271-1.164C27.503,2012.259,27.503,2011.625,27.079,2011.201z"/>
	</g>
</g>
<path style="fill:#2FA0DA;" d="M16.141,1943.659v-8.787L8.622,1924.6h18l-7.517,10.271v7.307L16.141,1943.659z"/>
<path style="fill:#C2C2C2;" d="M18.585,2107.958v5.07l8.038-7.75l-8.038-7.469v4.498c-9.761-0.096-11.962,11.195-11.962,11.195
	C9.398,2108.437,13.322,2107.958,18.585,2107.958z"/>
<g>
	<g>
		<path style="fill:#C2C2C2;" d="M9.515,2150.138l4.341,4.021l9.423-8.896l-4.342-4.02L9.515,2150.138z M7.397,2156.175l6.035-1.588
			l-4.341-4.02L7.397,2156.175z M25.079,2142.093l-2.647-2.543c-0.424-0.424-1.164-0.424-1.693,0l-1.271,1.166l4.343,4.021
			l1.271-1.164C25.503,2143.154,25.503,2142.517,25.079,2142.093z"/>
	</g>
</g>
<path style="fill:#C2C2C2;" d="M16.141,2075.552v-8.789l-7.519-10.27h18l-7.519,10.27v7.307L16.141,2075.552z"/>
<g id="Close_x2C__Cross_Inside_A_Circle_2_">
	<g>
		<path style="fill:#E83B60;" d="M26.621,2177.814c-4.605-4.605-12.016-4.707-16.722-0.199c-4.808,4.506-5.007,12.115-0.501,17.02
			c0.101,0.105,0.2,0.199,0.2,0.303c4.706,4.705,12.316,4.705,17.023,0C31.327,2190.128,31.327,2182.519,26.621,2177.814z
			 M24.018,2189.832l-2.404,2.402l-3.601-3.605l-3.605,3.605L12,2189.832l3.605-3.605L12,2182.619l2.404-2.4l3.605,3.605
			l3.604-3.605l2.404,2.4l-3.604,3.604L24.018,2189.832z"/>
	</g>
</g>
<g id="Check_Mark_White_On_Black_Circular_Background_2_">
	<g>
		<path style="fill:#70B544;" d="M18.078,2213.175c-6.6,0-12,5.398-12,12c0,6.604,5.4,12,12,12c6.6,0,12-5.396,12-12
			C30.078,2218.476,24.678,2213.175,18.078,2213.175z M16.377,2230.779l-5.7-5.699l2.3-2.301l3.4,3.396l6.801-6.801l2.299,2.299
			L16.377,2230.779z"/>
	</g>
</g>
<path style="fill:#70B344;" d="M14.711,2295.324c-0.456,0-0.888-0.209-1.166-0.566l-3.748-4.854
	c-0.488-0.633-0.361-1.529,0.283-2.012c0.644-0.48,1.561-0.354,2.049,0.277l2.466,3.189l6.201-9.766
	c0.427-0.674,1.328-0.877,2.015-0.459c0.688,0.418,0.896,1.305,0.469,1.979l-7.32,11.533c-0.254,0.396-0.693,0.648-1.175,0.676
	C14.756,2295.324,14.734,2295.324,14.711,2295.324z"/>
<path style="fill:#49B2E5;" d="M14.711,2320.324c-0.456,0-0.888-0.209-1.166-0.566l-3.748-4.854
	c-0.488-0.633-0.361-1.529,0.283-2.012c0.644-0.48,1.561-0.354,2.049,0.277l2.466,3.189l6.201-9.766
	c0.427-0.674,1.328-0.877,2.015-0.459c0.688,0.418,0.896,1.305,0.469,1.979l-7.32,11.533c-0.254,0.396-0.693,0.648-1.175,0.676
	C14.756,2320.324,14.734,2320.324,14.711,2320.324z"/>
<path d="M13.621,2342.632l-6.121-3.408v-1.889l6.121-3.391v2.219l-4.265,2.092l4.265,2.17V2342.632z"/>
<path d="M14.666,2344.035l4.058-11.07h1.283l-4.068,11.07H14.666z"/>
<path d="M21.38,2342.632v-2.207l4.265-2.148l-4.265-2.139v-2.188l6.12,3.396v1.877L21.38,2342.632z"/>
<g>
	<g id="Word_File_Symbol._Attribute_as_Icomoon_from_Flaticon.com_copy_2_9_">
		<g>
			<path style="fill:#2AA0DA;" d="M24.055,2395.867l-2.563-2.648c-0.529-0.617-1.678-1.063-2.473-1.063H10.45
				c-0.796,0-1.414,0.707-1.414,1.502v15.996c0,0.795,0.618,1.502,1.414,1.502h13.161c0.798,0,1.414-0.707,1.414-1.502v-11.225
				C25.116,2397.634,24.586,2396.488,24.055,2395.867z M20.521,2393.923c0.088,0.088,0.176,0.088,0.176,0.178l2.564,2.648
				c0.088,0.088,0.088,0.088,0.176,0.178h-2.916V2393.923L20.521,2393.923z M23.967,2409.654c0,0.178-0.09,0.268-0.266,0.268H10.627
				c-0.176,0-0.264-0.18-0.264-0.268v-15.994c0-0.176,0.088-0.27,0.264-0.27h8.568c0.091,0,0.178,0,0.266,0v4.688h4.506
				c0,0.086,0,0.176,0,0.27V2409.654L23.967,2409.654z"/>
		</g>
	</g>
	<rect x="11.688" y="2401.787" style="fill:#2AA0DA;" width="10.865" height="1.68"/>
	<rect x="11.688" y="2405.056" style="fill:#2AA0DA;" width="10.865" height="1.682"/>
</g>
<g>
	<g id="Word_File_Symbol._Attribute_as_Icomoon_from_Flaticon.com_copy_2_1_">
		<g>
			<path style="fill:#626363;" d="M25.018,2462.132l-2.563-2.646c-0.529-0.619-1.68-1.064-2.475-1.064h-8.567
				c-0.796,0-1.413,0.707-1.413,1.502v15.996c0,0.795,0.617,1.502,1.413,1.502h13.162c0.798,0,1.413-0.707,1.413-1.502v-11.227
				C26.079,2463.9,25.549,2462.75,25.018,2462.132z M21.484,2460.187c0.088,0.092,0.177,0.092,0.177,0.182l2.563,2.646
				c0.088,0.088,0.088,0.088,0.176,0.18h-2.916V2460.187L21.484,2460.187z M24.93,2475.917c0,0.178-0.09,0.266-0.264,0.266H11.59
				c-0.176,0-0.265-0.178-0.265-0.266v-15.996c0-0.178,0.088-0.268,0.265-0.268h8.569c0.091,0,0.177,0,0.265,0v4.688h4.506
				c0,0.088,0,0.176,0,0.268V2475.917L24.93,2475.917z"/>
		</g>
	</g>
	<rect x="12.65" y="2468.052" style="fill:#626363;" width="10.866" height="1.682"/>
	<rect x="12.65" y="2471.324" style="fill:#626363;" width="10.866" height="1.68"/>
</g>
<g>
	<g id="Word_File_Symbol._Attribute_as_Icomoon_from_Flaticon.com_copy_2_2_">
		<g>
			<path style="fill:#949494;" d="M25.055,2538.035l-2.563-2.648c-0.529-0.617-1.68-1.063-2.475-1.063H11.45
				c-0.796,0-1.414,0.707-1.414,1.502v15.996c0,0.795,0.618,1.502,1.414,1.502h13.161c0.798,0,1.414-0.707,1.414-1.502v-11.229
				C26.116,2539.802,25.586,2538.656,25.055,2538.035z M21.521,2536.091c0.088,0.09,0.176,0.09,0.176,0.178l2.564,2.648
				c0.088,0.088,0.088,0.088,0.176,0.178h-2.916V2536.091L21.521,2536.091z M24.967,2551.824c0,0.178-0.09,0.268-0.266,0.268H11.627
				c-0.176,0-0.264-0.18-0.264-0.268v-15.996c0-0.178,0.088-0.27,0.264-0.27h8.568c0.091,0,0.178,0,0.266,0v4.688h4.506
				c0,0.088,0,0.176,0,0.268V2551.824L24.967,2551.824z"/>
		</g>
	</g>
	<rect x="12.688" y="2543.957" style="fill:#949494;" width="10.865" height="1.682"/>
	<rect x="12.688" y="2547.226" style="fill:#949494;" width="10.865" height="1.684"/>
</g>
<g id="Excel_File_Extension._Attribute_as_Icomoon_from_Flaticon.com_copy_3_6_">
	<g>
		<path style="fill:#2DA0DA;" d="M25.961,2601.029l-2.578-2.535c-0.533-0.508-1.688-1.014-2.398-1.014h-8.623
			c-0.8,0-1.422,0.592-1.422,1.438v15.127c0,0.76,0.622,1.438,1.422,1.438h13.154c0.801,0,1.424-0.594,1.424-1.438v-10.646
			C26.938,2602.632,26.494,2601.533,25.961,2601.029z M22.404,2599.167c0.089,0.084,0.18,0.084,0.18,0.168l2.577,2.533
			c0.091,0.086,0.091,0.086,0.179,0.17h-2.936V2599.167L22.404,2599.167z M25.783,2614.041c0,0.17-0.092,0.254-0.268,0.254H12.36
			c-0.177,0-0.267-0.168-0.267-0.254v-15.127c0-0.168,0.09-0.252,0.267-0.252h8.623c0.088,0,0.181,0,0.271,0v4.479h4.533
			c0,0.084,0,0.168,0,0.254L25.783,2614.041L25.783,2614.041z M23.116,2604.24h-2.399l-1.688,2.449l-1.688-2.449h-2.488l2.934,4.229
			l-3.287,4.73h4.709v-1.605h-1.064l0.888-1.27l1.955,2.873h2.488l-3.289-4.73L23.116,2604.24z"/>
	</g>
</g>
<g id="Excel_File_Extension._Attribute_as_Icomoon_from_Flaticon.com_copy_3_1_">
	<g>
		<path style="fill:#626363;" d="M25.961,2665.724l-2.578-2.678c-0.533-0.533-1.688-1.068-2.398-1.068h-8.623
			c-0.8,0-1.422,0.625-1.422,1.52v15.971c0,0.805,0.622,1.521,1.422,1.521h13.154c0.801,0,1.424-0.625,1.424-1.521v-11.236
			C26.938,2667.417,26.494,2666.259,25.961,2665.724z M22.404,2663.761c0.089,0.09,0.18,0.09,0.18,0.18l2.577,2.68
			c0.091,0.088,0.091,0.088,0.179,0.178h-2.936V2663.761L22.404,2663.761z M25.783,2679.46c0,0.178-0.092,0.27-0.268,0.27H12.36
			c-0.177,0-0.267-0.18-0.267-0.27v-15.969c0-0.178,0.09-0.271,0.267-0.271h8.623c0.088,0,0.181,0,0.271,0v4.73h4.533
			c0,0.09,0,0.18,0,0.27L25.783,2679.46L25.783,2679.46z M23.116,2669.115h-2.399l-1.688,2.588l-1.688-2.588h-2.488l2.934,4.461
			l-3.29,4.996h4.71v-1.695h-1.064l0.888-1.338l1.955,3.033h2.488l-3.289-4.996L23.116,2669.115z"/>
	</g>
</g>
<g id="Excel_File_Extension._Attribute_as_Icomoon_from_Flaticon.com_copy_3_2_">
	<g>
		<path style="fill:#949494;" d="M25.961,2733.023l-2.578-2.678c-0.533-0.533-1.688-1.068-2.398-1.068h-8.623
			c-0.8,0-1.422,0.625-1.422,1.52v15.969c0,0.803,0.622,1.521,1.422,1.521h13.154c0.801,0,1.424-0.625,1.424-1.521v-11.236
			C26.938,2734.718,26.494,2733.558,25.961,2733.023z M22.404,2731.06c0.089,0.094,0.18,0.094,0.18,0.182l2.577,2.678
			c0.091,0.09,0.091,0.09,0.179,0.18h-2.936V2731.06L22.404,2731.06z M25.783,2746.759c0,0.178-0.092,0.271-0.268,0.271H12.36
			c-0.177,0-0.267-0.182-0.267-0.271v-15.967c0-0.182,0.09-0.271,0.267-0.271h8.623c0.088,0,0.181,0,0.271,0v4.73h4.533
			c0,0.09,0,0.18,0,0.27L25.783,2746.759L25.783,2746.759z M23.116,2736.412h-2.399L19.027,2739l-1.688-2.588h-2.49l2.935,4.459
			l-3.288,4.996h4.711v-1.693h-1.066l0.889-1.338l1.955,3.031h2.488l-3.289-4.996L23.116,2736.412z"/>
	</g>
</g>
<g>
	<path style="fill:#2DA0DA;" d="M13.246,2805.492h3.416v1.145h-3.416V2805.492z M13.246,2807.878h3.416v1.146h-3.416V2807.878z
		 M13.246,2810.175h3.416v1.146h-3.416V2810.175z M25.92,2799.75l-2.518-2.648c-0.539-0.617-1.617-1.063-2.426-1.063h-8.542
		c-0.811,0-1.439,0.707-1.439,1.504v15.994c0,0.797,0.629,1.502,1.439,1.502h13.125c0.812,0,1.438-0.705,1.438-1.502v-11.314
		C26.909,2801.427,26.459,2800.281,25.92,2799.75L25.92,2799.75z M25.111,2800.542c0.09,0.09,0.09,0.09,0.18,0.18h-2.875v-3.006
		c0.088,0.09,0.178,0.09,0.178,0.178L25.111,2800.542z M25.741,2813.449c0,0.178-0.093,0.268-0.271,0.268H12.346
		c-0.178,0-0.269-0.18-0.269-0.268v-15.996c0-0.178,0.091-0.266,0.269-0.266h8.541c0.09,0,0.18,0,0.271,0v4.686h4.492
		c0,0.088,0,0.178,0,0.268v11.314L25.741,2813.449L25.741,2813.449z M20.077,2809.031h3.325c-0.271,1.322-1.438,2.387-2.786,2.387
		c-1.528,0-2.876-1.324-2.876-2.918c0-1.412,0.989-2.646,2.246-2.916v3.447H20.077z M21.785,2804.343
		c1.527,0,2.877,1.324,2.877,2.916c0,0.178,0,0.439-0.092,0.619h-3.324v-3.447C21.426,2804.343,21.605,2804.343,21.785,2804.343
		L21.785,2804.343z"/>
</g>
<g>
	<path style="fill:#6D6D6C;" d="M13.246,2876.783h3.416v1.145h-3.416V2876.783z M13.246,2879.167h3.416v1.145h-3.416V2879.167z
		 M13.246,2881.464h3.416v1.146h-3.416V2881.464z M25.92,2871.039l-2.518-2.65c-0.539-0.615-1.617-1.063-2.426-1.063h-8.542
		c-0.811,0-1.439,0.707-1.439,1.502v15.994c0,0.797,0.629,1.502,1.439,1.502h13.125c0.812,0,1.438-0.705,1.438-1.502v-11.314
		C26.909,2872.716,26.459,2871.57,25.92,2871.039L25.92,2871.039z M25.111,2871.832c0.09,0.092,0.09,0.092,0.18,0.18h-2.875v-3.004
		c0.088,0.088,0.178,0.088,0.178,0.176L25.111,2871.832z M25.741,2884.738c0,0.176-0.093,0.264-0.271,0.264H12.346
		c-0.178,0-0.269-0.178-0.269-0.264v-15.996c0-0.18,0.091-0.27,0.269-0.27h8.541c0.09,0,0.18,0,0.271,0v4.688h4.492
		c0,0.088,0,0.178,0,0.268v11.314L25.741,2884.738L25.741,2884.738z M20.077,2880.316h3.325c-0.271,1.324-1.438,2.389-2.786,2.389
		c-1.528,0-2.876-1.326-2.876-2.916c0-1.414,0.989-2.648,2.246-2.916v3.443H20.077L20.077,2880.316z M21.785,2875.632
		c1.527,0,2.877,1.324,2.877,2.916c0,0.178,0,0.439-0.092,0.617h-3.324v-3.445C21.426,2875.632,21.605,2875.632,21.785,2875.632
		L21.785,2875.632z"/>
</g>
<g>
	<path style="fill:#949494;" d="M13.246,2950.783h3.416v1.145h-3.416V2950.783z M13.246,2953.167h3.416v1.145h-3.416V2953.167z
		 M13.246,2955.464h3.416v1.146h-3.416V2955.464z M25.92,2945.037l-2.518-2.648c-0.539-0.617-1.617-1.063-2.426-1.063h-8.542
		c-0.811,0-1.439,0.707-1.439,1.502v15.992c0,0.799,0.629,1.504,1.439,1.504h13.125c0.812,0,1.438-0.707,1.438-1.504v-11.313
		C26.909,2946.716,26.459,2945.57,25.92,2945.037L25.92,2945.037z M25.111,2945.832c0.09,0.092,0.09,0.092,0.18,0.18h-2.875v-3.004
		c0.088,0.088,0.178,0.088,0.178,0.176L25.111,2945.832z M25.741,2958.736c0,0.176-0.093,0.268-0.271,0.268H12.346
		c-0.178,0-0.269-0.18-0.269-0.268v-15.994c0-0.178,0.091-0.268,0.269-0.268h8.541c0.09,0,0.18,0,0.271,0v4.686h4.492
		c0,0.092,0,0.18,0,0.27v11.314L25.741,2958.736L25.741,2958.736z M20.077,2954.316h3.325c-0.271,1.324-1.438,2.389-2.786,2.389
		c-1.528,0-2.876-1.326-2.876-2.916c0-1.414,0.989-2.648,2.246-2.918v3.445H20.077z M21.785,2949.632
		c1.527,0,2.877,1.324,2.877,2.916c0,0.178,0,0.439-0.092,0.615h-3.324v-3.443C21.426,2949.632,21.605,2949.632,21.785,2949.632
		L21.785,2949.632z"/>
</g>
<g id="Word_File_Symbol._Attribute_as_Icomoon_from_Flaticon.com_copy_2_6_">
	<g>
		<path style="fill:#2DA0DA;" d="M26.021,3019.455l-2.578-2.65c-0.533-0.602-1.688-1.021-2.4-1.021h-8.621
			c-0.799,0-1.422,0.688-1.422,1.453v16.092c0,0.854,0.623,1.453,1.422,1.453h13.154c0.803,0,1.424-0.689,1.424-1.453v-11.299
			C27,3021.167,26.553,3020.054,26.021,3019.455z M22.465,3017.404c0.092,0.084,0.18,0.084,0.18,0.17l2.576,2.648
			c0.092,0.086,0.092,0.174,0.18,0.174h-2.936V3017.404L22.465,3017.404z M25.844,3033.322c0,0.172-0.09,0.258-0.27,0.258H12.422
			c-0.177,0-0.266-0.172-0.266-0.258v-16.092c0-0.17,0.088-0.258,0.266-0.258h8.621c0.092,0,0.18,0,0.268,0v4.707h4.533
			c0,0.086,0,0.172,0,0.258V3033.322L25.844,3033.322z M21.311,3024.591h0.801l-0.889,4.189l-1.156-5.904H18.2l-1.422,5.904
			l-1.066-5.904h-1.955l2.043,9.586h1.955l1.334-5.646l1.244,5.646h1.776l2.312-9.586H21.4v1.713L21.311,3024.591L21.311,3024.591z"
			/>
	</g>
</g>
<g id="Word_File_Symbol._Attribute_as_Icomoon_from_Flaticon.com_copy_2_4_">
	<g>
		<path style="fill:#626363;" d="M26.021,3093.625l-2.58-2.648c-0.531-0.604-1.688-1.023-2.398-1.023h-8.621
			c-0.801,0-1.422,0.688-1.422,1.455v16.09c0,0.855,0.623,1.457,1.422,1.457h13.154c0.801,0,1.424-0.688,1.424-1.457v-11.297
			C27,3095.339,26.553,3094.226,26.021,3093.625z M22.465,3091.574c0.09,0.086,0.178,0.086,0.178,0.172l2.578,2.652
			c0.092,0.086,0.092,0.172,0.178,0.172h-2.934V3091.574L22.465,3091.574z M25.842,3107.492c0,0.172-0.088,0.256-0.268,0.256H12.422
			c-0.178,0-0.267-0.172-0.267-0.256V3091.4c0-0.17,0.088-0.258,0.267-0.258h8.621c0.09,0,0.178,0,0.266,0v4.707h4.533
			c0,0.086,0,0.172,0,0.258V3107.492L25.842,3107.492z M21.309,3098.761h0.801l-0.889,4.193l-1.154-5.904H18.2l-1.422,5.904
			l-1.066-5.904h-1.955l2.045,9.584h1.955l1.332-5.645l1.244,5.645h1.776l2.312-9.584H21.4v1.711H21.309L21.309,3098.761z"/>
	</g>
</g>
<g id="Word_File_Symbol._Attribute_as_Icomoon_from_Flaticon.com_copy_2_3_">
	<g>
		<path style="fill:#949494;" d="M26.021,3163.625l-2.58-2.648c-0.531-0.602-1.688-1.023-2.398-1.023h-8.621
			c-0.801,0-1.422,0.688-1.422,1.455v16.09c0,0.855,0.623,1.457,1.422,1.457h13.154c0.801,0,1.424-0.688,1.424-1.457v-11.297
			C27,3165.339,26.553,3164.226,26.021,3163.625z M22.465,3161.574c0.09,0.088,0.178,0.088,0.178,0.172l2.578,2.652
			c0.092,0.086,0.092,0.17,0.178,0.17h-2.934V3161.574L22.465,3161.574z M25.842,3177.492c0,0.172-0.088,0.256-0.268,0.256H12.422
			c-0.178,0-0.267-0.172-0.267-0.256V3161.4c0-0.17,0.088-0.258,0.267-0.258h8.621c0.09,0,0.178,0,0.266,0v4.707h4.533
			c0,0.086,0,0.172,0,0.258V3177.492L25.842,3177.492z M21.309,3168.761h0.801l-0.889,4.193l-1.154-5.904H18.2l-1.422,5.904
			l-1.066-5.904h-1.955l2.045,9.584h1.955l1.332-5.645l1.244,5.645h1.776l2.312-9.584H21.4v1.711H21.309L21.309,3168.761z"/>
	</g>
</g>
<g id="Adobe_PDF_Document._Attribute_as_Icomoon_from_Flaticon.com_4_">
	<g>
		<path style="fill:#626363;" d="M25.873,3305.595l-2.578-2.68c-0.533-0.604-1.689-1.035-2.398-1.035h-8.534
			c-0.801,0-1.423,0.689-1.423,1.471v16.064c0,0.773,0.622,1.469,1.423,1.469h13.155c0.801,0,1.422-0.688,1.422-1.469v-11.314
			C26.85,3307.238,26.404,3306.117,25.873,3305.595z M22.229,3303.611c0.088,0.086,0.176,0.086,0.176,0.174l2.578,2.68
			c0.095,0.086,0.095,0.086,0.183,0.174h-2.938L22.229,3303.611L22.229,3303.611z M25.693,3319.414c0,0.174-0.09,0.262-0.271,0.262
			H12.272c-0.179,0-0.267-0.176-0.267-0.262v-16.064c0-0.176,0.088-0.262,0.267-0.262h8.533c0.09,0,0.178,0,0.271,0v4.75h4.529
			c0,0.086,0,0.174,0,0.26L25.693,3319.414L25.693,3319.414z M24.717,3312.763c-0.267-0.26-0.801-0.346-1.601-0.436
			c-0.532,0-1.243,0.088-1.956,0.174c-0.354-0.174-0.621-0.436-0.889-0.604c-0.711-0.689-1.244-1.561-1.604-2.594
			c0-0.09,0-0.176,0.09-0.264c0,0,0.354-2.244,0.269-3.021c0-0.086,0-0.174-0.087-0.26v-0.088c-0.09-0.26-0.355-0.52-0.622-0.52
			H18.14l0,0c-0.356,0-0.623,0.176-0.713,0.52c-0.266,0.863,0,2.246,0.445,3.979l-0.09,0.26c-0.355,0.773-0.711,1.557-1.066,2.332
			l-0.09,0.088c-0.354,0.773-0.711,1.383-0.978,1.895l-0.267,0.176c0,0-0.535,0.348-0.713,0.348
			c-1.066,0.688-1.777,1.383-1.867,1.982c0,0.176,0,0.436,0.178,0.521l0.266,0.172c0.09,0.09,0.266,0.09,0.445,0.09
			c0.711,0,1.6-0.945,2.844-3.191c1.424-0.436,2.934-0.861,4.354-1.035c1.063,0.604,2.396,1.035,3.195,1.035
			c0.182,0,0.271,0,0.354,0c0.181-0.086,0.271-0.174,0.354-0.262c0.181-0.262,0.181-0.604,0.181-0.945
			C24.895,3313.023,24.805,3312.851,24.717,3312.763z M13.516,3316.994c0.179-0.434,0.712-1.121,1.513-1.814
			c0.089,0,0.177-0.174,0.267-0.262C14.405,3316.218,13.871,3316.824,13.516,3316.994z M18.228,3305.595
			c0.267,0,0.354,0.605,0.354,1.209c0,0.605-0.089,1.035-0.267,1.295c-0.177-0.434-0.177-1.209-0.177-1.643
			C18.139,3306.458,18.139,3305.595,18.228,3305.595z M16.805,3313.714c0.178-0.35,0.355-0.604,0.533-1.037
			c0.444-0.861,0.711-1.557,0.889-2.072c0.443,0.775,0.888,1.473,1.511,1.984c0.089,0.088,0.179,0.174,0.269,0.174
			C18.76,3313.023,17.783,3313.283,16.805,3313.714z M24.539,3313.625c-0.089,0.088-0.268,0.088-0.445,0.088
			c-0.443,0-0.978-0.172-1.775-0.52c0.271,0,0.531,0,0.804,0c0.44,0,0.528,0,0.979,0.088
			C24.539,3313.367,24.539,3313.541,24.539,3313.625z"/>
	</g>
</g>
<g id="Adobe_PDF_Document._Attribute_as_Icomoon_from_Flaticon.com_2_">
	<g>
		<path style="fill:#949494;" d="M25.873,3379.595l-2.578-2.68c-0.533-0.604-1.689-1.035-2.398-1.035h-8.534
			c-0.801,0-1.423,0.689-1.423,1.471v16.064c0,0.773,0.622,1.469,1.423,1.469h13.155c0.801,0,1.422-0.688,1.422-1.469v-11.314
			C26.85,3381.238,26.404,3380.117,25.873,3379.595z M22.229,3377.611c0.088,0.086,0.176,0.086,0.176,0.174l2.578,2.68
			c0.095,0.086,0.095,0.086,0.183,0.174h-2.938L22.229,3377.611L22.229,3377.611z M25.693,3393.414c0,0.174-0.09,0.262-0.271,0.262
			H12.272c-0.179,0-0.267-0.176-0.267-0.262v-16.064c0-0.176,0.088-0.262,0.267-0.262h8.533c0.09,0,0.178,0,0.271,0v4.75h4.529
			c0,0.086,0,0.174,0,0.26L25.693,3393.414L25.693,3393.414z M24.717,3386.763c-0.267-0.26-0.801-0.346-1.601-0.436
			c-0.532,0-1.243,0.088-1.956,0.174c-0.354-0.174-0.621-0.436-0.889-0.604c-0.711-0.689-1.244-1.561-1.604-2.594
			c0-0.09,0-0.176,0.09-0.264c0,0,0.354-2.244,0.269-3.021c0-0.086,0-0.174-0.087-0.26v-0.088c-0.09-0.26-0.355-0.52-0.622-0.52
			H18.14l0,0c-0.356,0-0.623,0.176-0.713,0.52c-0.266,0.863,0,2.246,0.445,3.979l-0.09,0.26c-0.355,0.773-0.711,1.557-1.066,2.332
			l-0.09,0.088c-0.354,0.773-0.711,1.383-0.978,1.895l-0.267,0.176c0,0-0.535,0.348-0.713,0.348
			c-1.066,0.688-1.777,1.383-1.867,1.982c0,0.176,0,0.436,0.178,0.521l0.266,0.172c0.09,0.09,0.266,0.09,0.445,0.09
			c0.711,0,1.6-0.945,2.844-3.191c1.424-0.436,2.934-0.861,4.354-1.035c1.063,0.604,2.396,1.035,3.195,1.035
			c0.182,0,0.271,0,0.354,0c0.181-0.086,0.271-0.174,0.354-0.262c0.181-0.262,0.181-0.604,0.181-0.945
			C24.895,3387.023,24.805,3386.851,24.717,3386.763z M13.516,3390.994c0.179-0.434,0.712-1.121,1.513-1.814
			c0.089,0,0.177-0.174,0.267-0.262C14.405,3390.218,13.871,3390.824,13.516,3390.994z M18.228,3379.595
			c0.267,0,0.354,0.605,0.354,1.209c0,0.605-0.089,1.035-0.267,1.295c-0.177-0.434-0.177-1.209-0.177-1.643
			C18.139,3380.458,18.139,3379.595,18.228,3379.595z M16.805,3387.714c0.178-0.35,0.355-0.604,0.533-1.037
			c0.444-0.861,0.711-1.557,0.889-2.072c0.443,0.775,0.888,1.473,1.511,1.984c0.089,0.088,0.179,0.174,0.269,0.174
			C18.76,3387.023,17.783,3387.283,16.805,3387.714z M24.539,3387.625c-0.089,0.088-0.268,0.088-0.445,0.088
			c-0.443,0-0.978-0.172-1.775-0.52c0.271,0,0.531,0,0.804,0c0.44,0,0.528,0,0.979,0.088
			C24.539,3387.367,24.539,3387.541,24.539,3387.625z"/>
	</g>
</g>
<g id="Adobe_PDF_Document._Attribute_as_Icomoon_from_Flaticon.com_1_">
	<g>
		<path style="fill:#2DA0DA;" d="M25.873,3236.595l-2.578-2.68c-0.533-0.604-1.689-1.035-2.398-1.035h-8.534
			c-0.801,0-1.423,0.689-1.423,1.471v16.064c0,0.773,0.622,1.469,1.423,1.469h13.155c0.801,0,1.422-0.688,1.422-1.469v-11.314
			C26.85,3238.238,26.404,3237.117,25.873,3236.595z M22.229,3234.611c0.088,0.086,0.176,0.086,0.176,0.174l2.578,2.68
			c0.095,0.086,0.095,0.086,0.183,0.174h-2.938L22.229,3234.611L22.229,3234.611z M25.693,3250.414c0,0.174-0.09,0.262-0.271,0.262
			H12.272c-0.179,0-0.267-0.176-0.267-0.262v-16.064c0-0.176,0.088-0.262,0.267-0.262h8.533c0.09,0,0.178,0,0.271,0v4.75h4.529
			c0,0.086,0,0.174,0,0.26L25.693,3250.414L25.693,3250.414z M24.717,3243.763c-0.267-0.26-0.801-0.346-1.601-0.436
			c-0.532,0-1.243,0.088-1.956,0.174c-0.354-0.174-0.621-0.436-0.889-0.604c-0.711-0.689-1.244-1.561-1.604-2.594
			c0-0.09,0-0.176,0.09-0.264c0,0,0.354-2.244,0.269-3.021c0-0.086,0-0.174-0.087-0.26v-0.088c-0.09-0.26-0.355-0.52-0.622-0.52
			H18.14l0,0c-0.356,0-0.623,0.176-0.713,0.52c-0.266,0.863,0,2.246,0.445,3.979l-0.09,0.26c-0.355,0.773-0.711,1.557-1.066,2.332
			l-0.09,0.088c-0.354,0.773-0.711,1.383-0.978,1.895l-0.267,0.176c0,0-0.535,0.348-0.713,0.348
			c-1.066,0.688-1.777,1.383-1.867,1.982c0,0.176,0,0.436,0.178,0.521l0.266,0.172c0.09,0.09,0.266,0.09,0.445,0.09
			c0.711,0,1.6-0.945,2.844-3.191c1.424-0.436,2.934-0.861,4.354-1.035c1.063,0.604,2.396,1.035,3.195,1.035
			c0.182,0,0.271,0,0.354,0c0.181-0.086,0.271-0.174,0.354-0.262c0.181-0.262,0.181-0.604,0.181-0.945
			C24.895,3244.023,24.805,3243.851,24.717,3243.763z M13.516,3247.994c0.179-0.434,0.712-1.121,1.513-1.814
			c0.089,0,0.177-0.174,0.267-0.262C14.405,3247.218,13.871,3247.824,13.516,3247.994z M18.228,3236.595
			c0.267,0,0.354,0.605,0.354,1.209c0,0.605-0.089,1.035-0.267,1.295c-0.177-0.434-0.177-1.209-0.177-1.643
			C18.139,3237.458,18.139,3236.595,18.228,3236.595z M16.805,3244.714c0.178-0.35,0.355-0.604,0.533-1.037
			c0.444-0.861,0.711-1.557,0.889-2.072c0.443,0.775,0.888,1.473,1.511,1.984c0.089,0.088,0.179,0.174,0.269,0.174
			C18.76,3244.023,17.783,3244.283,16.805,3244.714z M24.539,3244.625c-0.089,0.088-0.268,0.088-0.445,0.088
			c-0.443,0-0.978-0.172-1.775-0.52c0.271,0,0.531,0,0.804,0c0.44,0,0.528,0,0.979,0.088
			C24.539,3244.367,24.539,3244.541,24.539,3244.625z"/>
	</g>
</g>
<rect x="11.628" y="358.142" transform="matrix(-0.7209 0.6931 -0.6931 -0.7209 279.2804 605.1174)" style="fill:#029FCC;" width="12.316" height="1.313"/>
<rect x="11.639" y="295.127" transform="matrix(-0.7209 0.693 -0.693 -0.7209 235.6138 496.6808)" style="fill:#029FCC;" width="12.316" height="1.312"/>
<path d="M18.736,156.176H23v4.343l-1.579,1.5v-3l-4.815,4.815l-1.185-1.185l4.896-4.896H17.16L18.736,156.176z M11,158.702h7.105
	l-1.579,1.578h-3.947v6.315h6.315v-3.632l1.579-1.578v6.789H11V158.702z"/>
<rect x="15.012" y="389.317" style="fill:#010202;" width="2.169" height="10"/>
<rect x="19.75" y="389.398" style="fill:#010202;" width="2.169" height="10"/>
<g id="Play_copy_3_3_">
	<g>
		<polygon style="fill:#010202;" points="12.977,3840.123 12.977,3856.123 26.313,3848.125 		"/>
	</g>
</g>
<rect x="13.466" y="3788.312" style="fill:#010202;" width="3.14" height="14.48"/>
<rect x="20.325" y="3788.429" style="fill:#010202;" width="3.141" height="14.48"/>
<rect x="15.012" y="503.317" style="fill:#626362;" width="2.169" height="10"/>
<rect x="19.75" y="503.398" style="fill:#626362;" width="2.169" height="10"/>
<path style="fill:#050505;" d="M17.315,2254.175c2.36,0,4.686,1.037,4.686,3.514c0,2.283-2.749,3.162-3.339,3.986
	c-0.443,0.615-0.295,1.48-1.513,1.48c-0.793,0-1.181-0.615-1.181-1.18c0-2.092,3.228-2.563,3.228-4.287
	c0-0.945-0.658-1.51-1.771-1.51c-2.361,0-1.439,2.318-3.227,2.318c-0.646,0-1.2-0.369-1.2-1.072
	C12.999,2255.703,15.064,2254.175,17.315,2254.175z"/>
<path style="fill:#050505;" d="M17.224,2264.292c0.829,0,1.513,0.648,1.513,1.439c0,0.793-0.684,1.438-1.513,1.438
	c-0.83,0-1.513-0.646-1.513-1.438C15.711,2264.945,16.394,2264.292,17.224,2264.292z"/>
<rect x="13.955" y="460.389" style="fill:#010202;" width="10" height="10"/>
<rect x="13.955" y="575.389" style="fill:#626362;" width="10" height="10"/>
<path style="fill:#C2C3C7;" d="M13,3638.175l11,6.5l-11,6.5V3638.175z"/>
<path style="fill:#C2C3C7;" d="M24,3682.175l-11-6.5l11-6.5V3682.175z"/>
<path style="fill:#C4C3C3;" d="M14.318,3719.271c0.069,0,0.141-0.023,0.2-0.076l9.472-8.492l-9.473-8.492
	c-0.146-0.129-0.351-0.098-0.462,0.074c-0.109,0.172-0.081,0.416,0.064,0.547l8.779,7.871l-8.779,7.871
	c-0.145,0.131-0.173,0.373-0.064,0.545C14.12,3719.218,14.219,3719.271,14.318,3719.271z"/>
<path style="fill:#C4C3C3;" d="M23.66,3734.128c-0.069,0-0.141,0.025-0.199,0.08l-9.473,8.49l9.473,8.492
	c0.146,0.129,0.352,0.098,0.463-0.074c0.109-0.172,0.08-0.416-0.064-0.547l-8.776-7.871l8.776-7.871
	c0.146-0.133,0.178-0.373,0.064-0.545C23.857,3734.183,23.76,3734.128,23.66,3734.128z"/>
</svg>
